<svg viewBox="0 0 1080 1080" xmlns="http://www.w3.org/2000/svg" id="enjoy_our_product"><defs><style>.cls-1{fill:#f9f1cb;}.cls-2{fill:#e8a1a4;}.cls-3{fill:#9a702d;}.cls-4{fill:#f37a81;}.cls-5{fill:#72ccd1;}.cls-6{fill:#f2d0b9;}.cls-7{fill:#efca87;}.cls-8{fill:#483613;}</style></defs><title>enjoy our product</title><path d="M1039,877.49c0,11.83-98,22.72-255.8,28.45s-350.6,5.37-503.31-.93S38.61,887.48,48.69,875.67l494.75,1.81H1039Z" class="cls-1" id="path2217"></path><path d="M631,490.46A7.55,7.55,0,0,1,623.4,498h0a7.55,7.55,0,1,1,7.55-7.55Z" class="cls-2" id="path7004-5-5-1-7-6-7-12-0-1-2-5-0-8-3"></path><path d="M589.82,774.66s-20.08-8-59.47-2.65a239.72,239.72,0,0,0-69.7,20.83s14.62,12.08,52.66,11.82,76.51-30,76.51-30Z" class="cls-1" id="path2720"></path><path d="M701.88,832s-21.69,17.41-72.32,14.19-20.09-16.6-1.34-30.53,26.52-33.75,26.52-33.75,3.84,17,3.46,29.32,14.39,18.19,28.41,19.7S701.88,832,701.88,832Z" class="cls-1" id="path2722"></path><path d="M370.23,748.16s-16.41,51.12,16.93,70.44,1.9,31.82-22.73,31.44-22,21.59-22,21.59H268.59s-10.23-6.63-2.08-23.86,35.23-35,54-48.11S370.23,748.16,370.23,748.16Z" class="cls-1" id="path2724"></path><path d="M779.56,642.07c-5.89-2.41-56-25.72-61.61-19.29S698.67,686,697.87,701.53s5.35,38.84,4,47.14-12.32,20.36-6.43,30.81,5.9,28.4,11.52,31.07S730.28,800.37,728.4,768s9.65-91.88,20.63-107.41,30.53-18.48,30.53-18.48Z" class="cls-1" id="path2726"></path><path d="M798.85,663.5s-23.57,78.75-12.59,108.75,11.52,57.58-3.22,70.18-22.23,2.94-22.23,2.94-20.09-39.64-15-67.77,5.09-49,22.5-77.41,30.54-36.69,30.54-36.69Z" class="cls-1" id="path2728"></path><path d="M519,281.45c0-1.51-1.89-34.85-17.42-18.18s-36.75,92.43-65.92,132.2-37.12,59.86-37.5,72.73,64,15.53,91.67,10.23S520.12,421.23,519,281.45Z" class="cls-1" id="path2730"></path><path d="M358,281.45c0-1.51-1.89-34.85-17.43-18.18s-36.74,92.43-65.91,132.2-37.12,59.86-37.5,72.73,64,15.53,91.67,10.23S359.13,421.23,358,281.45Z" class="cls-1" id="path2732"></path><path d="M348.44,510.52c-2.13,0-4.72,1.27-7.88,4.65C325,531.84,303.82,607.6,274.65,647.38s-37.12,59.85-37.5,72.73c-.31,10.6,43.28,14.27,74.13,12.27a70.7,70.7,0,0,1,1.25-8.48c9.79-47,33.17-73.28,44.76-83.86,1-27.79,1.06-62.93.7-106.68C358,532.15,356.79,510.74,348.44,510.52Z" class="cls-1" id="path2735"></path><path d="M520.81,718.67c-5.62-9.64-21.16-47.14-27.32-64.28s-42.05-24.64-64.29-9.64S398.94,686.53,392,702.87,382.06,739,382.06,739s45.81-30.81,76.88-32.68,61.87,12.32,61.87,12.32Z" class="cls-1" id="path2741"></path><path d="M679.5,401.34c.1-.75-1-24.33,15.53-31.82s22.16,1.71,19.42,10.14-7.11,11.65-3.51,15.53,8.34,9,5.21,13.92-10,7.29-14.3,7.29-20.45-10.51-22.35-15.06Z" class="cls-3" id="path2779"></path><path d="M581.3,492.54c-2.75-3-15.72-15.72-14.77-31.34s11.93-25.1,14.2-28.6,22.82-30.31,36.46-34.57,34.66-4.36,40.63,5.3,4,14.21,13.35,18.19S695.51,443,696.65,450s3.6,26-1.8,36.74S688.69,500,680.74,502s-16.67,1.32-18.75-.86-4.83-6.72.66-8.71,13.07-6,10.89-11.93-2.27-10.52-7.67-10.42-16.1,8.15-20,4-14.77-11-9-14.3,13.16-10,13.06-13.64-11.93,1.8-19.31,5.59-23.4-.86-29.17-12.69-12.6-11.84-13.64-10.32-10.7,10.51-10.51,18,9.94,42,8.52,44.51-4.55,1.32-4.55,1.32Z" class="cls-3" id="path2777"></path><path d="M663.71,525.5c-2.75,0-3,1.66-1.47,5.67,2,5.36,2.54,11.39-9.38,14.47s-28.92,1.48-34.15-1.07c-.53.4-8.3-2.81-9.91,7.5s.54,13.4-3.75,16.74-3.21,4.42,1.88,6.57,17.81,7.1,17.81,18.75,13.13,36.16,15.8,39.1,6.43,3.22,7,2.94-9,10.72-12.59,5.76-16.47-39.77-17.14-45.67-1.34-15.53-6.43-17.81-12.19-3-9.65.4,7.9,19,2.15,29.2-15.94,10-20.63,8.84-6-7.23-6-7.23-7.1,13.39-2.28,17.94c3.74,3.54,8.2,3.36,10.52,3.8,3.8-.09,10.56,1.72,14.61,14.27,5.87,18.19,7.77,53.23,31.06,65.35a46.46,46.46,0,0,1,6.41,3.94,38.79,38.79,0,0,0,12.4-5.67c24.37-16.2,50-53,50-53s12.84-28.11,19.29-38,5.36-32-1.61-38.56-24-15.54-29.73-15.94-6.43-4-4.42-14.2-10-22-16.07-23.44a18.22,18.22,0,0,0-3.62-.58Z" class="cls-4" id="path2801"></path><path d="M504.47,611.4s16.34,55.85,26.52,67.1,19.15,11.38,24.91,6.56,15.81-21.16,15.81-21.16-3.22-21.83-3.22-23,5.9,2.82,9.38,15.4,4.82,20,4.82,34.56.8,25.44.8,25.44,12.59,4.16,14.6,9.51-14.46-3.48-27.19-.4-34.69,4.56-34.69,4.56,5.5,15.4,26,21.69,48.34,5.23,59.33,8.57,20.35,9.24,28.39,13.26,30.14,3.08,38-.27,14.73-16.2,14.73-24.1-7-29.2-5.23-44.6,8-52.5,8-52.5-12.32,15-14.33,17.68-18.08,27.19-39.78,40.18-29.6,3.08-38.84-5.76-16.6-36.3-18.61-46.21-5.41-19.89-7-23.18-12.31-2-16.38-9.19-3.22-17.14-3.51-19.6-4.54,9.19-7.38,19.23-5.88,27-5.88,27-8.05-18.47-10.89-28.23-6.44-25.38-8.05-31.63-1.61-1.61-9.75,6.44-20.67,12.69-20.67,12.69h0Z" class="cls-4" id="path2806"></path><path d="M696.64,783s-38.07,4.17-38.44,5.5-4.74,25.38,5.11,32.76,29.55,14.21,35.23,8.72,9.47-17.23,8.81-24-10.71-23-10.71-23Z" class="cls-5" id="path2808"></path><path d="M641.81,517.92c.09,1.05,4.45,12.79-.85,19.13s-14.77,10.14-15.25,10.42-4.17,2.94-2.84-2.94,2.75-14.29,9-19.31A111.7,111.7,0,0,1,641.81,517.92Z" class="cls-6" id="path3594"></path><path d="M798.44,170c-6.33,0-9.53,1.65-13.45,6.9-2.59,3.47-2.65,10.74-.11,13.55,1.69,1.87,1.64,2-1.6,2.44-20.95,3.19-32.09,6.24-43.35,11.88-6.86,3.44-14.5,8.48-14.5,9.57,0,.41-3.41,5.9-7.58,12.2-9.83,14.86-22.44,40-23.14,46.16-.47,4.21-.28,4.76,2.31,6.46s5.93,1.87,44.74,2.15l41.92.3-.65,17.7c-.82,22.3-2.36,105.27-3.09,166.69-.31,25.86-.77,52-1,58s0,30.31.52,53.91.88,43,.74,43.15a102.31,102.31,0,0,1-10.31-3.15c-10.49-3.52-28.87-7.75-38.6-8.94l-7.12-.87s-2.06,6.11-1.23,6.1c3.16-.05,32.78,6,40.65,8.34A250.42,250.42,0,0,1,800.91,638l9,4.73,1.51-2.25c4.9-7.29,13.41-13,19.48-13,3,0,3.54.34,3.54,2.31,0,3.06-5.1,11.07-10.7,16.84-3.31,3.4-4.34,5.15-3.88,6.58.34,1.08-.07,3.59-.91,5.6-2.71,6.49-6.4,22.87-8.15,36.18-2.09,15.94-2.39,53.07-.56,69,.69,6,2.42,19.55,3.84,30,2,15.14,2.48,21.44,2,31-.87,19.73-6.81,35.47-15.79,41.75a10.46,10.46,0,0,1-6,2.45l11.94.3,3.44-4.25a47.81,47.81,0,0,0,8.74-16.5c.7-2.34,1.8-4.25,2.46-4.25s3.87,1.73,7.16,3.86c8.4,5.44,15.33,17.34,15.33,22.7a.66.66,0,0,1-.41.59l7.59.12c-.33-.15-.52-.32-.57-.52-2.11-7.52-3.48-13.34-7.15-17.82-4.47-5.44-14.81-13.31-18.85-14.31-2.34-.59-2.34-.61-1.85-13.86a133.1,133.1,0,0,0-1.63-27.76c-5.89-40.39-7.24-67.24-4.73-93.31,1.66-17.27,4.41-32.63,7.71-43.19a47.92,47.92,0,0,0,1.9-7.41c0-.78,2.43-4,5.39-7,12.29-12.89,12.87-23.48,1.35-24.78-6.16-.69-14.13,3.11-19.63,9.36-3.25,3.68-4.31,4.33-5.79,3.54-1.73-.92-1.78-3.56-1.17-57.32.35-31,1.16-74.57,1.81-96.85s1.17-76.39,1.17-120.25l0-79.75h29.57l.68,59.75c.37,32.86.39,84,0,113.58l-.63,53.81L835.82,510c-2.31,2.31-2.38,2.89-2.38,18,0,20.86,1.68,24.72,10.83,24.72,6.19,0,6.77-1.65,7.45-21.37.64-18.74.23-20.73-4.69-23l-2.3-1.05.48-73.66c.29-44.48,0-89.25-.68-113-.63-21.66-1-39.57-.74-39.8s11.61-.76,25.28-1.18c16-.49,25.65-1.19,27.07-2,5.59-3,2.87-14.71-8.41-36.18-12.34-23.46-20.9-36.1-26.46-39.08-4.85-2.59-28.5-7.64-44.11-9.41l-5.77-.65.64-4.82c.8-6-.73-10.83-4.68-14.62-2.66-2.54-3.8-2.91-8.91-2.91h0Zm.23,5.75c1.48,0,2.65.61,4.32,2.05,2.56,2.2,2.88,3.15,2.91,8.35h0l0,5.86-5.12.29c-4.31.26-5.6-.1-8.25-2.33-5.69-4.79-3.21-12.5,4.51-14a7.92,7.92,0,0,1,1.6-.18Zm-388.45,21c-25.3-.05-52.41.37-78.29,1.29-22.55.81-52.92,1.49-67.5,1.52-28.85.06-37.5.8-47.17,4-11.9,4-21.14,13.36-26.06,26.45-2.2,5.83-2.26,7.09-2.38,45.5-.07,21.73-.62,49.85-1.23,62.5-1,21.46-2.17,100.94-2.68,187-.12,20.35-.84,51.63-1.6,69.5s-1.37,54.77-1.37,82c0,42.67.25,50.77,1.74,58.68,3.4,18.07,8.66,27.06,19.48,33.32l6.05,3.5-4.45,4.77c-9.21,9.88-14.19,28.89-15.18,51l-.64,14.43-2.71-4.1c-2.88-4.36-8.6-9.27-10.81-9.27-5.14,0-6.54,9.16-3,19.49,2.32,6.73,7.9,17,11.61,21.46l2.57,3h8l-3.66-4.25c-7.33-8.51-14.5-23.33-14.5-30v-3.14l2.62,2.42c4.75,4.4,12.27,16,13.83,21.39,1.7,5.84,4.12,8.82,5.1,6.26.32-.82-.16-5-1-9.35-2.32-11.17-2.11-36.36.44-48.61a88.5,88.5,0,0,1,5.36-16.5c3.32-7,8.47-13.63,10.54-13.63,1.49,0,2,5.57,3.15,31.58.54,12.7,1.64,31.38,2.45,37.38a143.38,143.38,0,0,1,1.27,18.65v0l-.2,7.74,7.67-.15.14,0c5.65-1.49-4.35-2.86-2.25-11.06,2.15-8.4,5.35-15.75,6.85-15.75.48,0,1.42,3.93,2.08,8.75,2.12,15.51,2.43,16.7,4.41,17.09,1.73.33,1.81-.4,1.39-12-.47-12.76-2.14-19.28-5.25-20.48-2.8-1.07-6.57.62-8.53,3.84-1.34,2.21-2.08,2.73-2.42,1.73-.27-.79-1-17.87-1.6-33.82s-1.52-30.55-2-32.44-.72-3.65-.47-3.9,16.33-.81,35.73-1.26,40.89-1.29,47.77-1.86c13.41-1.13,39.77-1.6,40.64-.72S325.83,792,319,797.49a214.13,214.13,0,0,1-18.23,12.18Q271,827.49,263.56,843.5c-3.21,6.94-4,17-1.77,22.29l1.55,3.71,8.19.09s-1.2-1.66-1.52-2c-4.15-4.59-4.07-14,.21-22.58,4.4-8.8,25.13-27.48,37.22-33.52,12.41-6.2,20.82-13.56,40.15-35.15,8.71-9.73,19.15-20.68,23.2-24.35,27.41-24.83,65.48-41.73,97.15-43.17,17.29-.77,28,1.23,41,7.63,12.72,6.29,27.14,17.16,29.94,22.57,2.7,5.24,14.62,13.29,24.06,16.26,9.86,3.1,14.87,3.9,32.5,5.21,35.23,2.61,48.37,8.37,56.54,24.77,2.6,5.23,2.92,7,3.41,19.25.45,11,.91,14.1,2.53,16.78,2.64,4.36,8,7.93,15.69,10.47,5.85,1.94,8.33,2.08,33.33,1.9,21.74-.16,28.15.1,32.93,1.36,8.29,2.18,15.63,6.39,17.86,10.23,2.55,4.39,2.46,13.77-.19,19.75l-2,6,6.84-.16.35-.15c.19-.08-.3,0-.3-.07a30.55,30.55,0,0,1,1.49-5.46c1.76-4.21,2-15.85.41-20.76-.6-1.87-2.46-6.32-4.12-9.9-8.27-17.73-11.79-33.54-11.79-53,0-31.23,10-62.16,29.46-91.47,8.19-12.31,15.72-21.23,22.79-27,5.32-4.31,5.85-5.53,2.4-5.53-8.5,0-32.83,29.34-44.17,53.27a191.65,191.65,0,0,0-13.66,40.51C743.31,760.35,743,765,743,781c0,21.27,1.41,29.24,7.9,45.18l3.38,8.27-3-1.55c-7.2-3.73-12.39-4.63-29.46-5.12l-17.24.27H703l-11.63.11c-9.6.09-20.62-2.52-26-6.89-4.29-3.46-5.19-6.45-4.5-15A48.2,48.2,0,0,0,658.67,786c-.79-2.26-5.92-12.73-12.77-18-5.41-4.12-15.23-8.27-23.6-10-4.2-.85-16.22-2.24-26.7-3.09-21.75-1.76-31.29-3.87-41.31-9.14-5.4-2.83-8-5-11.17-9.27a75.21,75.21,0,0,0-7.5-8.68c-1.64-1.5-10.94-9.21-10.94-9.21-6.4-5.06-18.39-11-26.83-13.37-6.71-1.85-10.49-2.19-24.91-2.16-15.74,0-17.86.25-28.63,3.08-26.79,7.06-52.53,20.25-72.56,37.19-4,3.34-7.44,6.08-7.75,6.08s-.56-.82-.56-1.8a4.59,4.59,0,0,0-.91-2.75c-2.23-2.32-4.37-21.73-3.79-34.36,1-21.29,5.79-37,19.27-62.84,4.09-7.83,7.43-15.07,7.43-16.08,0-2.76-1.13-3.36-3.06-1.62-1.58,1.43-1.9,1.32-3.81-1.38-5.3-7.44-7.92-18.55-4.67-19.8s16.46,3,21.69,6.78c1.35,1,2.2.73,4.78-1.44,5.35-4.5,32.12-11.87,60.59-16.68l12-2,1.95,2.75c3.45,4.86,9.65,10.09,14.15,11.94,5.27,3.64,13.11,2.6,14.16,2.55,10.52-.58,20.31-6.59,26.33-16.18a12.18,12.18,0,0,1,3.91-4.11c-.12-5.08-3.2-14.72-3.2-14.72l-.16.07c.59.61-.07,2.4-2.18,7.61-4.71,11.58-9.3,16.7-17.62,19.64h0c-12.9,4.55-26.43-1.56-32.28-14.6-2.63-5.86-5.56-19.9-5.56-26.73v-3.28l2.95,1.53c11.59,6,34.86,5.75,47.08-.49,3.43-1.75,4.4-1.91,5.09-.82,1.22,1.92,1.71,7.15.5,9.42,3.33-2.1,6.49-4.38,6.49-4.38l0,0c.2-.59-1.07-3-1.28-5.57-.3-3.86-.06-4.57,1.71-5,3.51-.88,12.5,1,14.57,3.1,1.53,1.52,2,3.78-1.69,4.7l8.09-1.79-.58-5.1.51-8.5c.28-4.67.82-22.56,1.18-39.75.34-15.66,1.66-63.18,1.66-63.18h0l-.65-7.28c-1.66-18.55-1.78-62.34-.28-103.28,2.46-67.32.83-88.89-8.24-108.89-6.6-14.56-18.28-21.4-42-24.57-18-2.42-55.18-3.77-97.34-3.84h0Zm388.36,1.89c12.65,0,26.68,1.45,44.35,4.4l14,2.34,3.9,4.33c11.3,12.56,34,56.94,31.94,62.39-.4,1.05-7.25,1.33-34.17,1.4-18.52,0-45.6.52-60.17,1-27.5,1-94.56,1.23-96.75.35a2.42,2.42,0,0,1-1.24-2.17c0-4.82,26.24-52.28,31.26-56.57,4.3-3.66,20.33-10.44,30.73-13a146.92,146.92,0,0,1,36.15-4.51Zm-389,4.18c34.76,0,67.23.55,80.31,1.65,41.46,3.5,52.08,10.19,58.9,37.08,4.91,19.39,5.49,35.48,3,84.75-1.13,22.4-1.43,41-1,63.25.83,46.23.84,59.48.06,112.77l-.69,48.27-3.62-.65c-7.3-1.32-7.33-1.38-6.43-12.21,1.11-13.31,1-31.49-.57-97.19-1.74-72.82-1.8-85.08-.75-135,.78-36.79.69-42.57-.78-51-3-17.08-10.07-28-20.28-31.36a95.14,95.14,0,0,0-14.81-2.6c-17.61-1.82-115.63-3.24-195-2.82l-71.45.37c-4,.4-7.78,1-10.78,2.33a34.22,34.22,0,0,0-9.34,6.77c-9.43,10.24-10.92,19-10.94,64.81,0,18.71-.44,58.53-1,88.51-.91,53.61-1.48,102.77-2.6,225.5-.32,34.1-1,68.07-1.5,75.5-1.25,18.18-1.18,43.29.13,50.56,1.4,7.76,4.5,12.34,10.63,15.68,10,5.46,14.41,5.87,62.39,5.79,24.11,0,49.59-.51,56.62-1s16.49-1.25,21-1.61c7.22-.57,8.31-.45,8.89,1.06.47,1.23-.88,3.27-4.73,7.19l-5.39,5.46-10-.62a255.69,255.69,0,0,0-26,.44c-8.8.59-25.9,1.52-38,2.07-45.08,2-58.06,1.77-65.53-1.36a34.11,34.11,0,0,1-18.94-21.63c-1.63-5.94-2.92-20.47-4-45.5-.87-19.45-.78-29.23.46-51.5,2.49-44.69,3.6-84.59,3.52-126.82,0-21.82.39-58.57,1-81.68s.76-49.42.44-58.5-.06-24.15.56-33.5c1.72-25.51,2.4-70.26,1.3-85.29C193,238.43,196.41,226.3,207,216.65c5.6-5.11,11.62-7.72,23.27-10.07,2.94-.6,16.54-1.08,30.5-1.07s46.13-.72,71.7-1.6c21.74-.75,50.15-1.12,77.18-1.13ZM269.34,223.61c14.11-.05,32.27.08,55,.4l52.4.74-.65,62.63c-.35,34.44-.93,94.35-1.29,133.13-.45,49.87-1,70.71-1.75,71.23-.61.4-4.94.76-9.61.79s-18.17.74-30,1.57c-20.58,1.45-111.66,2.75-120.41,1.73l-3.91-.46.82-61.69c.44-33.92.93-87.33,1.08-118.68.32-66.66.84-72.64,6.85-80,4.15-5.06,7.58-7.66,12.58-9.52C233.62,224.32,245.84,223.7,269.34,223.61Zm112.59.59,43.5.67c62.47,1,86.07,2.13,91.44,4.51,10,4.41,15.26,18.07,15.69,40.63.11,5.5-.15,31.82-.57,58.5-.62,39.27.58,152.65,1.73,163.5h0c.21,1.95-.42,2-26.29,2.12-14.57.07-35.27-.45-46-1.16s-33.37-1.33-50.33-1.38l-30.83-.09.64-61.24c.35-33.69.72-93.84.83-133.66Zm420.8,56-.63,99.91c-.35,54.95-1.11,114.53-1.68,132.4s-1.07,51.52-1.07,74.76-.33,42.23-.71,42.2a58.52,58.52,0,0,1-6.43-2.75l-5.73-2.7-.59-21c-.9-31.65-.7-106.79.46-174,2.43-141.32,2.64-147.5,5.06-147.5,1,0,3.9-.3,6.53-.66ZM403.79,497.64c15.58,0,38.9.77,55.64,2,8,.59,28,1.16,44.5,1.25l30,.18,0,14c0,7.68-.25,18.81-.5,24.72-.38,9.07-.68,10.66-1.94,10.13A72,72,0,0,0,484,546.16c-8.17,2.08-11.06,3.75-14,8.09-2.22,3.27-2.54,4.76-2.51,12.24A91.4,91.4,0,0,0,469,582c1.91,9,2,8.5-1.84,8.5-8.47,0-48.34,8.65-59.94,13h0a37.89,37.89,0,0,0-8.5,4.4l-2.73,2.25-4-2.33a46.35,46.35,0,0,0-7.61-3.44l-3.62-1.11-.53-8.42c-.27-4.63-.27-28.17,0-52.3l.54-43.87,10.6-.73c2.94-.2,7.28-.3,12.47-.32Zm-29.36.67v47.46c0,26.1.27,49.44.61,51.86.59,4.3.52,4.43-2.84,5.64-6.67,2.42-8,10.19-3.31,19.73a44.29,44.29,0,0,0,6,9.06l3.32,3.52-3.47,5.72C365.43,656.68,356.65,680,354,696.51c-2.07,12.79-1.94,27.44.35,38.5,1,5,1.8,9.07,1.73,9.16s-9.13.87-20.13,1.75c-21.16,1.69-82.52,2-102,.53-14.16-1.07-22.06-4.26-25.1-10.14-.84-1.63-2-8.29-2.57-15.1-1-12-.95-19.54,1.15-86.7.51-16.23,1-52.84,1-81.35l.05-51.85,7.25.72c12.71,1.28,80.17.71,108.75-.91l38.75-2.19Zm469.11,15.15c1.85.18,1.89,3.56,1.89,16.55,0,15.9-.07,16.5-2,16.5-3.14,0-4-3.88-4-18.46,0-11.23.25-13.43,1.59-13.94a6.53,6.53,0,0,1,2.52-.65Zm-342,36.48a67.81,67.81,0,0,1,8,.41c11.25,1.29,16.1,2.76,13.85,4.22a52.56,52.56,0,0,1-7.67,2.89c-11.4,3.58-27,3.35-36-.53l-3.83-1.66,3.5-1.5C485,551.37,493.36,550,501.53,549.94ZM593.4,771.7c-1.39.14-4.52,1.85-11.37,5.84-28.51,16.63-58.1,25-84.1,23.67-17.41-.86-29.49-4.12-35.82-9.68-1.86-1.64-3.68-2.69-4-2.34-2.83,2.83,4.08,9.95,12.83,13.22a99.23,99.23,0,0,0,13.38,3.6c5.36,1,12.12,1.33,22.64,1,17.23-.48,30-3,45.45-9,19.08-7.37,42.06-21.08,42.06-25.09C594.44,772.1,594.23,771.62,593.4,771.7ZM928,799.34c3.14-4.18-10.89,3.81-18.6,11.85a99.44,99.44,0,0,0-18.9,27.53l-3.74,7.95-1.27-3.08c-1.94-4.69-7.47-9.05-11.47-9.05-9.15,0-13.5,18.27-7.54,31.75l1.88,4.25h6l-2.05-4.64c-2.66-6-3.34-14.63-1.61-20.36,1.61-5.33,3.87-6.19,7.46-2.84,4.57,4.26,5.77,7.72,5.8,16.62,0,6.15.39,8.52,1.47,9.18,2.26,1.41,3.05.28,3.05-4.37,0-5.31,2.81-13.66,8.13-24.09a96.23,96.23,0,0,1,18.67-25.92c6.61-6.5,9.6-8.49,12.82-8.55,5.9-.1,2.84,16.43-8.73,47.1-3.24,8.61-6.47,16.55-5.89,16.75l3.2,1.11h0l4.14-7.72c4.49-8.35,6.87-10.23,13-10.26,3.4,0,4,.36,5.25,3.45,1.49,3.57-2.12,14.9.85,14.45l4.87.78,1.17-.28c.9-.22-1.1-.49-1-.82,2.29-8.24,1.1-16.23-3.54-20.87-2.7-2.7-3.43-3-8.3-2.52l-5.33.44,2.41-7.07c9.31-27.28,8.59-41.17-2.11-40.77Z" class="cls-7" id="path2918"></path><path d="M704.58,353c-13.71-.33-29.6,13.94-31.78,29.86l-.61,4.42-3.85-.52c-3.38-.45-4.26-.1-7.22,2.87a21.53,21.53,0,0,0-3.81,4.73c-.33,1-1.59.61-4.91-1.61-8.68-5.78-20-8-31.73-6.2-9.27,1.4-13.75,3.07-21.86,8.15-11.13,7-26.4,25.14-36.6,43.59l-3.48,6.27h0s-5.56,8.94-6.09,17.56c-.37,6,7.09,15.56,7.86,17,3,5.52,18.65,17.35,23.06,17.37,1.09,0,2.4,2.1,3.92,6.26,4.14,11.32,9.63,21.19,14.27,25.69l4.53,4.39-4.35,4.23c-4.18,4.06-7.5,11.44-7.5,16.66,0,1.25-1.53,2.52-4.75,3.91-9.51,4.13-9.08,4.09-10.72.92a65.08,65.08,0,0,1-3.11-7.73c-4.11-12.27-12.27-12.23-18.08.11l-2.4,5.07c-.85,2.94-3.36,4-7.72,5-1,.25-2.26.54-3.93.91-4.28,1-8.3,2-8.94,2.23a26.07,26.07,0,0,0-8.35,5.38c-3.32,3.32-2,8,2.2,8,.7,0,1.18,0,1.43.31l.17-.08s2.17,15.9,2.18,17.15c0,4.6,4.76,24.45,8.4,35.24,4.06,12.07,8.13,20.57,11.24,23.49,3.77,3.55,4.07,0,.69-8.34l-2.91-7.19,3.24-7.54A155.52,155.52,0,0,0,558.58,615c1.24-4.4,2.28-8.06,2.31-8.13a15.11,15.11,0,0,1,2.19-.79c2-.61,2.11-.42,1.37,2.84-2.37,10.48,5.73,22.55,16.23,24.24,4.58.73,4.72,1,8.32,16.25,6.54,27.72,11.69,42.33,18.54,52.56,11.73,17.54,24.71,21.9,38.47,12.92,15.25-10,24.27-17.57,35.3-29.81,5.38-6,17.76-22.59,21.75-29.21.62-1-1.09,8.93-3.8,22.13-4.82,23.41-4.93,24.34-4.52,38,.3,10.16,1,16,2.53,21.5a56.64,56.64,0,0,1,2.13,11.21c0,5.95-3.49,13.9-8.21,18.49-3.49,3.4-5.33,4.34-10.2,5.22h0a89.8,89.8,0,0,1-19.84.75c-3.1-.22-11-1.1-11-1.1l4.91,7c.29-.29,4.54-.06,9.07.2,7.65.43,15.53-.44,26.29-2.9,2.15-.5,8.53,12.75,11.11,23.07,2.54,10.13,2.17,15-1.74,22.84l-2.57,5.88,8-.1c1.76-5.76,4.74-10,3.17-26.25-1.65-8-6.15-19.64-9.87-25.51-2.65-4.18-2.78-4.77-1.35-6,2.5-2.06,7.05-12.49,7.71-17.64a36.32,36.32,0,0,0-.93-11.18c-3.27-13.93-4.58-24.49-4-32,.51-6.4,8.48-48.15,12.9-67.5a128.19,128.19,0,0,1,5.73-16.72c1.83-4.37,7.57-17.15,7.57-26.14.48-8.17.3-9.68-1.79-14.11-4.55-9.65-12.93-15.55-30.49-21.45a89.91,89.91,0,0,1-9-3.33c-.25-.25.22-2.08,1.06-4.07,2.16-5.19,1.92-13.21-.56-18.33C682,531,672.74,524,665.84,523.3c-2.14-.23-3.08-1-3.54-2.81-.74-2.92-1.08-16-.42-16,.25,0,2.94.65,6,1.44,9.56,2.49,17.41-.05,24.3-7.87,5-5.68,7.87-13.13,9.35-24.28,2-14.63-.43-28.17-6.57-37.45-2.91-4.39-3-4.84-1.12-4.84,2.09,0,7.32-6.42,8.09-9.93.56-2.56,1.16-3.07,3.53-3.07,9.79,0,17.26-9.1,14-17a20.46,20.46,0,0,0-4.68-6l-3.45-3,3-4.86c6.16-10,7.56-18.41,4.27-25.58-2.35-5.1-4.6-7-9.8-8.43a17.69,17.69,0,0,0-4.17-.58v0Zm-.22,5.89a11.61,11.61,0,0,1,3.49.59c7.07,2.33,8.42,12.41,2.94,21.93-1.46,2.53-3.88,6.13-4.75,8.32-1.76,4.38.82,6.48,3.14,8.72,2.94,2.84,5.25,5.9,5.25,7,0,2.82-3.18,5.7-7.69,6.95-5.21,1.45-5.43,1.39-8.66-2.5-2.16-2.61-4.52-3.94-9.8-5.54-4.81-1.46-7.45-2.87-8.55-4.56-2.67-4.07-2.8-11.34-.34-19.41,1.87-6.16,3.05-8.09,8-13C693,361.79,699.09,358.78,704.36,358.89ZM628,392c8.65,0,16.85,2.31,23,7,4.73,3.61,9.78,11.24,9.69,14.62-.1,3.65,2.85,6.54,15.28,15,10.19,6.9,12.63,9.6,16.7,18.45,2,4.38,2.29,6.57,2.29,17.5,0,14.28-1.6,21.1-6.49,27.86a27.58,27.58,0,0,1-6.28,6.18c-2.23,1.36-4.9,1.94-8.72,1.89-10-.14-14.26-3.32-7-5.21,8-2.07,13-9.47,11-16.46-1-3.68-5.87-8-8.62-10.25-2.91-2.27-7.33-3.26-10.39-.42-6.5,5.13-11,4.49-15.12-2.19-2.18-3.53-2.19-3.66-.34-4.68,3.75-2.05,8.37-7.86,9.46-11.89,2.1-7.83-1.7-12.55-4.1-5.08-3.14,9.8-11.5,15.24-23.45,15.24-14,0-23.9-8.09-31.64-25.95-1-2.31-2-4.46-2.91-6.16-1.24-2.36-5.72-2.14-7.72.19a30.55,30.55,0,0,0-4.56,6.93c-3.23,7.28-3.31,16.63-.27,31.72,1.45,7.22,3.3,15.3,4.11,18,2.18,7.19,2,7.81-1.77,5.19-6.51-4.57-15.58-12.82-18.1-17.71-2-3.9-6.71-11.45,1.78-26.15,14.45-25,29.5-41.6,41.31-47.82A49.78,49.78,0,0,1,628,392Zm39.47,1c2.09,0,3,1.05,5.51,6.29,1.65,3.46,3.67,6.73,4.5,7.26a55.71,55.71,0,0,0,8.3,3c5.47,1.66,7.17,2.67,8.74,5.25,2.65,4.35,2.47,6-1.15,10.15-3,3.47-5.25,4.4-6.31,2.67-.3-.48-5.24-3.73-11-7.22-9.31-5.65-10.52-6.71-11.09-9.73a33,33,0,0,0-2.2-6.67c-1.46-3.06-1.43-3.57.31-7.15,1.44-2.95,2.47-3.87,4.38-3.87ZM586.2,434.2c1.16.09,2.19,1.53,2.69,2.67.68,1.55,1.55,3.39,2.49,5.27,9,17.85,23.62,26.09,41.09,23.09,4.49-.78,4.55-.75,5.74,2.56,3.44,9.51,14.24,12.47,21.95,6.29,1.58-1.27,3.14-2.59,6.11-.38,4.06,3,6.45,6.92,5.22,10.13-1.14,3-5.51,6.22-10.1,7.4-2.13.5-4,2.1-4.81,9.84-1.53,10.22-.37,27.59,2.28,33.93l1.52,3.64-4.24,1.88a53.82,53.82,0,0,1-8.73,2.82c-5.73,1.22-17.78,2.07-20.83,1.47-1.86-.37-2.22-.92-1.73-2.64.34-1.19.88-3.33,1.19-4.74s2.5-4.12,4.86-6c4.69-3.75,11.52-12.37,11.52-14.55,0-2.53-3.57-1.41-7,2.21-6.33,6.57-12.4,10.42-16.43,10.42-11.66,0-20.05-11.28-28.06-37.7-9.83-32.43-11.41-44-7.44-54.64.88-2.31,1.86-3.05,2.76-3Zm17.4,50.33c-1.5.09-3,1.73-4.65,4.94-3.09,6.1-3.13,7.49-.3,9.48,7,4.92,13.5-4.13,8.46-11.81C605.93,485.34,604.77,484.46,603.6,484.53Zm59.72,43c1.25.12,3.7,1.24,7.15,3.4,10.43,6.52,13.31,14.61,9,25.36a34.5,34.5,0,0,0-2.06,6.5c0,.67,3.95,2.51,8.75,4.08,12.08,4,24.18,9.77,27.57,13.22,9.25,9.38,8.93,20.52-1.25,44-11.75,27.14-35.45,60.53-52.31,73.67-4.37,3.41-11.12,8.34-15,11-8.8,5.92-13.81,6.38-20.88,1.9-10.7-6.79-18.33-20.61-25.46-46.15-2.53-9.08-5.74-19.88-7.12-24s-2.47-8.52-2.43-9.75c.07-2-.4-2.25-4.26-2.25-5.41,0-10.24-3.08-13.42-8.53-1.95-3.34-2.23-4.9-1.77-9.8.81-8.74,1.87-9.84,4.16-4.31,2.45,5.94,6.27,8.14,12.86,7.39,9.32-1,13.52-6.8,13.53-18.52,0-7.14-.08-7.36-4.13-11.75l-4.13-4.48h6.16c11.82,0,16.1,3.61,16.1,13.61,0,10.24,11.47,40.56,22.38,59.19,5.24,8.94,6.88,10.7,9.13,9.83,1.29-.49,1-1.74-2-7.58a81.47,81.47,0,0,1-3.53-7.53c0-2.38,11.24,1.78,14.41,5.34,4.15,4.66,6.44.76,2.5-4.26a21.35,21.35,0,0,0-5.92-4.61l-3.82-2,6-6.16c6.66-6.81,13.8-17.17,13.8-20,0-3.13-2.6-2-5.46,2.28-3.7,5.59-18.33,20.72-21.74,22.49l-2.76,1.42-3.08-6.77c-1.69-3.72-5.63-13.06-8.76-20.77-4.79-11.81-5.69-15-5.76-20.5-.12-9.47-.16-9.6-3.53-13.45-4.86-5.53-16.12-8.11-23.78-5.44-3.61,1.26-4.66.69-7.43-4l-1.8-3.06,5.78-2.57,5.78-2.55,1.85,2.54c1,1.4,2.56,2.55,3.42,2.55,1.31,0,1.46-1,1-6.75-.83-9.46,1.36-15.59,7.13-20,3.37-2.56,5.3-3.28,8.75-3.28,2.43,0,4.42.22,4.42.48a21,21,0,0,1-1.94,3.67c-1.62,2.65-2.58,3.2-5.75,3.27-9,.19-3.54,4.14,8,5.78,16.08,2.29,36-1.34,42.37-7.7,4-4,4.15-6.48.8-10.09C662.1,528.86,661.71,527.37,663.32,527.53Zm-95.84,20c.58,0,2,2.15,3.06,4.75,6.31,15,11.11,23.25,17.48,30.13,5.61,6.06,6.74,7.88,7.15,11.52.66,5.87-2,11.4-6.38,13.23h0a10,10,0,0,1-4.3,1.14c-2.45,0-4.39-.47-6-4.89-1.75-4.92-2.17-5-.18-7.52s2-4.35,0-4.35c-.52,0-3.31,1.54-6.19,3.44a59.69,59.69,0,0,1-11.71,5.58c-5.4,1.8-7.09,2-10.12,1.07-7.81-2.34-10.9-8.73-10.9-22.53,0-7.78-.47-8.53-4-6.35-1.06.67-2.28.87-2.71.44-1.06-1.06,1.23-2.37,7.68-4.41,3.92-1.25,8.6-1.72,16.25-1.65,7.46.06,9.63-3.73,8.25-5.59s-2.5-4.32-2.49-5.45c0-2.51,3.56-8.55,5-8.55Zm-27.56,55.55a6.42,6.42,0,0,1,2.33,1.33,27.38,27.38,0,0,0,7.5,3.19c2.58.64,4.68,1.55,4.68,2s-1.41,4.78-3.14,9.63a78.51,78.51,0,0,1-3.83,9.58c-.61.69-4.06-9.57-7-20.78C539.56,604.46,539.25,603.06,539.92,603.05ZM492.86,612c.22,1.37.36,1.58.57,2.66.7,3.68,3,13.18,12.2,37.85,10.06,27.09,13.89,35.15,19.31,40.57,9.19,9.18,18.34,7.94,31.58-4.3a116.88,116.88,0,0,0,10-10.45l3.71-4.69.65,3.69c.35,2,.93,10.93,1.27,19.77l.62,16.09-11.9.65c-13.29.72-22.85,2.68-28.48,5.84l-3.89,2.19,3.88,3.27c.36.31,1-.78,1.73-1.1,5.17-2.15,15.31-3.64,28.43-4.19,18-.76,27.11.88,35,6.32,6,4.14,8.06,3.39,4.68-1.73-2.78-4.2-11.13-8.56-19.31-10.08l-6-1.1V694.12c0-19.62-.62-25-5.09-44.81-2.77-12.25-4-15.81-5.31-15.81-2,0-2,3.93-.11,15.53,1.08,6.58,2,12.68,2,13.54,0,2.5-7.06,13.5-12,18.54-6.86,7.06-12.66,10.65-18,11.17-4.12.39-5.09.08-8.18-2.63a37.55,37.55,0,0,1-6.57-8.86c-3.22-6.08-25.24-64-25.24-66.41a6.89,6.89,0,0,1,.1-1.48C498.33,612.88,496.45,612.62,492.86,612Zm401,257.51H806.3l-11.94-.3c-2.65.3-6.87.3-14.94.3-8.31,0-23.87,0-23.87,0H243.38c-7.77,0-12.65.13-15.64-.18l-.14,0-7.67.14H178.77c-28.76,0-136.08,1.25-137.16,1.58-.72.23-5,.31-5,2.62s4.3,2.3,4.3,2.3l35.5.53h0c19.52.29,244.4.61,499.71.72,416,.16,464.38,0,465.75-1.36,1.88-1.88,1.93-2.81.23-4.23q-1.31-1.08-49.52-1.78c-33.27-.48-85.08-.38-98.75-.38Z" class="cls-8" id="path2619"></path></svg>