<svg viewBox="0 0 1080 1080" xmlns="http://www.w3.org/2000/svg" id="assistant_ready_to_help"><defs><style>.cls-1{fill:#9a702d;}.cls-2{fill:#f37a81;}.cls-3{fill:#c2dc82;}.cls-4{fill:#f9f1cb;}.cls-5{fill:#efca87;}.cls-6{fill:#f2d0b9;}.cls-7{fill:#483613;}.cls-8{fill:#e8a1a4;}</style></defs><title>assistant ready to help</title><path d="M517,246.63s-15.63-5.21-14.87,2.18,3.6,15,4.92,17.24-8.71,1.89-8.71,1.89,1.23,13.54,3.69,19.61-3.69,14.48-3.6,25.66-7.48,20.36,5.49,25.66,15.35,4.83,15.35,4.83S510,323.15,508.65,305s-3-19.89,1.42-24.34,10.23-14.86,11.56-10.51,8.24-2.27,11,5.11,9.57,19.51,21,21.22,15.05-9.95,15.05-9.95,12.6-3.6,16.39-.09,7.86.85,8.8,9.75,2.94,15.73-4.73,22.17-21.69,2.08-21.69,2.46,4.07,16.85,7.11,17.33,6.06-4,6.06-4,16.29,6.44,26.8-2.46,12.69-11.37,6.44-22.26-17.52-19.7-16.67-32.67-2-24.15-11.74-30.69-17.05-5.49-13.73-.75,12.59,26.61,13.44,33.52S568.79,284,568.79,284s-1.8-22.82-19.41-36.18-31.54-4.92-32.39-1.23Z" class="cls-1" id="path2658"></path><path d="M508,394.37s-12.5,3.79-18.18,19.41-13.64,39.3-16.48,57.67-3.6,23.68-6.54,29.65-19.6,16.29-19.6,16.29,1.8,16.29,7.95,15,21.5-5.87,27.85-16.67,16.95-34.19,16.95-34.19-5.78-27.18-5.87-35.42a35.94,35.94,0,0,1,2.74-14.3s8.24,17.52,8.15,26.14,9.66,28.22,10.89,43.76,2.27,31.81,2.27,37.69-1.51,8.14,3.69,9,23.3.28,26.52,4.93,4.55,7,15.44,8.14,31.63,1,34-6.53.85-21.69,1.42-38.83,4.07-28.22,6.81-42.23,7.39-20.46,7.39-20.46,5.21-7.39,5.4-7.86,25.57,20.36,34.47,27.37,19.42,14.87,30.87,11.36,23.78-11.08,26.71-15.91,19.13-24.62,20.27-29.17-1.8-3.4-3.41-3.12-18.94,1.8-22.54-7.77-7.39-9.94-14.87,4.07A128.8,128.8,0,0,1,673,456.87s-24-38.54-33.43-49.53-24.62-15.06-26.61-15.81-7.77-5-9.09,5S597.2,428.08,583,442.86s-31.35,21.27-49.43,13.5a42.48,42.48,0,0,1-26.11-38.71c-.14-14.33.53-23.28.53-23.28Z" class="cls-2" id="path2660"></path><path d="M509.5,570.23l-20.74,16.95,66.11-1.51s-26.52,6.25-36.84,7-61.65,12.6-66.67,29,.76,36,10.89,48.3,57.29,49,69,56.82S546,721.66,546,721.66,509.13,666,505.34,658.3s10.23-1.13,24.53-2.84,33.14-.66,38.92-3.6,19.32-14.2,30.59-21,18.18-1.61,19.32-11.93-6.25-25.76-12.12-38.07-10-21.12-10-21.12-11.84,4.17-23.67,4.35-24.44-3.69-24.44-3.69-3.31,8.81-18.65,9.19S509.5,570.23,509.5,570.23Z" class="cls-3" id="path2662"></path><path d="M439.82,643.45s-15.8,70.18-16.34,86.79-9.51,36,1.34,37.09,11.92-2.94,20.62-16.33,23.44-63,23.44-63-19.42-16.21-23.57-29.87-5.49-14.73-5.49-14.73Z" class="cls-3" id="path2664"></path><path d="M291.43,182.87s-36.7,87.59-53.84,110.36-23.84,14.46-23.84,14.46S210,317.87,188.3,322.16s-32.94-9.38-32.94-9.38L152,356.31s11,6.83,29.46,7,27.32-2,42.46-19,49.42-75.67,51.16-86.38,18.21-63.62,16.34-75Z" class="cls-4" id="path2666"></path><path d="M156.43,493.32s23.3-2.95,24.64-27.86.54-50.62.54-50.62,10.44-11.79,16.07-2.41-3.34-14.56-3.72-23.84-.38-9.37-.38-9.37a50.71,50.71,0,0,1-22.26,2.08c-13-1.51-17.89-4.83-17.89-4.83s-1.14,95-1.14,95.46,4.14,21.39,4.14,21.39Z" class="cls-4" id="path2668"></path><path d="M402.3,223.81s4.74,45.27,20.46,78.41S473,357.15,481.66,360s-13.45-36.74-13.45-36.74,14.4,15.53,22.54,8.9S497,310.94,497,310s-5.87-25.19-5.11-33.33,4.26-11.09,5-12.13-3.41-11.46-1.33-18.09,5.69-7.1,8.53-6.72,12.32,6.77,15,3.42.81-47,.62-50-54.93-25.57-58.52,14.39-1.33,65.73-13.07,76S400.41,189.91,402.3,223.81Z" class="cls-4" id="path2670"></path><path d="M453.44,548.07c-1.7-.57-29.74-51.33-40.72-60.23s-17.43,17.42-33.34,25.95-22.93,3.15-22.93,3.15.58-13.19-10.78-18.68-55.14-12.32-54.74,1.89,14.4,46.4,25.19,47.92S453.44,548.07,453.44,548.07Z" class="cls-4" id="path2672"></path><path d="M515.36,569.66c-5.86.57-3-13.4-53.31-11.25s-160.18,1.87-184.55,2.67-28.4,26-24.38,36.17,12.32,24.1,12.32,24.1,0-22.9,8.44-36.56,19.29-15.67,35.23-14.87,206.25-.27,206.25-.27Z" class="cls-4" id="path2674"></path><path d="M610.83,591.44c.19-1.32,13.07-16.85,28.61-11.55s7.38,39.39,5.87,40.34-28,4.17-28,4.17,2.08-9.66,0-17.43A79,79,0,0,0,610.83,591.44Z" class="cls-4" id="path2676"></path><path d="M505.15,655.46s54.92-3.79,68-.19,26.14-12.69,48.87-6.06,8.42,37.72-13.26,43.18-80.69-.56-80.69-.56-22.72-29-22.91-36.37Z" class="cls-4" id="path2678"></path><path d="M556.2,872.87c-19.82-1.2-24.51,7-43.12-6s-33.22-5.09-84.11-4.55-86-1.87-120-1.21-53.3-4.41-56.78,9.92-9.78,29.33,22.63,30.13,188-.67,188.84-.8,100.85-.14,100.85-.14,7.77-4.82,6.7-15.67-15-11.65-15-11.65Z" class="cls-4" id="path2680"></path><path d="M861.69,732s4.16-8.84-15.26-9.38S819,718.85,819,732,820,842.6,821.11,851.44s.39,48.68.53,48.59,6.39,1.61,6.91-1.42-2.13-7.39,3.37-8.67,12.78,0,14,4.22,4.64,7.24,9,6.48a107.66,107.66,0,0,1,10.75-1Z" class="cls-4" id="path2682"></path><path d="M806.11,722.6s-5.62,25.32-29.46,33.22-38.44,13.66-58.12,12.85S697.1,781,697.1,781l111.29,3.75s.54-54.38-2.28-62.15Z" class="cls-4" id="path2684"></path><path d="M810.53,794.39c0,2.28,1.34,46.61.67,47s-112.36,1.74-112.36,1.74-1.07-10.85,14.86-13,64.42-2.82,76.21-11.79,20.62-24,20.62-24Z" class="cls-4" id="path2686"></path><path d="M810.53,850.64S781.34,872.2,760,875.55s-38.3-.67-46.07,4.15-10,13.39-10,13.39,4.75-6.09,20.56-6.42,59.8-.67,62.54,2.07,5.29,10.58,5.29,10.58l22.3,1.27Z" class="cls-4" id="path2688"></path><path d="M799.28,674.25s-9-27.72-16.47-31.47S776,661.26,777.19,667s-18.89-5.35-18.62.81,6.83,14.73,14.06,14.46,22.1-2.54,26.52.54S788.57,698.09,766.21,698s-35-2.28-35-2.28-3.08,17,19,15.54,59.6.13,59.6.13,11.38-16.2,10.31-20.49-11.78-7.9-15-9-8.57-.54-5.9-7.64Z" class="cls-4" id="path2690"></path><path d="M485.05,144.24c-2.67,0-5.66,0-9,0-12.35.14-76.46.74-142.46,1.34-123.43,1.12-146.7,1.62-156.94,3.37-7.31,1.26-15.95,5.19-18.91,9.32-6.16,8.58-6.67,21.17-6.59,110.78,0,38.05-.23,101.38-.6,140.73-.58,63.05-.47,72.39.92,78.75,3.05,13.94,9.26,22.91,17.62,25.43,5.77,1.74,47.68,1.65,73.4-.15a256,256,0,0,1,33.48-.38l15.38.88L297,526.41c3.09,6.63,6.6,13.69,7.8,15.69l2.18,3.63-25.68.31-25.68.31c-9.94,0-16.79,12-19.17,18.37-1.6,4.25-1.81,10.27-2.13,70.13-.21,39.82.1,74.52.79,88.5.62,12.65,1.54,39.2,2.05,59s1.36,44.55,1.9,55,1,24.86,1,32c.07,14,1.12,18,6.62,25.22l2.49,3.26h0l11.38-.05-4.72-3.46a25.18,25.18,0,0,1-7.25-8.44c-2.31-4.56-2.52-6.08-2.55-18.25,0-7.31-.48-21.61-1-31.79s-1.41-35.37-1.94-56-1.43-46.5-2-57.5c-1.55-30-.65-148.55.51-154.23,1.21-5.91,8.62-15.77,15-15.77l141,0c138.09,0,141.08.08,145,2,4.88,2.4,5.47,4.66,2.05,7.83-4.26,3.95-10,4.79-27.91,4.08-8.87-.35-23.79-.19-33.14.36-11,.64-34.91.66-67.5.08-58-1-122,.26-130.58,2.65-3.69,1-6.36,2.72-9.78,6.19-10.95,11.11-12.92,21.67-13.74,73.77-.54,34-.5,75.85.1,106.5.28,14,.32,38.6.1,54.6-.38,27.08-.28,29.35,1.5,32.93a19.13,19.13,0,0,0,4.71,5.9c3,2.19,9.71,2.57,72.65,4.13,9,.22,15.21.5,19.12.86-1.78-5,6.4-6.33,4.74-8.41-2,2.33-5.32.73-14.5,1.28-5.54.34-10.32.38-10.61.09s-15.31-.88-33.37-1.3-33.56-1.08-34.45-1.47c-4-1.75-4.06-3.33-4.4-84.6-.4-91.79.68-151.16,2.91-161.23,2.09-9.43,4.64-14.64,9.44-19.27,2.89-2.8,5.43-4.24,8.4-4.78s230.86-2.32,230.86-2.32c18.54.65,20.18.57,24.38-1.29a24.9,24.9,0,0,0,6.86-4.54l2.33-2.51,0,0a10,10,0,0,0,0-9.5h0c-.06-.1-.12-.2-.17-.3-3.34-6.24-7.5-7.57-25.12-8.05l-15.11-.41h0s-8.68.25-9.87.25c-2.74,0-3.4-.39-3.4-2,0-2.71-2.51-3.63-15-5.46l-18.21-2.68-7.71-1.15-3-5.34h0c-1.72-2.39-11.78-28.09-11.78-28.09-4.9-10.64.25-30.36,17.15-65.75,5.53-11.6,18.24-35.25,20.05-37.31a7,7,0,0,1,2.9.37l2.65.66,7-4.4c-3.57,2.07-8.42.25-11-4A14.11,14.11,0,0,1,481,378.54l.92-2.43,5.83,1.51c8.78,2.27,18.58.66,25.28-4.15l5-3.62v2.87c0,.91.78,4.37.16,5.2,2.86-1.56,6.94-2.61,7.27-3,0,0,0-.12.08-.17l-.11.05c-.51,0-2.4-11.86-2.4-16.25v-4.79l-5.49-8.26c0,1.56-.11,8.33-.24,10.27-.53,7.71-.75,8.34-3.67,10.56a63.53,63.53,0,0,1-8.25,4.94h0a29.9,29.9,0,0,1-6.27,2.58c-4,0-30-49.07-30.1-56.78a7.13,7.13,0,0,0-1-3.22c-.88-1.34-1.1-1.34-2,0-1.61,2.45-1.19,5.7,2,15.13,3.89,11.61,11.63,27.94,17,35.79,2.32,3.43,4,6.44,3.77,6.7s-3.34-.63-6.86-2c-32.11-12.09-56.66-38.87-69.82-76.17-9.86-27.94-18.74-75.61-18.69-121.09l0-20.1,27.73-.65c15.62-.35,38.55-.94,50.95-1.31s24.15-.36,26.11,0c5.21,1,12.53,6.25,15.29,11a37.19,37.19,0,0,1,3.45,10c1.33,7.36,1.55,66.73.29,69.82a.5.5,0,0,0,.17,0c1.29-.15,5.25,1.45,7.25-.63-.25-.41-.63-20.51-.85-38.27-.48-38.71-.8-40.42-9.12-48.74-7.54-7.54-10.93-9.06-29.66-9.12Zm-144.65,7.6-.69,141.76c-.38,78-1,144.09-1.29,147l-.61,5.19-26.12.31c-24.13.28-28.19.53-31.43,2.41-4.68,2.72-7,7.58-7,14.73,0,5.7,5.65,18.71,12.84,37.42l2.79,7.25-10.17-.2c-23.36-.47-25.66-.72-25.66-2.81,0-6.73-7.41-19.46-21.07-36.19-11-13.47-15.54-20.08-20.35-29.65-7.79-15.48-14.09-36.53-15.22-50.85l-.65-8.21,5.12-5.6c2.89-3.16,5.65-7.35,6.33-9.61.83-2.79,2.6-5.13,5.77-7.65a129.36,129.36,0,0,0,11.8-11.68c32.9-36.64,62.14-98.62,68.2-144.58,1.68-12.75,2.27-31.07,1.28-39.47-.52-4.4-.89-8.07-.82-8.14s10.65-.41,23.52-.76Zm5.66.15,20.75.15,20.75.16.1,20.53c.25,53.53,10.07,108.77,24.75,139.22,12.64,26.22,31.94,46.83,53.89,57.55,8.33,4.06,9.67,5,9.18,6.75-1.56,5.54-1.57,11.37,0,14.67l1.64,3.46-5.67,8.43c-6.51,9.69-20.55,37.66-26.33,52.45h0c-2.17,5.53-5.05,13.87-6.4,18.52-2.39,8.21-2.5,8.38-3.59,5.56-7.41-19.11-12.91-27.22-21-30.9-4.27-1.94-6.75-2.1-37.88-2.48l-32.33-.38s2.13-86.78,2.13-185Zm-59.3.57.64,2.4c1.17,4.36.66,34.21-.77,44.9-4.08,30.66-18.76,69.64-39.24,104.27-14.32,24.18-23.23,36.11-33.09,44.3-8,6.64-13.83,9.77-21,11.3-9.7,2.06-10,1.8-5-4.12,8.83-10.34,19.05-27.66,25.07-42.49,6.63-16.3,3.33-16.66-4.68-.51C198.83,332.54,184.83,353,178,357.54c-3.73,2.46-3.86,2.48-9.1.93a42.53,42.53,0,0,1-8.5-3.54l-3.19-2-.31-25.31c-.17-13.91-.09-54.55.19-90.3l.45-58.37s.84-14.64,8.49-20.09c7-5,8.89-5.16,66.65-5.77Zm467.9,48.95c-2.25-.09-29.29.23-60.09.69-41.27.63-56.8,1.18-59.05,2.12-4.45,1.85-7.5,3.74-10,11.22-2.13,6.4-2.63,10.06-1.66,31.62,1.1,24.39,2.06,28.72,7.37,33.19,4.33,3.64,12.93,5.85,20.41,5.25l6.23-.5L656,290.64c-2.62,7.62-2.53,13.66.24,15.6h0c3.43,2.4,7.59,0,13.12-7.44,8.8-11.9,8.6-11.78,20.68-12.13,5.81-.17,19.56-.09,30.56.19,28.2.71,38.19-.05,43.8-3.34,7.94-4.65,8.2-5.85,8.2-38.67v-28.5s0-14.2-17.91-14.85h0Zm-45,7.14c27.47,0,49,.56,50.12.56,9.26,0,8.05,13.15,8.05,13.15l-.79,24.79c-.86,26.86-1.16,28.23-6.74,31-3.42,1.73-13.55,3-22.74,2.86-3.85-.06-18.48-.24-32.52-.4l-19.68-.23c-5.92-.33-8.27,1.68-10.51,3.75a63.21,63.21,0,0,0-9,9.74c-6.26,8.58-7.5,7.67-3.82-2.8.64-1.81,1.13-3.87,1.58-5.55,1.21-4.52-2-5.71-6.94-5.71-9.36,0-17.44-1.51-20.64-3.85-4.56-3.34-5.19-6.24-6.19-28.29-.78-17.18-1-24.2.41-29.36,1.12-4.19,4.63-9.5,7.28-9.5l60-.2c4.12,0,8.17,0,12.1,0Zm-39,16.17c-13.16,0-23,.15-23.5.47a1.72,1.72,0,0,0-.5,2c.65,1.68,7.68,2.58,27.89,3.55h0c23.27,1.13,79.38,1,80.11-.17.34-.56-.09-1.73-1-2.6-1.24-1.24-5-1.74-17.37-2.33-12.6-.59-43.75-.95-65.67-.93ZM666,252.94c-9.31,0-14.05.94-13.7,2.75.23,1.23,1.77,1.82,5.81,2.25,3,.33,12.58.66,21.24.75,13.52.15,15.75-.05,15.75-1.36,0-2.45-4.15-3.38-18.29-4.09C672.68,253,669.07,252.94,666,252.94ZM158.08,361.17a2.16,2.16,0,0,1,.74.21c11.66,4.87,26.13,6.54,36.24,4.16,3.57-.84,6.65-1.37,6.84-1.18,1,1-8.59,9.58-12.81,11.39-8.49,3.65-19.23,3.55-28.36-.27L157.07,374V367.3c0-4.84.12-6.16,1-6.13Zm-.44,18.91a26.88,26.88,0,0,1,4.52,1.74,22.37,22.37,0,0,0,7.07,2c4.16,0,5.52,2.29,6.76,11.24,1.41,10.14,1.85,32.4.78,39.54-.65,4.36-.53,5.25.72,5.25.83,0,2.3-1.47,3.25-3.25,3.2-6,3-34.35-.29-49.79-.51-2.36-.2-2.61,4.53-3.58l5.07-1,0,5.08c0,11.94,7.5,37.74,15.57,53.86,5.33,10.65,10,17.37,23.89,34.72,10,12.5,15.47,21.31,17.31,28.11l1,3.62-6.13.65c-3.37.36-14.46.87-24.63,1.15h0c-10.18.27-22.55.67-27.5.88-9,.37-18.06-.94-22.18-3.21-5.25-2.89-9.5-12.85-11.46-26.85-.92-6.58-.9-18.73.07-54.17.68-25.13,1.36-45.81,1.51-46s.07,0,.14,0h0Zm189.61,71.8c64.65,0,65.14,0,70.46,6.3,3.64,4.29,8.73,15.46,17.37,38.18,8,21,17.73,42.26,20.31,44.37,1.15.94,2.07,1.06,2.93.37s5.23-.25,13.75,1.35c6.88,1.29,13.62,2.36,15,2.39,2,0,2.19.25,1,1-1.54,1-7.9,1-112.5,0-61-.57-61.19-.59-65.67-5.64-4.65-5.25-28.26-68.65-30-75.3a9.52,9.52,0,0,1,6.82-11.74C293.15,451.84,308.43,451.88,347.25,451.88Zm11.8,31.28c-3.61-.11-6.55,1.53-9.38,5s-3.1,4.42-3.1,11.58c0,7,.28,8.1,2.88,11.51a21.89,21.89,0,0,0,7,5.65h0c5.18,2.35,7.08,2.34,12.35-.05,13.61-6.18,10.85-26.72-4.37-32.54a16.32,16.32,0,0,0-5.38-1.19ZM359,489c1.2,0,2.66.61,4.86,1.74,7.19,3.69,9.73,13.67,4.76,18.64-3.47,3.47-8.55,3.32-12.69-.37-2.65-2.38-3.24-3.72-3.62-8.3-.4-4.83-.14-5.84,2.24-8.67C356.32,490,357.45,489,359,489Zm281.73,63.89c-11.44.13-21.5,6.71-29,19.19l-3.44,5.74,3.29,6.92h0l2.94-5.7c4.3-8.3,13.79-17.5,19.8-19.16,9.48-2.62,20.61.79,25.18,7.72,4.34,6.6,5.68,14.11,6.27,35.36.8,29-1.72,41.77-11.67,59.17-5.14,9-11,13.8-24.59,20.31-11.12,5.31-19,7.27-32,7.94-5.5.28-12,.63-14.51.78-10.28.62-48.08-2.34-53.48-4.11l5.15,7.11c.54-.24,2-.17,5,.16,7.82.89,27.81,3.67,28.08,3.92s-.06,7-.4,15.4c-.28,6.75-.49,14.37-.81,16.29l6.5,1.65h0V720c0-6.4.29-14,.64-16.87l.63-5.25h12.72v19h0c0,18.89-1.22,21.57-1.22,21.57l7.13.45s.63-10.53.55-13.17l-.77-27.65,7.9-.72C615,696,628.31,691.48,643,682.92c11.72-6.84,23.4-26.53,27.49-46.34,1.88-9.08,2.18-40.28.51-52.32-2.35-16.89-9-26.62-20.37-29.93a34.09,34.09,0,0,0-9.9-1.42Zm139.36,16c-6.78.1-14,3.74-21.1,10.81a63.72,63.72,0,0,0-16.06,27.1c-2.94,9.56-3.15,26.07-.47,36,2.14,7.9,9,22.69,13.93,30,2,3,3.51,5.49,3.38,5.63s-4.29.74-9.23,1.34c-12.17,1.49-17.25,4.07-20.37,10.36-2.15,4.33-2.28,5.33-1.32,9.5.6,2.56,1.38,5.43,1.74,6.37.61,1.57-.58,1.71-14.68,1.63-13.43-.08-15.92.17-20,2-5.64,2.48-8.67,7.54-9.54,15.93-.31,3,0,41.37.73,85.22s1,81.37.61,83.38l-.69,3.64h7.09v-51.7l8.56-.65c22.16-1.71,38.1-1.86,70.31-.65l34.86,1.31.61,9.1c.33,5,.91,16.66,1.29,25.89l.68,16.78,6-.08h0l-.68-11.74c-1-16.52-1.51-38.07-2.68-105.75-.56-32.45-1.42-60.52-1.91-62.38l-.9-3.38,20.62.73c11.35.4,21.66,1.21,22.94,1.79,3.69,1.68,5.37,5.28,6.29,13.53.7,6.27,1.64,135.82,1.17,160.46l-.13,6.74h7.16l-.47-82.74c-.49-85.9-.76-91.38-4.78-97.89-3.64-5.89-8.15-7.14-28.66-7.93-10-.39-18.25-.87-18.25-1.06a45.22,45.22,0,0,1,3.46-4.89c4.29-5.62,5.36-10.53,3.26-14.94-1.77-3.7-6-6-13.83-7.57-11-2.18-10.36-1.49-5.9-6.08a45.35,45.35,0,0,0,6.71-9.72c5.46-11.15,2.68-22.38-6.7-27.17-3.64-1.86-4-2.4-4-5.94,0-2.15,1.16-9.23,2.59-15.73,3.5-16,3.1-24.37-1.59-33.18-1.85-3.47-5-7.63-6.93-9.25a19.79,19.79,0,0,0-13-4.81Zm.46,6.16a12.67,12.67,0,0,1,2.23.2c7.72,1.44,15.29,13,15.29,23.31,0,1.88-1.41,10.34-3.14,18.8-2.89,14.12-3,15.69-1.73,19.1,1,2.62,2.74,4.49,5.89,6.33,5.21,3,6.94,5.92,7,11.51,0,4.95-2.73,10.23-9.22,17.73-4.57,5.29-5.3,5.74-9.12,5.74h-4.15l-2.81-11.28c-4.6-18.47-5.93-39.16-3.12-48.61.86-2.9,1.31-5.54,1-5.85-1.11-1.11-5.6,4.18-6.53,7.7-1.68,6.31-2.25,21.33-1.14,29.91.89,6.94,4.19,18.42,7.58,26.41v0c.66,1.56.07,1.75-5.39,1.75H767l-5.62-8.63c-6-9.29-11.2-20.55-13.41-29.37-2.11-8.38-1.7-23.12.87-31.5,5.53-18,20.28-33.19,31.69-33.23ZM637.66,618.3a69.29,69.29,0,0,0-10.84.87l-4.75.81h0L615,621.11c-1.06,1.17-3.11,1.89-6.94,3.17-8.72,2.92-26,12.18-34.34,18.46l-7.67,5.74-5.23,7.16-.62.24c.79.15.56.67,0,1.76-1.65,3.07-1.37,5.68.82,7.66s4.39,1.17,3.53-1.55c-.73-2.28,2.83-8.53,5.33-9.36.94-.31,4-2.63,6.7-5.15,6.15-5.64,19.36-13.56,29-17.4,13.25-5.26,23.79-7.4,36.71-7.44,12.56,0,14.27-.85,9-4.27-1.88-1.23-7.56-1.88-13.71-1.84Zm143,66.17c4.6,0,8.68.15,11.57.44,12.73,1.27,22.76,3.79,24.2,6.08s-.57,6.73-5.52,13c0,.75-1.16,1.42-1.69,2-1.8,1.94-7,2.62-7.34,2.31s-15-.53-32.52-.48l-32,.09-1.64-4.3q-5.13-13.44,7-16.62c5.56-1.46,24.1-2.55,37.91-2.51ZM697.9,713.36l49.42.11c53.46.13,55.74.34,57.57,5.18.56,1.49,1.29,16.54,1.62,33.46h0c.33,16.91.25,30.68-.17,30.6-6-1.13-59.87-2.82-83-2.6l-30.24.29v-3.52c0-1.94-.47-13.42-1-25.52-1.1-24.28-.46-30.67,3.51-35.29ZM750,742.06a5.37,5.37,0,0,0-3.84,1.93c-2.38,2.55-2.67,4.89-.85,6.71.68.69,2.59,1.11,4.23.95a3.94,3.94,0,0,0,4-3.1C754.84,744.77,752.74,742,750,742.06Zm-155.78,6.43-5.66,16.85v0l.28,15c.27,14.31.19,15.08-1.86,16.75a8.59,8.59,0,0,1-4.65,1.75c-1.42,0-5.22.37-5.3-.3-1,1.84-7.18,3.87-9.28,6,1.5-.09,10.14-.15,11.64-.16,9.8-.07,9.84-.08,12.75-3.33,2-2.29,2.92-4.32,2.92-6.75,0-3.26.2-3.49,3.25-3.49,8.29,0,20.52,3.21,28.33,7.44,15.15,8.21,13.72,14.31-3.89,16.54h0c-10.25,1.3-115.67,1.24-117.94-.07-4.75-2.73.14-9.81,10-14.49,4.45-2.12,22.5-9.69,30.09-12.19-1.43-1.57-5.48-3.9-5.61-4.77-.14,1.3-.67,1.69-1.94,2-8.24,2.07-26.44,9.45-31.31,12.71-9.71,6.48-12.42,15.25-6.44,20.86,3.3,3.11,13.7,3.9,41.59,3.2l21.63-.54.73,12.15c.39,6.69.39,17.55,0,24.15h0c-.76,12.64-.93,13-5.5,10.42-1.61-.89-5.73-1.41-11.5-1.41-10.82,0-13.51-1.34-22-10.74-4.23-4.67-7.88-8.79-11-9.64s-18.69,1.26-58.23,1.58c-29.59.25-53.76.34-55,.23l-9.4,7.5c53.09-1.22,85.77-2.15,99.91-2.87,22.3-1.15,22.65-1.06,30.08,8.08a56.15,56.15,0,0,0,8.34,8.21c3.74,2.76,5.06,3.1,14.24,3.68,17.39,1.11,25.59,5.5,25.59,13.69,0,2.92-.77,4.29-4.17,7.43h0l-4.15,3.84,10.31-.34.75-.13c-.48,0-.74-.08-.74-.12a12.17,12.17,0,0,1,2-3.13c4.09-5.2,1.81-15.49-4.53-20.48-2.24-1.76-2.28-2-.86-5.4,1.88-4.5,2.86-26.85,1.66-38.14l-.87-8.25h19.37l.73,20.74c.4,11.42,1.24,22.31,1.87,24.21,1.78,5.43,7.77,9.21,21.24,13.42,6.54,2,15.21,4.89,19.25,6.32,7.15,2.51,15.07,7.52,15.9,10.06,0,.13-.09.25-.4.36l7.69.88-1.62-3.13c-3.81-7.38-11.26-11.53-32.92-18.37-14.72-4.65-21.52-7.43-24.51-10-1.27-1.11-1.42-4.48-1-22.52l.49-21.21,14.51-.24c21.78-.36,30.5-2.9,33.84-9.85,2.69-5.59-.21-11.42-9.06-18.28-5.07-3.92-18.41-7.87-30.79-9.1l-7.49-.75-.63-15.5c-.19-4.49-.44-12-.71-20.36Zm98.53,37.26,36.91.48c37,.49,75.35,2.22,76.53,3.46.34.37.93,11.6,1.3,25l.68,24.29-46.31-.29h0c-25.47-.16-51.14.07-57.05.52l-10.76.82V829.17c0-5.95-.3-18.15-.65-27.12Zm-519.08.11c-9.15,0-14.68,25.17-15,68.25-.07,10.31-.19,18.75-.27,18.75s-2.32-3.49-5-7.75c-8.56-13.75-14.54-18.7-18.19-15.05s2.82,22.8,13.94,40.39A71,71,0,0,1,153,897l8.27.89L156,889.67c-4.95-7.73-12.76-23.31-14.44-28.81-.76-2.49-.75-2.49,1.36-.61,1.17,1,4.84,5.86,8.16,10.71s6.44,9.06,6.93,9.36,1.2,1.9,1.56,3.55c.88,4,3.28,3.83,3.9-.26.27-1.79.73-13.4,1-25.79.81-33.43,3.34-54.72,7.47-62.77l1.77-3.46,1.55,3.88c1.79,4.49,3.75,13.87,7.24,34.68,1.37,8.14,3.6,19.73,5,25.77,2.28,10.11,2.36,11.3,1,15.08a29.39,29.39,0,0,0-1.44,8.06c0,5.94,2.8,4.69,4.93-2.21a96.19,96.19,0,0,1,5.63-13l3.94-7.5.28,10.7c.28,10.39-1.93,23.46-4.89,29a2.35,2.35,0,0,1-1.67,1.19l6,.26.78-.42c.14-.67.93-3.22,1.92-6.16,2.26-6.69,4.69-31.75,3.63-37.39-1.32-7-6.41-6.7-11.36.77l-3.07,4.62-.56-2.78c-.32-1.54-2-11.79-3.65-22.79-5.74-37.27-9-47.5-15.36-47.5ZM749.1,808.15a4.07,4.07,0,0,0-.89.16c-3.54,1.13-3.76,6-.3,6.81,2.47.57,5.16-1.08,5.16-3.18A3.82,3.82,0,0,0,749.1,808.15ZM931,819.86c-5.84,0-20.08,19.7-26,36-1.61,4.41-2.93,9.11-2.93,10.44,0,3.43-1.2,3.73-3.88.95-3-3.12-7.45-3.21-9.56-.2-2.43,3.47-2,13.59.94,22.37,1.38,4.1,2.5,7.67,2.5,7.93l-.05,0,9.36.19.22-.11a3.68,3.68,0,0,1-3-2c-4-6.1-7.45-22-5.26-24.2.41-.4,1.76.57,3,2.17,5.55,7.13,8.47,9.73,10.19,9.07,1.5-.58,1.65-1.53,1-7.12-1.09-10.23,3.42-23.1,13.15-37.55,2.41-3.57,5.55-7.85,7-9.5l2.6-3-.49,8c-.27,4.42-2.38,17.47-4.7,29-3.45,17.12-4.76,21.78-7.12,25.39-3.21,4.92-3.46,5.92-1.63,6.62.68.27,4.31-2.45,8-6,6.23-6,13.43-11,12.56-8.76-.2.51-2.16,4.82-4.36,9.58h0l-4,8.64,6-.33.38-.21-.19,0c-.33-.33.71-2.72,2.31-5.33,10-16.2,8.27-23.81-3.93-17.63-2.82,1.43-5.12,2.38-5.12,2.13s1.57-8.29,3.5-17.85c5.92-29.44,5.79-38.72-.54-38.72Zm-180.87,40.4a4.82,4.82,0,0,0-1.63.43c-2.88,1.31-3.27,4.6-.72,6.09,2.2,1.27,2,1.27,4.32,0,3.81-2,1.66-6.78-2-6.56Zm3.18,22.88c-19.31,0-40.24,1.63-44.85,3.83-1.61.77-4.28,3.51-5.93,6.09h0c-2.35,3.67-3.6,4.7-5.75,4.74l-2.65.05c.31,0,7.92.69,10.8.32.93-.12,3-.49,5.29-.92-4.72-.57-3.63-1.69-1.2-3.88,3.34-3,25.44-4.78,51.24-4.07,12,.33,22.34.83,23.08,1.12s2.11,2.08,3,4l1.65,3.44h0l5.69-.5-1.37-4.1a18.71,18.71,0,0,0-3.9-6.5c-2.43-2.27-3.49-2.43-22.22-3.31-4.06-.2-8.43-.29-12.89-.29Zm84,3.72c-6.71,0-9.5,2-10.71,7.75h0c-.59,2.77-.85,3.18-4.13,3.24h31.88c-3.35-.07-3.6-.58-5.25-4.42-2.35-5.48-4.31-6.57-11.79-6.57Zm.21,5c3.79,0,5.25.91,5.7,3.48.31,1.79-.28,2-5.4,2.31s-5.75.06-5.75-1.56c0-2.7,2-4.26,5.45-4.23Z" class="cls-5" id="path2694"></path><path d="M1041.14,903.26c0,11.83-98,22.73-255.8,28.45s-350.6,5.37-503.31-.92S40.79,913.26,50.87,901.44l494.75,1.82Z" class="cls-4" id="path2708"></path><path d="M561,343.72c-.4,4-2.94,23.17-10.84,29.06S544,365,544,365l7.09-15.93Z" class="cls-6" id="path2725"></path><path d="M543.11,231c-1,0-2,0-3,.11-4.15.3-9.22,1.26-11.27,2.13s-9.91,10-15.86,6.53a20.71,20.71,0,0,0-8.38-2.73c-4.45-.37-5.56-.07-8.32,2.25-5.32,4.48-6.1,12.15-2,19.94,1.47,2.79,1.41,3-1.59,5.66s-3.1,3-3.05,11.11a47.57,47.57,0,0,0,2.49,15.83c2.23,6.8,2.47,9.13,2.47,25.05,0,14.86.26,18,1.71,20.16,2.23,3.4,12.4,9,17.18,9,2.07,0,5.52,3.58,9.6,7.66l4.34,2.54a17.91,17.91,0,0,0,8.21,2.55h3.87L535,363.41a38.24,38.24,0,0,1-7.36,6h0c-1.52.75-14.16,9.12-20.32,13.07-5.91,3.78-12.57,8.27-14.81,10a18.38,18.38,0,0,1-2,1.36l-4.38,5.28-2.4,4.13c-4,6.92-11.47,26.65-14.62,38.72-3.27,12.54-8.48,38.22-9.55,47-.67,5.52-.62,5.9-7.57,10.76l-7.21,5s2.19,5.67,2.25,5.65c1-.34,11.49-8,13.87-10.3.73-.7,2.92-8.58,4.86-17.51s5-23,6.79-31.24A192.15,192.15,0,0,1,488.4,406c4.15-8.1,4.76-8.17,11.42-12.3l6.45-4-.18,3.4c-1.32,5.22-1.14,18.55-1.14,26,0,17.18,15.31,35.3,25.88,40.47,8,3.91,21.19,4.5,30.57,1.38,23.27-7.74,39.3-28.87,44.26-58.33,1.1-6.54,2.23-10.59,2.86-10.31s5.09,2.23,10,4.39c12.8,5.59,16.65,9.46,31.13,31.35,6.86,10.37,14.67,21.05,17.36,23.74,3.68,3.68,4.74,5.41,4.33,7-.34,1.3-.08,2.11.68,2.11,2.08,0,7.68-6.86,17.75-21.75,5.3-7.84,9.89-14.24,10.19-14.22s1.46,1.93,2.56,4.25a20.58,20.58,0,0,0,6.34,7.21c3.79,2.62,5.21,3,11.14,3h6.81l-2.31,4.56c-5.54,10.92-24,32.61-34.28,40.17-7.83,5.79-12.9,7.29-19.46,5.74-8.64-2-15.79-6.3-28.84-17.18-6.82-5.69-15.19-12.52-18.61-15.18l-6.22-4.84,1.49-3.56c1.7-4.07.72-6-2.26-4.36-4.62,2.47-14.3,30-17.67,50.16-2.65,15.87-3.8,31.91-3.09,43.17.83,13.26-.25,17.39-5.12,19.42h0c-2.41,1-7.49,1.37-18.14,1.29-8.13-.06-15.46-.3-16.28-.52s-2.25-1.91-3.34-3.84h0a10,10,0,0,1,0,9.5l0,0,0,0,11.4,1.08c12.61,1.2,24.9.52,29.2-1.62,2.12-1.05,2.9-1.1,3.18-.19.2.66.93,3,1.6,5.19s4.82,11.88,9.22,21.51c6.72,14.7,8.07,18.54,8.47,24,.29,4,.38,5.9-.83,7.23l7.07-1.14h0v-5.39c0-6.06-2.14-13-7.11-23l-3.36-6.8h0l-3.3-6.91h0l-3.65-8.51c-4-9.26-4.3-11.37-2.86-19.11a45.78,45.78,0,0,0,.05-12.5c-1-8.44.24-26.25,3.31-46.36a106.46,106.46,0,0,1,6.09-23.74l4.1-10.73,7,6.23c3.83,3.43,10,8.71,13.69,11.74s9.62,7.93,13.16,10.91c8.08,6.82,15.36,10.07,24.13,10.81,6.26.52,7.32.31,13.08-2.61,7.95-4,16.7-11.83,27-24,10.42-12.36,15.22-19.84,22.22-34.6,4.94-10.43,5.62-12.58,5.2-16.46-.44-4.13-.19-4.76,3.36-8.31,8-8,10.73-19.09,7.49-30.34-3-10.25-7.69-16.13-15.29-19-4.75-1.81-4.82-2-5.66-13.35-1.18-16.05-5.49-22-10.79-14.92-2.77,3.72-3.73,9-3.76,20.67,0,5.64-.29,10.25-.62,10.25a14.64,14.64,0,0,1-3.46-2c-5-3.59-8.64-4.39-11.46-2.55-4.31,2.82-2.89,9,4.41,19.17a33,33,0,0,1,5.54,12.44c2.3,10.13,2.14,11.16-2.14,13.48a20.1,20.1,0,0,0-6.24,6.16c-1.41,2.29-6.42,9.94-11.15,17s-10.37,15.66-12.55,19.11l-4,6.27-8.08-11.27c-4.43-6.2-11.16-16.21-14.94-22.24-10.34-16.49-14.93-20.6-32.88-29.44-8.25-4.06-17.36-8.89-20.25-10.73-4.6-2.93-5.25-3.75-5.25-6.66,0-4.58-5-12.06-9.91-14.89l-4-2.31.62-8.5c.34-4.68.71-8.62.82-8.76a30,30,0,0,1,5.61.79c12.21,2.36,26.16-2.42,32.18-11,4.13-5.89.87-15.57-11.57-34.28l-5.47-8.24-.4-11c-.33-9.2-.81-11.92-3-16.59-4.66-10.07-13.35-16.45-25.85-19a42.67,42.67,0,0,1-9-2.92,42.86,42.86,0,0,0-20-4.82Zm-5.54,5.76,7.18.47a38,38,0,0,1,30.76,20.48c2.15,4.24,5.53,14.55,7,21.28.56,2.62.47,2.67-5.27,3l-5.84.34-1.18-6.94a52.34,52.34,0,0,0-13-25.82c-5.36-5.79-7.81-7.52-15.6-11Zm-34.05,6c2.29.07,5,1.37,8.24,3.55a7.67,7.67,0,0,0,8.92.25c4.38-2.56,5.71-3.22,11.37-3.22,8.38,0,14.42,3,21.29,10.48A47.76,47.76,0,0,1,565.16,278c1.22,6.84,1.21,7-1.34,9.65a36.14,36.14,0,0,0-5,7.73c-2.27,4.79-2.54,5-6.34,4.92-5.5-.1-10.36-2.67-16.24-8.58-4-4-5.66-6.8-8.22-13.69-1.76-4.76-3.6-9.66-4.08-10.9-.87-2.23-3.92-3.19-3.92-1.23,0,.56-1.2,2.84-2.67,5.06-3.23,4.88-10.17,9.2-14,8.75-3.7-.44-4.45,2.69-1,4.25,2.29,1.05,2.45,1.69,3,12.36.8,14.8,3.34,30.5,6.26,38.52a50.18,50.18,0,0,1,2.14,6.65c-.5.47-11.46-5.62-12.61-7-.9-1.08-1.19-4.46-1-11.32.49-16.25,0-22.28-2.52-31.75-3.29-12.31-3.87-16.65-2.66-19.84.7-1.83,1.76-2.71,3.3-2.71,5,0,5.27-1.32,1.91-8.21-3.51-7.22-4-12.56-1.38-15.61a5.67,5.67,0,0,1,4.7-2.25Zm72,2.83c.59-.06,1.9.37,3.85,1.36,7,3.55,9.22,5.5,12.06,10.71,3.58,6.58,4.92,14.06,4.11,22.93-.36,4-.94,7.23-1.29,7.2a11.63,11.63,0,0,1-2.88-1.63c-1.64-1.14-2.25-2.56-2.25-5.22,0-8.19-7.55-28.57-12.11-32.7C575.15,246.61,574.71,245.7,575.47,245.61Zm-53.6,31.15a.19.19,0,0,1,.2.22c0,3.25,6.34,14.36,11,19.31,6.12,6.47,13.28,9.9,19.6,9.4,4.11-.32,4.36-.19,5,2.66a26.06,26.06,0,0,0,5.93,11.51c1.4,1.51,2.72,4.76,3.35,8.22,1.3,7.12,3.68,11.85,6.3,12.53,1.56.41,1.88,1.1,1.43,3.14-.31,1.44-.87,7.56-1.25,13.61l-.67,11-9.09,6.52c-10.6,7.6-12,9.71-10.69,16.55.84,4.46.68,5.17-2,9.12-1.62,2.35-3.8,4.73-4.84,5.29-2.62,1.4-4.57,1.27-6-.4-1.68-2-1.5-4.3.83-10.58s2.57-9.27.94-11.88c-.94-1.52-.48-3.55,2.5-11,2-5,3.66-10.32,3.66-11.77,0-1.86,1.24-3.7,4.2-6.24,7-6,9.8-9.22,9.8-11.22,0-2.87-1.38-2.37-9.85,3.56-12.25,8.59-18.53,8.94-26,1.44-7.78-7.78-11.72-19-14-39.89-2.4-22-2.46-24-.7-24,.89,0,3.64-1.86,6.1-4.13,2-1.85,3.71-3,4.28-3Zm54.56,11.12c5.82,0,11.92,3.07,14.48,7.23,4.32,7,1.54,18.37-5.68,23.28-8.79,6-19.81-.22-21.73-12.22-.87-5.43.78-10.06,5.19-14.6C571.72,288.45,573,287.85,576.43,287.88Zm22.3,4c1.26,0,14,21.95,15.09,26a11.4,11.4,0,0,1,.18,5.64c-1.09,3-6.52,6.82-12.22,8.73h0c-4.44,1.49-13.19,1.92-18.46.9-1.71-.33-2.26-1.12-2.26-3.29,0-2.33.6-3,3.29-3.93a23,23,0,0,0,6.94-4.63c6.86-6.67,9.36-15.15,7.42-25.19-.44-2.34-.43-4.25,0-4.23Zm-20.81,8c-2.14,0-3.36,2.22-2.49,4.5h0c.77,2,5.27,1.91,6.05-.13s-1.08-4.38-3.56-4.38Zm-51.13,11.45a12.14,12.14,0,0,0-4.18,1.63c-3.67,1.95-4.54,2.93-4.54,5.11a5.3,5.3,0,0,0,2.22,4.25c3.07,2.15,4.47,2,7.44-1,2.07-2.07,2.44-3.17,1.93-5.72C529.05,312.51,528.41,311.21,526.79,311.31ZM572,326.2a6.79,6.79,0,0,1,1.82.29c3.57.85,3.45.63,2.67,4.77-1,5.46-2.17,4.59-4.83-3.66C571.39,326.67,571.41,326.25,572,326.2Zm151.49,13.56c.42-.06.8,1.66,1.55,6.1.7,4.12,1.55,9.72,1.89,12.43.6,4.84.72,5,6.6,8,6.81,3.49,9.78,7.25,12.15,15.4,3,10.39-.18,20.68-9.38,30.22-4,4.12-5.36,4.94-8.38,4.94-7.29,0-12.27-6.91-11.24-15.63a34.82,34.82,0,0,0-5-21.89c-4.43-6.68-7.89-13.53-7.19-14.23,1-1,7.5,3.14,13.14,8.52,6.26,6,11.47,15.35,12.22,22,.52,4.65,2.82,7.68,3.71,4.88.28-.89.73-2.3,1-3.15.76-2.41-1.49-11.49-4.16-16.79-1.36-2.71-3.73-5.56-5.4-6.5A8.11,8.11,0,0,1,721.4,370c-.84-3.26.31-26,1.47-29.1C723.12,340.19,723.32,339.79,723.52,339.76Zm-145,21.45a2.53,2.53,0,0,1,1,.64c.82.68,1.24,1.63.94,2.12-1,1.63-2.43.91-2.43-1.23,0-1.11.1-1.58.47-1.53Zm-37.83,5c.17.17-.44,2.64-1.36,5.5s-2,5.2-2.31,5.2a7.48,7.48,0,0,1-2.56-2.11c-1.9-2.1-1.88-2.14,2-5.5C538.64,367.38,540.54,366,540.71,366.16Zm44.71,2.66c1.15.14,1.59,1.73,2.17,5.17.55,3.25,0,4.66-5,12.52a110.14,110.14,0,0,1-9.82,13.18A68.87,68.87,0,0,1,565.9,406l-2.68,1.93-1.52-5.27c-5.23-18.09-5.33-17.66,5.62-23.63,5.09-2.77,11.26-6.39,13.72-8.05C583.19,369.48,584.52,368.71,585.42,368.82Zm-56.31,9c1.52,0,8,8.67,8,10.72,0,1.1-1.58,5.11-3.51,8.89h0a69.56,69.56,0,0,1-6,9.89l-2.48,3v-7.5C525.07,394.67,527.78,377.86,529.11,377.86Zm-7.43,2.42c.08,0,.14,0,.16,0,.2.19-.2,2.31-.89,4.71s-1.29,9.62-1.32,16.06,0,9.5.53,11.32,3,3.71,6.43,1.89a26.91,26.91,0,0,0,5.68-4.14l2.09-2.22,2.93,2.47c5,4.23,11.62,2.54,16.16-4.14l2.44-3.59,1.93,4.35c2.93,6.6,4.32,7.37,8.92,5,6.84-3.58,15.65-13.25,21.33-23.41,1.78-3.18,3.52-5.66,3.87-5.49s3,1.64,5.84,3.29c5.16,3,5.21,3,4.65,7-1.1,7.69-6.53,25.06-10.16,32.47-6.15,12.58-18.81,24.41-31.08,29.07-6,2.29-16.27,3.21-21.38,1.92q-14.65-3.66-23-19.7c-6.53-12.56-8.25-24.31-5.66-38.77.59-3.29,1.2-7.5,1.36-9.34.24-2.68,1.15-3.9,4.63-6.21a22.32,22.32,0,0,1,4.53-2.52Zm188.89,30.13c.93-.14,1.69,1,2.84,3.48,2.62,5.69,9,9.27,15.66,8.81,2.75-.19,5,0,5,.36,0,1.85-2.49,5.54-5.22,7.73-4.21,3.37-12.08,3.93-16.48,1.17-6.19-3.89-8.53-13.64-4.55-19C709,411.39,709.84,410.52,710.57,410.41ZM495.48,429.12c-1-.13-2.16,3-3.45,9.54-1.69,8.58-.71,18.15,3,29.15a83.24,83.24,0,0,1,3.06,10.63c0,2.56-15.66,34.13-18.39,37.08a13,13,0,0,0-2.61,3.47c0,2.07-21.55,10.86-21.55,10.86l2.62,4.7,6.22-2.1c14.32-4.83,20.06-11.07,30.93-33.6,5.64-11.69,5.56-11.55,6.35-10.76,2.11,2.1,5.76,43.76,4.69,53.51a17.34,17.34,0,0,0,0,4.2l6-.19L511.8,525c-.64-25.08-2.07-33.44-8.9-52.29l-5.2-14.34-.09-13c-.08-10.51-.9-16.05-2.13-16.23Zm-6.76,143.33c-.45,0-8.4,5.86-18.43,12.58-21.57,14.47-31,27-33.13,31-4.33,8.11-7.78,18.44-11,32.82-2.39,10.82-14.72,77-19.64,105.5-1.81,10.45-4,20.68-4.89,22.72a25,25,0,0,0-1.59,8.17c0,6.52-9.66,28.83-18.7,43.22-3.92,6.24-5.21,7.46-10.5,10-7.29,3.48-12.51,10.86-10.72,15.82,2.75.26,24.82,1.66,30.76,1.52,0,0,14.45-11.44,20.92-16s14.67-10.59,18.25-13.44c2-1.6,4-3.11,5.54-4.18,1.22-.86,3.69-3,3.85-7.91.12-3.61.12-9.25.06-18.07-.19-28.61-.77-26.27,13.87-56.88,11.46-24,14-35.32,15.68-41.4.53-1.9,1.1-3.69,2-3,1.83,1.36,5.1,3.92,8.72,6.82,12.93,10.4,29.77,22.58,46.5,33.64,7.49,4.95,13.66,9.68,13.7,10.52.16,3.1,5.17,9,8.11,9.63l2.91.59-3.44,4.2c-5.28,6.44-8.76,14.81-8.34,20.06.1,1.34.06,2.26.06,2.95,0,7.7,7,5.75,8.21,2.47,1.9,0-4.31,10.61-7.35,12.38-3.49,2-4.14,5.59-1.43,7.83,2.11,1.74,21.73,1.56,27.14-.25,13.39-1.83,14.42-8.5,14.59-9.13.35-1.24,2.32-8.78,4.37-16.75l3.73-14.49v0l5.67-16.85c1.33-5-.25-11.27-6.51-12.21l-6.33-1.47s-17.38-7.23-19.28-8.58a27.66,27.66,0,0,0-7.78-3.54c-3.88-1-4.58-1.64-6.84-6.4a133.82,133.82,0,0,0-7.27-12.63c-2.62-4-5.12-7.91-5.57-8.64-.25-.41-.26-.69.08-.84l-5.15-7.11a2.82,2.82,0,0,1-.44-.18c-1.43-.76-14.51-18.33-19.4-26l-1.58-2.5,8.86.35c7.84.31,19.39-.45,38.41-2.52a24.13,24.13,0,0,1,4.77-.3l.62-.25,5.23-7.15h0l-15.74,1.92a292.46,292.46,0,0,1-31,1.93c-16.55,0-16.62,0-17.87-5.76-.77-3.52-2.13-4.36-4-2.48-3.5,3.5,2.74,14.81,24.15,43.73,13.55,18.29,19.43,27.42,23.69,36.75,3.39,7.44,3.5,9.47.75,13.91-1.14,1.85-2.38,3.32-2.74,3.25s-7-4.9-14.79-10.75-19.92-14.91-27-20.13c-15.63-11.53-34.58-27.21-39.49-32.68-8.86-9.87-16.63-24-18.77-34.12C438.93,624,447,608.35,464.52,603c8.76-2.7,39.32-7.77,58.05-9.61,16.22-1.6,40.38-5.81,43.77-7.62,1.48-.79,1.61-1.29.67-2.43-1.5-1.8-4.52-1.79-16.7,0-5.36.8-17.17,2.19-26.24,3.08-13.72,1.34-38.63,5-54,8-2.94.57-1.81-.5,7-6.59,5.77-4,13.14-9.3,16.36-11.78l4.71-3.6Zm-53.29,61.91,1.34,8c2.3,13.8,11.75,30.83,23.52,42.41l5.43,5.33L463,700.23c-3,11.09-6.15,18.72-16.67,40.63-3.83,8-8.26,17.84-9.85,21.92-3,7.7-6.58,11.47-13.93,14.63-6.24,2.68-8.14,2.75-10.5.4-2-2-2.16-2.91-1.66-9.34.71-8.93,18.77-108.28,22.39-123.11Zm116.87,92.5,4.87,2.64c2.67,1.46,5.12,3.47,5.44,4.48.81,2.53-2.65,9.73-6.53,13.63-3.62,3.63-5.78,4-8.24,1.59-1.54-1.54-1.41-1.94,1.88-5.75s3.53-4.33,3.06-10.34Zm16.75,10a60.72,60.72,0,0,1,6.52,2c3.2,1.1,13.19,4.59,13.08,5.15-1.25,6.49-8.9,38.44-15.18,52-.82.91-4.09,2.38-7.26,3.27a56,56,0,0,1-12.53,1.62h-6.75L549,798.2c2.1-2.67,6.18-15,7.73-23.34l.83-4.5,2.21,3.75a16,16,0,0,0,5.73,5.42c3.32,1.59,3.62,1.58,5.53-.15,2.77-2.51,2.59-7.45-.52-14-2.62-5.54-8.36-11.5-11.07-11.5-1.07,0-.45-1.28,2-4.15a35.23,35.23,0,0,0,5.21-8.5C567.59,738.81,568.66,736.86,569.05,736.86Zm-10.57,21.29c.74-.12,5,5.66,7,9.52,2.78,5.4,1.48,7.42-1.64,2.56-2.89-4.52-6-11.46-5.42-12.05a.07.07,0,0,1,.06,0ZM551,765.44c1-.21.34,6.48-1,10.11a7.05,7.05,0,0,1-2.85,3.28c-1.71.92-2,.8-2-.69,0-2.19,4.41-11.81,5.79-12.66a.26.26,0,0,1,.1,0Zm-117.28,13c.34,0,.38.49.38,1.3,0,5.52-5.11,12.39-10.41,14-5.54,1.68-8,1.9-11.21,1-4.08-1.16-5-2.42-5.72-8.14q-.94-7.23,2.29-3.32c3.08,3.72,13.71,2.25,21.3-2.94C432.31,779,433.25,778.39,433.69,778.45Zm-.82,17.81.66,8.55c.37,4.7.22,9.59.49,10.52.35,1.21-.49,2.44-4.65,5.09-5.86,3.72-31.69,21.83-36.3,25.45-1.37,1.08-6.1,2.86-10.5,4s-13.94.08-14.46-.9c-.82-1.54.08-2.36,6.22-5.68,7.71-4.18,9.46-6.21,16.52-19.23l4-7.33,1.87,3.77a18.76,18.76,0,0,0,4.56,5.74c2.52,1.84,2.86,1.86,5.16.35,5.42-3.55,4.08-15.09-2.59-22.39a4.67,4.67,0,0,1-1.37-4.71l.63-2.52,3.74,2.22c5.28,3.12,14.25,2.94,21-.41Zm-33.45,10.6c.34,0,1.55,1.83,2.69,4.07a14.61,14.61,0,0,1,1.72,7.25l-.36,3.18-1.79-3.94C399.76,813.21,398.41,806.86,399.42,806.86ZM153,897a1.07,1.07,0,0,1,.08.26c0,.36-26.72.65-59.38.65-51.56,0-59.54.19-60.62,1.49s-1,1.81,0,3,58.72,1.5,507.52,1.5c449.1,0,506.33-.17,506.85-1.5a5,5,0,0,0,0-3c-.51-1.31-7.69-1.5-56.31-1.5-29.59,0-54.17-.25-56.13-.57l-.38.22-6,.33H914.35c-7.21,0-10.76,0-12.74-.35l-.23.1-9.35-.18c-.51.24-5.65.44-11.87.44H868.24v0H816.36l-6,.09h0l-8.32-.29-8.32-.3h0l-5.69.5H747.57c-21.66,0-32.49,0-37.3-.6-2.3.43-4.36.8-5.29.92-2.88.37-10.49-.29-10.79-.32H654.14l-7.69-.87c-1.93.69-11.41.88-37.27.88-18.42,0-33.89-.2-37.35-.48l-.75.13-10.31.35h0l-150.08,0-150.09,0h0l-11.39.05h0v0H225.64c-12.95,0-23.55-.24-23.55-.53,0,0,0-.18,0-.24l-.78.42-6.05-.26c-1.95.53-6.21.61-16.66.61H161.28v0Z" class="cls-7" id="path1443"></path><path d="M550.29,320.22a7.55,7.55,0,0,1-7.55,7.55h0a7.55,7.55,0,1,1,7.55-7.55Z" class="cls-8" id="path7004-5-5-1-7-6-7-12-0-1-2"></path></svg>