<svg viewBox="0 0 1080 1080" xmlns="http://www.w3.org/2000/svg" id="fast_delivery_worldwide"><defs><style>.cls-1{fill:#f9f1cb;}.cls-2{fill:#9a702d;}.cls-3{fill:#f37a81;}.cls-4{fill:#72ccd1;}.cls-5{fill:#6cad8a;}.cls-6{fill:#efca87;}.cls-7{fill:#e8a1a4;}.cls-8{fill:#f2d0b9;}.cls-9{fill:#483613;}</style></defs><title>fast delivery worldwide</title><path d="M1040.9,887.1c0,11.84-98,22.73-255.8,28.46s-350.61,5.37-503.31-.93S40.55,897.1,50.63,885.29l494.75,1.81Z" class="cls-1" id="path2708"></path><path d="M362.35,343.25c1.33,1.7,7.11,1.42,12.88,1.32s16.39,7,16.39,7L390.1,326.2Z" class="cls-2" id="path1559"></path><path d="M366.06,409s-2.68,14.33.67,19.42,5.63,8,5.63,8,8.43-2.14,10.18-.67-6.57,10.59,11.25,7.64,31.87-25.18,37.36-33.22,14.47-15.8,14.47-15.8,1.29-8.69-7.77-15.14-13.66-2.14-13.8,5.09-23.57,22.37-32.81,27.46-15.7,6.36-16.48,3.62-8.7-6.43-8.7-6.43Z" class="cls-3" id="path1561"></path><path d="M445.08,406.56s15.67-9.11,32.81-8.71,27.32,3.22,40.45,3.75,20.22-5.89,22.37-12.05,5.55-9.59,3.61-13.13,1.34-7.77-8.17-2.67-55.18,2.94-60.27,4.55-21.29,16.74-23,18.75-7.77,9.51-7.77,9.51Z" class="cls-3" id="path1563"></path><path d="M418.16,441s9,20.62,31.48,38.3,34,28.66,34,28.66-8.17-26.65-10.32-32.27-7.77-17.41-.67-11.92,18.22,38,20,41.38,15.27,10.58,10.18,11.25-22-.67-22-.67-8.31.27-4.42,7.5,7.63,19.82,7.36,26.65-3.75,9.78-3.75,9.78S520,563,527.85,558.7s11.53-6,11.53-13.66,2-40.18-3.09-56-17.27-50-27.58-61.21S470.94,408.57,461.29,410s-33.75,18.08-33.75,18.08Z" class="cls-4" id="path1565"></path><path d="M544.59,497.9s5.49,15.53,3.88,28.39S547,556,542.85,559.77s-5.49,4-5.49,4,21,4.82,37.9-.27,32.81-19,32.81-24-6-5.23-13.4-14.06-11.11-15.94-21.16-18.09-20.49-5.75-22.63-7.76-6.29-1.74-6.29-1.74Z" class="cls-4" id="path1567"></path><path d="M469.37,582.37s-55.88,42-63.64,53-10.23,15.15-14.4,44.32l-8.26,56.37,7.5,23.37s4.15.27,11.92-20.76S432,666.38,432,666.38l12.46-5.49s.8-2.81,6.16-13.53,25.31-30.53,26.65-32.41S497,597.41,497.71,597s2,7.23-15.14,23.7-28.52,29.47-29.46,38.84,8.57,83.84,11.52,87.06,28.26,7.23,29.87-1.21,4-44.46,4-45.4-1.34-29.46-1.34-29.46,28.26-5.23,37.63-8.44,36.69-18.62,42.05-27.46,5.63-26.25-3.08-41.65-11.11-22.5-11.11-22.5-.14,8.3-27.46,9.65-41.11,6.43-50.22,5.49a74.67,74.67,0,0,1-15.62-3.26Z" class="cls-5" id="path1569"></path><path d="M371.3,444.28s-14,21.59-18.95,35.61-.41,17.44-.41,17.44,12.4,1.7,15.53,9.09,1.23,14.59,6.15,15.06,5.21,1.9,6.91-2.46,5.69-14,8.15-18.28,9.85-8.24,6.91-10.42-10.13-6.72-10.13-6.72,12.69-4.26,20,5.11,9.28,16.67,10.79,19.32,1.71,4.93,4.27,8,6.88,9.86,12.5,7.19,1.23-14.86-9.28-26.14-20.55-24.71-20.55-24.71-13.16-1.05-19.23-10.52-6.34-12-6.34-12Z" class="cls-4" id="path1581"></path><path d="M280.44,543.07c.28.76,18.75,7.95,20.45,8.52s1.8-15.15-.66-15.34-18.47.09-18.47.09Z" class="cls-4" id="path1585"></path><path d="M367.75,539.56c-2.34.46-4.07,13.26-11.08,17.15s-1,7.29,6,5.68,16.95-15.44,17.14-17.9.38-3.41.1-3.78-12.13-1.15-12.13-1.15Z" class="cls-4" id="path1587"></path><path d="M305.34,685.59s21,22.73,5.12,30.69-49.06-.57-69.9,18-37.12,12.5-37.31,7.39-11.36,8.33-1.14,18.94,29.55,12.88,49.63,3.79,30.49-18.19,52.65-12.69,39.77,17.8,39.77,17.8,2.48,42.06,2.07,44.87-3.75,5.23,17.94,6.43,41.92,2.28,41.92,2.28h47.17s-62.51-3.39-83.72-63.24S345.3,675,330.9,664.38s-9.85-26.51-4.92-40.91,2.27-25.19-4.93-18.56S298.7,658.32,297,664.38s-2.85,17.24-2.85,17.24-7.95,3.6-9.85-.38,3-22.73,3-22.73-14.2,8.71-29,9.28-11.55-13.45-11.55-13.45-2.15,13.57-4.74,25.19-.18,14.77-.18,14.77,20.45-10.41,38.44-11.55,25,2.84,25,2.84Z" class="cls-1" id="path1566"></path><path d="M683.11,792.7,659.34,770l25,1.33Z" class="cls-1" id="path1568"></path><path d="M600.53,769.69c.85-.09,25.66.95,25.66.95l-.66,20.64Z" class="cls-1" id="path1589"></path><path d="M671.46,674.61l-101.33,9.28a72,72,0,0,1,3.22,41.48c-5.11,22.92,5.11,11.74,10.23,8s18.4-11,28.41-14.39,10.08,1.82,10.08,1.82l3.18-18.11,19.23,15.25,34.75,1.23-.19-16,19.89,17.14,22.06-1.8s-6.15-18.66-28.31-32.3-21.22-11.55-21.22-11.55Z" class="cls-1" id="path1591"></path><path d="M534.33,684.46s13.64-4.73,17.24,7.77,6.24,34.85-2.85,56.82S527.89,790.34,516,796.59s-13.64,4.92-13.64,4.92l-6.63,1.23L499,791.47a47,47,0,0,0,23.2-22.92c8-17,14.78-39.2,14.21-57.2S534.33,684.46,534.33,684.46Z" class="cls-1" id="path1593"></path><path d="M251.08,780.41s-19.41,6-28.69,3.11-11,20.64-6.63,46,26,40,43,42.43,27.47-6.44,27.47-6.44-30.5-.38-35.8-27.84S244.92,788.86,251.08,780.41Z" class="cls-1" id="path1597"></path><path d="M597.62,821.2s.27,27.19,15.94,42.59,54.38,7.5,54.38,7.5-30.17-.93-33.75-25.71-7.1-28.53-7.1-28.53Z" class="cls-1" id="path1599"></path><path d="M538.83,661s57,3.22,83.57-12,14.46-27.32,14.46-27.32L580.61,623s4.82,10.71-16.07,24.1S538.83,661,538.83,661Z" class="cls-1" id="path1606"></path><path d="M803.07,526.42v12s-27.82,10-39.37,12.5-24.81-32.39-24.81-33.53-.95-37.88-.95-37.88,21.78,39.59,25.38,40.91,37.63,5.91,39.75,6Z" class="cls-1" id="path1620"></path><path d="M649.3,495.05c1.14,10.42.94,38.83-2.27,47.16s-3.22,23.68,5.11,25,88.45,1.32,88.45,1.32,5.83-2.34,5-6.89-7.23-4.42-5.75-20.77-2.28-49.55-2.28-49.55-72.86-7.37-79-5.09S649.3,488.86,649.3,495.05Z" class="cls-1" id="path1628"></path><path d="M625,497,624,524.28s15.4,1.87,15.4,1.2-1.07-49.55-1.07-49.55Z" class="cls-1" id="path1639"></path><path d="M808.42,360.73c-.13-.06.18.65,1.08,2.3,5.76,10.58-6.83,26.52-6.83,26.52s7.9,8.31,8.57,16.48-1.34,23.57-7.37,40.18-17.94,23.3-17.94,23.3l-47.21-.4s-1.73-1.32-1.73-1.7,4-17.05,10.23-25.38,4.54-15.34,4.54-15.34a42.32,42.32,0,0,1-15.91,15.15c-11.17,6.25-28.88,4.83-28.88,4.83l8.43,21.49s-16.48,2.27-26.33,1.71S680,459.45,680,459.45s1.33.19-16.67-5.68a38.59,38.59,0,0,1-11.94-6.67,95,95,0,0,0,7.7,23.48c3.62.24,7,.45,7.39.4,1.07-.14,57.73-.27,57.73-.27l72,.67s13.4,5.22,20.9-9.51,9.91-46.61,7.5-63.89C822.6,383.41,809.12,361,808.42,360.73Z" class="cls-1" id="path1643"></path><path d="M329.63,284.68s-110.35-43.92-124.28-47.14-3.49,120.53-3.49,120.53,9.38-33.75,37.77-33.21,41.52,11,42.32,20.09,8,36.7-1.6,59.2S253,447,240.44,455.31s-12.86,21.16-12.86,34.81a274.67,274.67,0,0,0,2.19,30.22s13.07-6.16,24.25-10.14,24.24-2.84,25.19,3.6.75,7,11.17,6.44,12.12-1.7,12.12-1.7,6.16-10.52,7.58-15,22.5-7.68,22.5-7.68l-.8-114.78s-4.83-10.05-5.09-19.42-.41-9.91-.41-9.91-10.31-3.48-6.42-11.92,3.21-10.18,3.48-15.27S326,305.84,328.83,300s.8-15.27.8-15.27Z" class="cls-1" id="path1645"></path><path d="M694.32,329.42l-2-46.07-68.44-31.07S612,285.49,601.24,295.53s-20.49,11-20.49,11S623.73,378,612,414.75s-22,77.65-22.73,89.77-3.61,13.64,1.32,18.57,20.55,9.56,17.24,16.95-6.73,24.62-17.62,30.78-6.34,9.84-.28,26.32,2.18,17.05,23.1,16.1,24.53-1.32,24.53-1.32L642,595.35s-15.81,4.07-17.42-8.15,3.88-18.56,3.88-18.56l10.89,2s-7.1-14.87-6.15-18.66,4-10.89,4.64-18.56.47-8-7.86-8.34-21.21-1.7-21.21-1.7l11.36-23.2L638.88,472l9-2.27s-14.35-26-13.12-43.39.46-28.59,7.56-42,29.62-41.78,52-54.94h0Z" class="cls-1" id="path1648"></path><path d="M873.08,808.33s-1.14-1.23-9.19-.76-16.76.76-25.66-5.68-10.13-5.49-10.13-5.49-22-3.6-28.41,11,7.19,21,7.19,21-14-4.54-19.51-1.51-13.83,13.44-10.79,25.18,21.4,16.67,25.76,15.16,1.13-18.94,32.19-25.19,37.13.19,48.11-1.52S896.09,832,896.09,832s-19.32-1.52-25.76-10.42,2.74-13.26,2.74-13.26h0Z" class="cls-1" id="path1653"></path><path d="M806.5,724.23s17.81-4.16,26.52-8.52,7.77-19.51-1.32-17.61-25.19,26.14-25.19,26.14Z" class="cls-1" id="path1655"></path><path d="M805,746.05s15.19,28,36.78,35.57,39.4,2.46,37.89-2.46S831.81,751.19,805,746.05Z" class="cls-1" id="path1657"></path><path d="M913,884.68c10.71-4.28,14.33-24.37,33.75-27s26,14.6,20.75,22.37S913,884.68,913,884.68Z" class="cls-1" id="path1659"></path><path d="M988.52,747c-10.6-3.6-29.73,9.66-47.73,4.73S926.71,725,926.71,725s53.48,6.6,61.81,21.94Z" class="cls-1" id="path1672"></path><path d="M294.28,882.27S359.1,867.54,404.1,863s38.84,19.28,74.73,15S553,857.9,578.2,859.77,622.67,886,622.67,886l-49.56.54H287.84Z" class="cls-1" id="path1702"></path><path d="M500.62,160.41a2.7,2.7,0,0,0-.92.19c-6.13,2.72-71.08,40.36-107.7,63.75-21.62,13.82-47.47,31.07-56.78,37.9l-7.11,4.51L313.72,260c-17.9-8.44-79.59-35.88-105.22-46.17-10.18-4.09-23.57-10.08-29.76-13.32l-6.8-3.56c-1-1.29-7.2.15-7.2,5.52s-.15,16.66.33,41.86c.47,24.59.67,114.68.44,200.21s-.44,219.06-.46,296.75L165,886.48h5.21l.31-53.71c.16-27.37.23-79,.11-114.75s.22-90.2.72-121c1-60.84.54-316.61-.63-364.75-.4-16.37-.59-29.75-.43-29.75h0c.17,0,3.54,1.77,7.5,3.93s12.61,6.14,19.2,8.85,20.56,8.78,31,13.49,33.18,14.85,50.51,22.53,35.14,15.71,39.58,17.83l8.09,3.87.7,12.72c.51,9.34.5,18.22-.46,20.8l7.35-12.3-.88-14.61-.88-8.55,15-9.94C395.46,229,424.61,211,467.49,186.49c11.82-6.75,23.14-13.31,25.14-14.57l3.65-2.3.65,16.2c.75,18.46,2.29,87,3.23,143.49.43,26,.72,42.94,1.43,47.71l4.33-.07c.74-4.9.71-22.37.24-53.68-1-64.44-2.69-134.93-3.57-146.25-.43-5.5-.73-10.09-.68-10.19h0a52.76,52.76,0,0,1,5.58,3.33c3,1.93,9.54,5.55,14.49,8s9.19,4.72,9.43,4.94-.54,2.11-1.72,4.22c-5.44,9.68-6.83,27.51-3.23,41.59,5.38,21,22.63,49.8,41.55,69.27,11.52,11.85,12.9,12,19.24,2C596.6,285.4,616.81,251,619.11,246c1.38-3,2.71-5.49,2.95-5.49s6.18,2.86,13.18,6.37c15.36,7.69,45.13,20.94,50.9,22.65l4,2.57,0,7.28c0,4.74.21,17.69.66,28.77l.81,20.14-8.48,5.53c-27.27,17.78-47,48.15-50.7,78-2.17,17.54.42,34,7.62,48.34l4.12,8.21-3.6.3c-4.08.35-4.5.92-19.64,26.55-4.62,7.83-10.71,17.7-13.52,22-6.62,10-6.29,10.29,11,10.32s16.76-.24,16.27,7.3a35.75,35.75,0,0,1-2.81,11.37c-3.1,6.7-3,8.54.6,15l3,5.33h-3.91c-3.72,0-4.08.29-7.18,5.75-4.35,7.66-5,14.7-1.95,19.7,3,4.82,5.87,6.14,14.16,6.48,1.48.06,1.45.91-.37,9.32-1.1,5.09-2.38,9.66-2.84,10.15s-3.45,1-6.63,1.11-13.78.53-23.54.94l-17.74.74s-5,5.82-1.75,5.82c2.5,0,17.43-.52,26.23-1.17,6-.44,12.6-.62,19.2-.57h0c19.8.15,39.3,2.27,39.3,4.94,0,.48-2.29,5.92-5.09,12.08s-6.24,14-7.64,17.37l-2.54,6.17-21.7.11c-11.94.06-26.41.52-32.17,1-23.86,2.09-67.78,1.18-70.53-.31-1.39-.75-13.42,2.43-13.42,2.43a31.53,31.53,0,0,1,6.5,1.63c4.29,1.41,4.44,1.61,7,9.24,3.93,11.89,4.94,20.66,4.36,38-.4,12.23-1.06,17.61-3.1,25.5-4.41,17-14.52,34.57-23.87,41.44a19.38,19.38,0,0,1-6.46,3.06.43.43,0,0,1-.34-.22c0,2.74-.81,5.75-.13,7.3a48.2,48.2,0,0,1,4.22-2.59c3.58-2.07,5-3.86,7.55-5.67,13.07-9.39,24.39-33,27.44-57.25,2.36-18.71-.49-43.9-6-53.28l-2-3.36,9.24.63c10.64.74,11,1,16.25,11.47,4,7.88,5.3,12.57,6.47,22.85,2.34,20.5-5.07,51.18-17.48,72.35-5.57,9.51-10.29,14.34-16.92,17.32-4,1.79-7.75,2.43-17.43,3-8.47.47-55.51.43-62.4-1.2a24.66,24.66,0,0,1-5-1.57,15.49,15.49,0,0,1-4.77-1.47c-.53-.21-1.19.1-1.76-.31a164.68,164.68,0,0,1-19.36-10,86.7,86.7,0,0,1-16.26-15.24,51.49,51.49,0,0,1-6.34-10.44l-2.16-4.75A173.58,173.58,0,0,1,384,729.17l-2.71-10.84-1.6-10.58c-1.44-9.43-2.48-14.38-2.14-17.57-.17-.43,0-9,0-10.67,0-11.32,2.18-33.66,5.57-57.54,2-14.32,3.4-27.14,3.05-28.5-.5-2-3.08-3.65-12.41-8.17-10.79-5.23-24.91-9.79-30.29-9.79-1.69,0-2-.41-1.5-1.75a31.19,31.19,0,0,0,1.22-4.89,5.26,5.26,0,0,1,4.27-4.65c5.89-1.58,11.42-7.57,14.85-11s6.61-7.64,7-9.25c.53-2,.91-2.62,2.37-2.69a14.89,14.89,0,0,1,1.85.09,13.34,13.34,0,0,1,3.84.75c.17.17,3,.48,2.89.9,3-1.77,2.07-6.54,0-6.74-1.43-.13-8.07-.41-10.73-.8a51.88,51.88,0,0,0-6.15-.38c-3.66-.44-2.59-8.77-.63-10.31a5.92,5.92,0,0,1,3.06-.47,59.53,59.53,0,0,1,6.52.5c5.39.65,10.5.48,11,1.26.18-.9.36-1.84.53-2.6.57-2.54-10.18-2.27-10.29-4-.05-.69-.06-3.91-.06-5,0-10.88-7.46-17.94-21.53-20.38-4.17-.73-15.14-1.53-15.81-1.53-2,0-2.83-31.37-1.73-68.83.51-17.22.67-35.72.37-37.61-.28-1.68-.4-2.52-.15-2.84a97.93,97.93,0,0,1-7.31-7.52c1,2.84,1.13,17.31,1,61l-.19,56.56-4.35.49c-2.4.27-5.23,1.28-6.3,2.25-1.72,1.56-2,1.58-2.54.19-.86-2.26-6.36-4-8.09-2.59-2.07,1.73-1.63,2.86,1.65,4.24l3,1.26-2.91,2.79a32.89,32.89,0,0,0-5.5,8.56c-2.36,5.25-2.93,5.82-6.35,6.39-5,.83-13.24.81-15.36.1.13,2.65.27,5.55.27,5.55h9.86c7.79,0,8,.06,7.56,2.25-.25,1.23-.73,3.94-1.06,6-.5,3.09-1,3.72-2.81,3.57l-6.95-.56-4.75-.37-.54,5.53a6.18,6.18,0,0,1,2.31-.27c.69,0,1.52.08,2.48.2,2.89.34,6.44.64,7.9.64,2.41,0,2.68.39,3,4.5.27,3.38.16,4.62-.64,4.38a19.31,19.31,0,0,0,2.78,5.76.1.1,0,0,1,0,.09,5.64,5.64,0,0,1,1.68,2.31,15.1,15.1,0,0,0,3.11,4.58c1.46,1.32,1.79,2.53,1.33,4.82-1.3,6.52-.82,6.22-11.23,6.9-12.66.84-24.59,3-27.72,5.07-2.8,1.83-6.23,8.14-9.28,17.09-8,23.47-19.23,74.81-19.23,88v8.11l-6.84,4.67c-16.23,11.1-30.78,31.62-35.65,50.31-2.25,8.66-2,11.58,1.51,15.49,1.65,1.86,2.81,4.06,2.55,4.88s-1.37,4.12-2.48,7.31c-2.55,7.33-5.08,24.2-5.08,33.82,0,8.66,2.1,22.3,4.51,29.37,8.58,25.21,28.05,42.52,52.51,46.16l49.48-.71h0l6.25-3.37c15.85-8.54,28.11-22.8,34.89-40.56l3.25-8.5,0,26.25h0l0,30.21h6.06l-.27-34.22c-.13-16.64-.27-30.33-.27-30.43a58.71,58.71,0,0,1,6,1.42c4.69,1.25,11.73,1.62,32.5,1.72,14.59.07,27.19.54,28,1s17.61.81,39,.67l37.51-.24v28h0v32h6.75l-.63-8.61c-.19-2.57-.64-15.11-.64-27.9V826.72l8.75-.69c4.81-.38,17.08-.8,27.25-.93,19.38-.25,21.09-.59,26-5.18l2.52-2.35,5,2.44a24.58,24.58,0,0,0,9.65,2.47c7.09,0,7.38.31,7,6.47a50.55,50.55,0,0,0,1.65,13.3c4.12,16.27,12.33,29.52,22.51,36.32l11.13,7.11h0l14.43.07c-3.85-.39-5.92-5-9.63-6.3C611.59,875,603.81,868.11,597.21,855c-4.76-9.47-9-28.19-7-31.08.48-.68,7.38-1.35,18.26-1.76l17.17-.66.61,5.26c.66,12.62,7.14,28.76,14.38,35.83a48,48,0,0,0,10.84,7.31c12.68,6,28.55,3.64,42.78-6.35,10.38-7.3,15.51-14.65,18.64-26.73,1.88-7.27,1.92-10.57.18-15.45l-1.3-3.66,7.9-.7c2.18-.19,4.23-.3,5.78-.31a7.24,7.24,0,0,1,2.77.25c1.25,1.25.43,17.24-1.25,24.09a93.22,93.22,0,0,1-5.26,14.49c-4.46,9.43-15,20.36-23.43,24.33l-5.69,6.64H706.3l0-4c21.66-14.08,28.67-37,28-57.48-.36-10.63-.44-10.52,6.81-10.52,6.78,0,12.72-1.85,16.82-5.23,4.81-4,5.78-6.69,5.6-15.74-.15-7.94-3.35-17.18-7.13-20.6-1.77-1.6-1.63-1.78,3.13-4.15,2.74-1.36,5.41-3.29,5.94-4.27.42-.79.77-1.2,1.39-1.28h0a7.77,7.77,0,0,1,3.07.69,17.4,17.4,0,0,1,4.2,1.9c.38.39,2.19.42,4,.08,2.71-.51,5.21.31,13.57,4.43a108.72,108.72,0,0,1,16.21,9.86l5.95,4.79-5.41.78c-11.17,1.61-20.18,7.79-24.35,16.73-1.59,3.4-2.1,6.51-2.13,12.66l0,8.15-4.5.61a24.53,24.53,0,0,0-15.38,8.89c-2.6,3.23-3.13,4.83-3.45,10.54-.27,4.69.11,7.91,1.24,10.62,1.61,3.84,1.6,3.9-1.14,6.79-7.78,8.18-20.69,15.94-32.63,19.63-4,1.22-9.46,6.07-13.23,6.09H739l6-7.57c2.39-3,9.22-6.22,13.15-9.43l7.14-5.83,2.19,2.33a11.38,11.38,0,0,0,4.17,2.85c2.87.75,3.49-2,1-4.63-3.42-3.66-8.19-14.84-8.19-19.2,0-10,9.6-16.52,24.78-16.71,4,0,7.5-.44,7.77-.87.72-1.16-3.67-3.92-6.24-3.92-4.58,0-5.57-6.57-2.31-15.27,3.77-10.08,11.91-15.63,24.2-16.51l6.74-.48,6.12,5.66c10.35,9.59,22.61,14.36,34.17,13.32,3.3-.3,6.46-1,7-1.59s2.67.6,6.33,4.25a52.64,52.64,0,0,0,12.1,8.66c5.77,2.84,8.15,3.42,15.56,3.78,11.3.55,20.17-2.13,30.75-9.31,14.48-9.82,21.49-23.1,20.82-39.45-.19-4.75,0-7.57.56-7.74h0a.24.24,0,0,1,.12,0c.55.18,2.73,3.67,4.85,7.76,3.83,7.36,3.86,7.5,3.35,16.42-.6,10.48-3.48,19.62-10.06,32-5.39,10.13-10.26,16.74-13.89,18.83-1.59.92-2.75,2.45-2.75,3.64,0,2.45-.6,2.41,7.15.42,12.91-3.31,26.66.42,32.47,8.8,2.52,3.64,2.85,5,2.71,10.74a41.57,41.57,0,0,1-1.6,10.58l-1.44,8h0l4.73.12h0a38.15,38.15,0,0,1,2.18-9.23c2.76-6.18,3-16.43.57-21-4.76-8.84-14.71-14.45-26.89-15.16l-7.68-.44,4.52-6.12c9.54-13,15.21-27.55,16-41.23.62-10.52-.27-14.07-5.41-21.55l-3.54-5.15,4.12.55c5,.68,6.33-.85,3-3.53-5.64-4.57-24.91.81-27.35,7.65-1.49,4.15.44,5.08,4.44,2.13,1.86-1.38,3.8-2.5,4.31-2.5,1.34,0-.18,12.37-2.4,19.48-5.2,16.72-25.58,30.38-43.77,29.36-10.36-.59-18.15-4.86-27.58-15.1-6.07-6.6-7.77-7.94-8.79-6.91s-.85,2,.89,5.22l2.17,4h-3.17a54.74,54.74,0,0,1-22.56-5.61c-5.72-2.81-10-6.19-19-14.81-6.4-6.14-13.79-12.65-16.43-14.47-5.37-3.7-18.71-10.11-21-10.11s-2.63-1.34-1-6.58,1.22-12.84-1.12-19.48l-1.35-3.81,5.69-.6c16-1.69,32-6.67,37.33-11.67,4.58-4.28,2.56-5.31-4.68-2.4-6.73,2.72-22,6.86-23.49,6.37S808,702.6,813.3,697.19c5.58-5.71,14.79-10.51,21.7-11.31,5.89-.69,14.84,2.23,18.37,6l2.21,2.35-3.14,5c-3.08,5-3.56,8.2-1.31,8.94.62.21,2.15-1.26,3.39-3.26,3.09-5,9.47-9.45,13.55-9.45,3.71,0,7.17,3.51,8.11,8.22.31,1.53,1.19,2.78,2,2.78,3.69,0,2.65-8.44-1.65-13.34l-2.9-3.3,4-6.62a91.23,91.23,0,0,1,9-12.18c9.51-10.4,25.57-15.85,40-13.6,22.35,3.47,35.4,16.37,33.33,32.95-.92,7.36-4.11,17.62-7.08,22.77a21.11,21.11,0,0,0-2.41,5.25c0,1.59,2.09,1.3,4.18-.59,1.56-1.41,2.24-1.47,4.58-.4,3.94,1.82,17.39,2.59,20.06,1.15,3.2-1.71,2.67-2.93-1.57-3.59-19.42-3.07-19.1-2.9-16.33-8.35,3.12-6.11,5.36-16.84,4.76-22.83-1.9-19.07-21.45-32.75-46.68-32.68-20,.06-37,11-45.71,29.3-2.18,4.59-4.43,8-5.29,8.07a17.82,17.82,0,0,0-2.9.66l-.1-134.42c-.06-69.73.33-133.76.92-148.25,1.11-27.38,1.22-128.11.2-193.83-.32-20.51-.5-30.63-.89-35.82-.33-4.52-3.89-6.66-7.33-4.25-1.48,1-3.54,2.35-5.4,3.41-2.75,1.56-12.88,8.09-22.5,14.5-30.66,20.44-73.47,45.71-99.28,58.62-8.37,4.18-20,10.24-25.87,13.47l-10.65,5.87-10.35-5.12c-5.69-2.81-15.08-7.22-20.85-9.81s-17.08-7.76-25.11-11.51l-14.61-6.83,2-7.6c2.74-10.39,2.67-24.46-.16-32.43-4-11.22-13.21-20.72-25.33-26.08-22.68-10-48.59-7.14-61.77,6.89l-2.36,2.51L519.87,170c-12-6.23-15.58-9.63-18.31-9.63-.31,0-.63,0-.94,0v0Zm72.1,9.14h0a57.55,57.55,0,0,1,12.12,1.4c18.63,4.15,31.39,14.7,35.1,29,1.95,7.54,1.94,12.65,0,22.33-3,14.85-8,24.56-36.16,71-2.43,4-4.8,7.25-5.29,7.25s-3.68-3.25-7.1-7.22c-28.92-33.6-44.15-67.94-40-90.17,3.9-20.9,20.3-33.66,41.35-33.57Zm287.78,7.93v10.77c0,5.92.28,46.09.63,89.27.4,49.27.22,94.14-.48,120.5-1.55,58.09-2.59,213.71-1.68,249.75l.73,43.43-.51.18L855,687.11c-7.22-7.43-16.57-9.29-27.77-5.52-12.47,4.2-20.34,11.35-28.93,26.3-9.16,15.94-9.5,16.34-14.34,17.07-3.68.55-5,.28-7.48-1.59-2.79-2.06-3.49-2.16-8.29-1.18-5,1-5.43.94-9.23-1.76-4.47-3.17-14.64-4.92-28.62-4.92-7.39,0-7.69-.1-8.31-2.55-.44-1.78,0-3.34,1.39-5.14,5.32-6.76-1.49-22.55-11.34-26.27-2.54-1-2.79-1.44-2.24-4.19a33.9,33.9,0,0,0,.62-5.32c0-2.15.42-2.24,12.75-2.83A158.85,158.85,0,0,0,741,667.52c5-1.08,5.07-1.14,7.91-7.8,6.41-15,18.86-40,25.21-50.65l6.75-11.32,13-.71c15.19-.83,20.59-2.62,26-8.65,5.75-6.37,4.45-13.51-3.52-19.4-1.85-1.36-4-2.48-4.67-2.48-1.61,0-1.62-.49-.1-4.68,1.09-3,.91-3.9-2-9.59-2.72-5.32-3.31-7.75-3.85-16l-.64-9.73h5.4c3,0,10.35-.67,16.4-1.48s11.3-1.49,11.68-1.49c1.41,0,3.82-3.24,3.82-5.07,0-1.05-3.53-8.11-7.84-15.68s-10.19-18.16-13.07-23.52-5.67-9.75-6.21-9.75.33-1.91,1.93-4.25C825.74,453,829,439.08,829,415c0-13.63-.34-17.17-2.27-23.9-12.3-42.89-50.21-70.54-96.79-70.59-9.73,0-14.11.49-22.34,2.57-5.63,1.42-10.36,2.43-10.51,2.25s-.59-11.64-1-25.47l-.69-25.13,7.31-4c4-2.19,16.75-8.84,28.3-14.77a1068.43,1068.43,0,0,0,106.75-63.22ZM572.73,194.71c-.55,0-1.1,0-1.65,0s-1.17.07-1.76.14c-6.4.75-8.48,2.28-11.5,8.45-2.13,4.32-2.49,6.18-2,10.18,1,8.6,5,14.47,11.72,17.5s16.4-.57,20.89-7.83c2.71-4.4,3.7-12.23,2.14-16.95-2.16-6.56-9.65-11.22-17.83-11.49Zm-2.36,6a12.54,12.54,0,0,1,1.88.14c9.58,1.31,14.36,6.93,12.26,14.4-1.2,4.26-2.5,6.11-6,8.51-8.41,5.79-18.45-4.51-15.9-16.29Q564.1,200.79,570.37,200.76Zm7.13,115a1.2,1.2,0,0,0-.32.06c-1.7.56-2.06,5.56-.72,10,.83,2.76,1.62,3.73,2.84,3.48s1.64-1.32,1.44-5.12C580.48,319.12,579.13,315.66,577.5,315.72Zm-330.43,7.69c-15.83,0-28.7,5.09-37.54,14.76C203.27,345,201,351.41,201.05,362c.08,18.75,12.06,41.81,33.63,64.75,5.66,6,6.75,6.75,10.13,6.75,8,0,10.39-2.71,23.9-27,13.73-24.67,18.19-37,18.25-50.5,0-10.48-1.91-15.88-7.87-21.84C271.76,326.85,261.47,323.38,247.07,323.41Zm484.6,2.21c23.5.25,48.92,10.21,65.46,26.7a87.48,87.48,0,0,1,24.92,46.17c1.37,6.78,1.6,11.54,1.14,24-.79,21.26-2.42,27.47-10.55,40.28L809,468.49H793.21l4.55-4.86c6.08-6.5,8.41-11.38,10.69-22.4,1.06-5.08,3.07-14,4.48-19.74,3-12.35,3.19-19,.69-24.5-3.81-8.38-14-14.49-21.8-13-2,.37-5.83,2.77-9.38,5.84-14.07,12.11-13.8,11.95-19.5,11.24-7.7-1-15.43.34-18.15,3.07-3.53,3.52-3,8.5,1.71,17.2,5.53,10.14,5.4,11.09-2.75,21.13-5.81,7.15-9.24,14.08-10,20.14l-.58,4.92H718l-1.64-4.74c-3.41-9.87-8.85-21.82-10.92-24-3.4-3.55-10.31-3.09-18.94,1.25-8.91,4.49-10.52,7.23-9.63,16.45.35,3.6.91,7.79,1.25,9.3l.61,2.74h-14c-10,0-14.28-.36-15-1.25C648,465,641.62,449.77,640,443.82c-1.88-6.95-3.07-24.15-2.12-30.5l.68-4.54,6.21,6.21c7.94,7.94,11.49,9.74,20.21,10.27,6.67.39,7.27.24,13-3.32,9.46-5.88,12.26-7,24.5-9.89,6.32-1.48,12.48-3.33,13.67-4.09,6.55-4.2,13.09-14.6,14-22.25.73-6.17-1.72-14.92-5.4-19.29-1.82-2.17-2.61-4.14-2.42-6,.49-4.67-3.22-8.73-9.59-13.2-6.55-4.59-8.63-7.7-9.06-12.89l-.33-4,9.88-2.66a67,67,0,0,1,16.16-2C730.16,325.62,730.91,325.62,731.67,325.62Zm-485.85,4q.77,0,1.53,0c1.18,0,2.39.07,3.65.15,9.95.68,16.06,2.78,21.41,7.37,6.12,5.23,8.08,9.78,8.08,18.69,0,8.36-2.2,16.58-7.62,28.48-3.9,8.56-19.43,36.49-22.13,39.81-3.67,4.5-5.26,3.93-13.85-4.92-13.09-13.49-23.32-30.28-27.37-44.89-5.16-18.61-.18-31.62,15-39.21,7.39-3.7,13.74-5.38,21.3-5.48Zm451.9,2.85c.43,0,.8,1,.8,2.26,0,4,3.65,10.41,7.5,13.37,10.07,7.75,10.47,8.26,10.47,13.32,0,3.64.59,5.42,2.53,7.65,3.26,3.74,6.91,12.43,6,16.67s-4.18,10.82-7.84,14.3c-2.34,2.23-6.33,3.71-15.41,5.73-12.08,2.68-17.24,4.83-25.27,9.95-5.52,3.52-11.73,5.4-17.23,3-5-2.18-11.83-8.57-14.43-14.12-2.93-6.24-3.7-11.68,3.85-24.82,10.76-18.71,24.9-33.6,40.76-42.92,4.12-2.42,7.83-4.4,8.25-4.4Zm60.86,12.25a9.91,9.91,0,0,0-2,.23c-6.1,1.34-10.94,9.3-9.7,15.93.71,3.78,4.06,7.3,8.2,8.6,3.85,1.21,9.2.47,11.48-1.6,2.55-2.31,5.9-9.49,5.9-12.65C772.49,349.92,765.05,344.59,758.58,344.76Zm-169.8,4.76c-2.81,0-1,6.29,3,10.74,2.1,2.31,4.19,2.89,5.09,1.44.73-1.19-6.58-12.18-8.1-12.18Zm-344.71,1h0a15.31,15.31,0,0,0-6,1.09c-2.87,1.31-6.62,9.15-6.62,13.84,0,4.26,2.33,9.44,5.12,11.4s8.1,2.09,12,.06c3.41-1.76,6.83-8.24,6.83-12.93,0-4-3.3-11.08-5.81-12.42a12.59,12.59,0,0,0-5.57-1Zm515,1h0a9.2,9.2,0,0,1,5.42,1.7c1.91,1.55,2,2.13,1,4.75a18.12,18.12,0,0,1-2.72,4.74,4.81,4.81,0,0,1-2.68,1.69c-2-.12-6-2-6.81-3.24-1.29-2-.87-6.48.78-8.13a7.05,7.05,0,0,1,5-1.51Zm-516.24,4.94c5.65,0,8,9.51,3.39,13.83-2.57,2.41-3.39,2.57-5.89,1.11C235.84,368.87,237.91,356.51,242.79,356.51Zm361,27.47a2.85,2.85,0,0,0-1.26.49c-1.48.92-.7,7.56,1.15,9.8,2.6,3.14,4.25-.32,2.77-5.82-.88-3.25-1.56-4.54-2.66-4.47Zm191.33,5.76c3,.1,6.32,1.75,9.35,4.78,6,6,6.34,11.7,1.89,28.63-1.14,4.33-2.9,11.78-3.93,16.56-2.48,11.54-4.6,15.38-12.56,22.68-3.68,3.37-7.19,6-7.8,5.9s-10.5-.36-22-.52l-20.87-.3.65-4.08c.86-5.39,2.72-8.94,9.15-17.41,8.91-11.76,9.37-15.23,3.44-26-3.94-7.15-4.89-10.84-3.07-12,.52-.32,5.39-1,10.83-1.52s11.06-1.39,12.48-1.92,5.65-3.64,9.42-6.87a85.84,85.84,0,0,1,9.2-7.16A7.48,7.48,0,0,1,795.15,389.74ZM604.09,417.52c-2.42,0-4.88,10.37-2.93,12.33,2.16,2.16,4.33-2.06,4.33-8.4C605.49,418.74,605.06,417.52,604.09,417.52Zm93,24.46c3.6-.1,6.08,1.94,6.9,5.79a78.86,78.86,0,0,0,4.23,11c1.94,4.27,3.22,8.07,2.85,8.44s-6,.87-12.43,1.1c-9.13.32-12,.11-12.82-.95-1.62-2.07-3.7-13.4-3-16.26.77-3.08,7.82-8.08,12.64-9A10.44,10.44,0,0,1,697.13,442Zm-448,.86c-.35,0-.67.37-1.22,1.12-1.15,1.57-.72,5.46,1.09,9.85.4,1,1.24,1.61,1.86,1.4,1.59-.56,1.3-9.18-.37-11.2C249.85,443.24,249.48,442.85,249.13,442.84ZM259.59,469a.22.22,0,0,0-.13,0c-1.9,1.17-.91,3.95,2.73,7.69s8.3,5.14,8.3,2.6c0-1.69-9.29-10.42-10.9-10.33Zm479.16,4c.14-.08,17.23.3,38,.85,28.11.73,36,1.52,36,1.52,1.1,1.11,10.85,19.95,18.12,32.49,3.14,5.41,5.57,10,5.39,10.09s-5.93.77-12.81,1.41c-12.81,1.19-50.85,1.37-56.85.26-3.19-.59-3.91-1.67-15.74-23.54C744.09,483.48,738.62,473.09,738.75,473ZM642,474H687.5c29.34,0,45.75.35,46.23,1s.75,6.18.75,12.51.7,23.57,1.53,38.33c1.42,25.47,1.62,27,4,31.11,1.84,3.14,2.29,4.88,1.69,6.51-.81,2.2-1,2.21-19.77,1.93-10.42-.15-30.87-.18-45.45,0h0c-14.57.12-28.53.46-31,.76l-4.52.53-2.73-6c-3.27-7.13-3.33-8.09-.71-13.22,3.08-6,4.16-17.79,4.32-46.94Zm-6,8,.34,6.49c.18,3.58,0,12.47-.36,19.76l-.68,13.24h-11.4c-6.27,0-11.39-.24-11.39-.54s3-5.36,6.78-11.25,9-14.53,11.75-19.2Zm-354.73,3.15a1.82,1.82,0,0,0-1.68.73c-1.24,1.51,1.32,4.3,5.75,6.27,3.26,1.45,7.84,1.67,8.61.42s-3.7-4.26-9.11-6.37A13.21,13.21,0,0,0,281.26,485.17Zm459.5,5.91h0c.6-.18,2.35,2.74,6.81,10.94,9,16.59,12.58,22.16,14.71,23,.94.36,9.69.92,19.45,1.24l17.75.59,0,5.09c0,9.59,1.85,18.44,4.65,22.66,2.6,3.93,2.62,4.11,1,7.48l-1.66,3.46h-56v-3.25a14.83,14.83,0,0,0-2-6.45c-1.7-2.79-2.15-6.9-3.5-31.79-.85-15.72-1.53-30-1.53-31.8,0-.68.07-1.08.26-1.15ZM333,498.59c1.74,0,3.68,0,5.76.1,13.73.42,14.9.61,20.28,3.38,6.47,3.34,9.42,7.62,9.42,13.69v3.78l-3.75-.6c-3.15-.5-4.13-.2-6.12,1.92-3.54,3.78-4.62,10.14-1.6,14.58,1.41,2.07,2.4,3.25,4,3.6l4.42,1-1.84,4.08c-2.2,4.9-13,13.46-20.66,16.35a65.08,65.08,0,0,1-9,2.65l-3.91.74,3.34-3.81c6.33-7.21,9.49-18.13,9-31-.25-6.3-.64-8-1.82-8s-1.66,1.91-2.19,8.39c-1,11.78-4.07,21.28-8.52,26.21-6.55,7.26-7.33,6.82-4.1-2.29,6.59-18.64,7.4-37.12,2.08-47.75-1.52-3.05-2.94-5.94-3.15-6.42s3.21-.59,8.42-.56Zm-17.52,3.93a8.7,8.7,0,0,1,3.78,1.57l2.26,1.59L318.64,509c-5.2,5.93-8.81,21.58-7.86,34.13.6,8,2.41,12.88,4.73,12.88,1.25,0,1.44-1.84,1.15-11.49-.37-12.92,1.3-23.11,4.94-30.14l2.26-4.36.9,4c2.09,9.23-1.31,31.77-6.37,42.22-2.54,5.25-4.85,5.52-8.33,1-5.14-6.75-7.19-17.23-5.58-28.58C306.32,515.65,311.87,502.55,315.52,502.52Zm-70,12.19c-2.77-1.32-13.69,2.46-15.53,2.83-7.38,1.5-12.53,6-12.53,10.91a14.58,14.58,0,0,0,12,14.54c.56.12,4.81.63,5.48.91-.9-2.35-2-3.95-2.53-5.39-5.59-.43-8.94-6.39-8.94-9.09,0-2.24.77-3.41,3.25-4.93.45-.27,6-1.86,7.51-2.62a123.69,123.69,0,0,0,11.55-7Zm431,19.83a113.44,113.44,0,0,0-13.89,1c-8.63,1.12-11.32,2.62-8.46,4.73,1.16.85,3.31,1.17,5.84.85,2.2-.27,10.19-.52,17.75-.55,13-.05,13.75-.17,13.75-2,0-2.62-6-4.06-15-4Zm-16.21,14.28a12.91,12.91,0,0,0-3.4.31c-3.1.78-3.2,4.07-.15,4.73,2.51.53,11.66-.16,13-1,2.54-1.57-4.07-3.93-9.44-4ZM312.88,566.61a14.68,14.68,0,0,1,1.74.28,36.71,36.71,0,0,0,5.86.63c2.38,0,2.67.32,2.25,2.5s-.91,2.49-5.85,2.49c-5.36,0-5.39,0-5.39-3.12C311.5,567.17,311.58,566.54,312.88,566.61Zm20.11.91c4.48,0,4.5,0,4.5,3.49,0,1.93-.33,3.43-.75,3.33s-2.7-.35-5.09-.56c-3.92-.35-4.3-.61-3.77-2.58a18.26,18.26,0,0,0,.6-2.94C328.49,567.85,330.52,567.52,333,567.52Zm422.67,4.05c52.59,0,54.58.24,57.3,1.92,6.77,4.19,6.07,10.18-1.65,14.12-4.2,2.15-6.78,2.47-38.31,4.87-7.7.59-19.62.95-26.5.81s-36-.37-64.6-.52c-51.47-.27-52.13-.29-54-2.36-2.48-2.74-2.37-9.55.24-14l2-3.36,9.95-.69c5.47-.37,45.89-.71,89.83-.74,9.73,0,18.27,0,25.78,0Zm-446.91,7.07h0c13.15.1,26.66,1,34.94,2.79,8.81,1.89,24.77,6.93,29,9.17,1.53.81,1.56,1.23.23,4.4-6.32,15.12-11.44,64.78-9.54,92.58,1.14,16.78,2.39,22.91,4.66,22.91,1.16,0,1.37-1.1,1-5.25-1.34-14.71-1.42-19.92-.57-39.75,1-23,2.58-36.75,6.66-57.5,2.66-13.52,3.55-15.73,5.54-13.74.88.88.51,5.08-1.52,17.45-6.27,38.17-8,64.66-5.71,87.29,3.67,36.17,14.54,66.71,28.84,81,12.9,12.91,26.9,20.42,46.62,25,7.4,1.72,44.45,2,64,.43,14.64-1.15,20.34-3.19,27-9.65,4.77-4.63,12.22-15.91,14.63-22.18,1-2.54,3.35-8.54,5.28-13.34,5.9-14.65,7.79-23.63,8.4-39.89.64-17.53-.86-26-6.73-37.65-2.12-4.21-3.63-8-3.36-8.44s6.65-.82,14.18-.82S591.39,673,598,672.4s24.34-1.19,39.42-1.37l27.41-.32,4.83,3.81a125.32,125.32,0,0,0,11.08,7.55c13.15,7.87,22.69,14.61,26.5,18.75,4.39,4.77,9.81,13.44,8.94,14.32-.31.31-4.31.78-8.88,1.05l-8.3.49-8-7.22c-9.75-8.81-12.3-10.57-13.52-9.35-.5.5-1.22,4.17-1.59,8.14l-.67,7.23H646l-8-7.08c-15.12-13.4-16-13.45-16-.92v8h-2.7c-8.84,0-23.78,5.88-32.42,12.77-9.29,7.39-12.7,18.5-8.52,27.73l1.82,4-4.2,5c-15.41,18.34-21.79,34-18.06,44.39,1.48,4.09,1.47,4.48-.17,5.77-5.19,4.09-5.27,4.1-58.75,5.24v0c-57.74,1.24-70.61,1.24-81.28,0-8.82-1-20-4.78-25.42-8.53-8.86-6.14-22.91-23.69-32.67-40.78-6.85-12-10.42-20.87-14.15-35.13-5.31-20.31-15.55-38.71-25.87-46.46a51.89,51.89,0,0,0-19-8.48c-3.35-.72-3.35-.73-2.69-5.37,1.54-10.86,10-35.45,20-58.4,4.46-10.16,4.95-10.85,9-12.65,6.95-3.07,7.27-8.54.67-11.51-5.35-2.42-14-3.37-21.89-2.42-10.31,1.24-15.24,5.88-12.95,12.19.62,1.73,1.05,7,.95,11.65-.18,8.31-1.57,14.63-10.78,48.85-1.38,5.15-2.51,10.89-2.51,12.75,0,2.79-.38,3.39-2.13,3.39-3.13,0-25.75,5.62-30.28,7.52l-3.9,1.64.6-8.33c1.41-19.43,16.34-80.32,22.83-93.06a15.47,15.47,0,0,1,4.14-5.15c3.8-2.41,20.1-3.61,37-3.46Zm2.65,17.74h0c4.41,0,8.91.46,11.1,1.35l3.25,1.33L322.17,601c-4.19,2.25-6.62,6.39-13.23,22.52-9.19,22.43-15,40.4-16.93,52.25-.55,3.38-.9,3.75-3.65,3.75-3,0-3,0-2.36-4.25.37-2.34,2.85-12.2,5.51-21.92s5.6-22.23,6.53-27.79c1.53-9.17,1.56-12.36.24-24-.22-1.86.41-2.8,2.57-3.85,1.81-.89,6.14-1.32,10.55-1.31Zm332.5,2.12,6.55,0,6.54,0,3,5.07a96.28,96.28,0,0,0,7.71,10.63c3.81,4.52,4.52,5.92,3.71,7.42v0c-.54,1-1.08,1.8-1.2,1.73-3.27-1.77-10.52-3.1-19.52-3.59-10.89-.58-11.32-.69-10.79-2.7.31-1.15,1.33-5.8,2.28-10.34Zm19.36,0h8.12c4.46,0,8.11.2,8.11.46s-1,3.06-2.12,6.25a41.11,41.11,0,0,1-2.87,6.61c-.73.8-5.92-5-9.48-10.58Zm51.25,0c4.11,0,6,.39,6,1.24,0,.69,3.91,6.65,8.69,13.25s11.43,16.06,14.81,21l6.14,9-3.8,8.49c-2.09,4.67-3.61,8.05-3.64,8.67s-1.43,1.41-3.14,1.75c-4.19.84-28.56,1.75-29.4.91-.37-.37-.67-4.87-.67-10s-.5-18.35-1.1-29.37-.82-21.14-.48-22.5C708.49,598.7,709,598.52,714.51,598.52Zm-28.51,0h7.74c7.2,0,7.75.15,7.75,2.09,0,1.15.7,15.6,1.55,32.12s1.26,30.31.92,30.65h0c-.34.34-7.4.79-15.69,1l-15.07.37,2.17-3c6.79-9.54,8.12-20.79,3.53-30l-2.59-5.2,4.84-14Zm63.9.5c15.32,0,23.2.34,22.82,1s-1.73,2.8-3.12,5-5.74,10.21-9.65,17.8l-7.12,13.8-2.82-4.3c-1.55-2.37-7.47-10.71-13.16-18.53s-10.35-14.35-10.35-14.5S737,599,749.9,599Zm-76.1,35.92c.24,0,.45.41.73,1.08,1.38,3.34,1.06,12.34-.59,16.28a23.44,23.44,0,0,1-9.65,10.81c-5,2.6-5,2.67,1.1-10.51,2.7-5.82,5.67-12.39,6.61-14.58s1.4-3.13,1.8-3.08Zm15,35.58h15.66v4.85c0,4.75-.08,4.88-4.24,6.68-2.34,1-4.48,1.93-4.76,2.06-.52.24-20.37-11.55-21.61-12.84C673.48,670.85,680.21,670.52,688.83,670.52ZM286,685.75c22.07,0,36.4,9.37,46.47,30.27,6,12.48,9.09,24.61,10.58,41.84l.69,7.84L338.87,762c-9.2-7.07-22.14-11.45-41.2-14-14.42-1.89-18.67-1-38.06,8-7.76,3.59-16.92,7.49-20.36,8.68-6.65,2.29-19.19,3.32-24.25,2-6.81-1.77-14.5-8-14.5-11.65,0-3,4.15-14.88,7.49-21.48,4.2-8.32,8.17-13.76,15.94-21.86,15.78-16.45,33.68-24.46,57.56-25.78,1.55-.09,3.05-.13,4.52-.13Zm418.57,1c3,0,7.65,1.14,9.13,2.47,3,2.75,5.78,8.81,5.78,12.77,0,4.2-1.12,4.54-3.06.92-.77-1.44-4.46-5.46-8.2-8.92s-7.15-5.69-6.65-6a7.39,7.39,0,0,1,3-1.23ZM627.5,706.41l4.5,4.21a44.73,44.73,0,0,1,4.5,4.56c0,.19-2,.34-4.5.34h-4.5v-9.11Zm53.38,2.33,4.31,3.6a39.78,39.78,0,0,1,4.3,3.89c0,.42-5.19.14-7.14-.38-1.15-.31-1.62-1.46-1.56-3.77Zm-49.21,11.65,5.16.62c2.84.34,24.37.7,47.84.81l42.68.19,2.25,7.51a77.09,77.09,0,0,1,2.68,13l.42,5.5-3.36,0c-1.84,0-10.33.39-18.86.83s-15.84.46-16.25.06-.78-2.45-.74-4.52c.06-2.56-2.27-9.43-8.08-9.43l-22.83-.26c-19.48-.23-26.08-.61-26.11-1.5a42.44,42.44,0,0,0-2.41-7Zm-9.6.36a4.43,4.43,0,0,1,2.29.44c4.92,3,8.89,24.29,6.16,32.91-1.77,5.6-5.73,11.07-8.85,12.23-4.69,1.75-5.56,1.82-11.64,1-17.55-2.36-26.54-9.07-26.54-19.82,0-5.18,1.82-8.7,6.85-13.25C597.13,728.14,615,720.82,622.07,720.75Zm113.82,1.55c1.63,0,4.08.06,7.69.22,12.46.56,12.46.56,18.71,11,5.71,9.51,2.38,26.21-6,30.33-2.43,1.18-7.06,2-13.19,2.39l-9.45.56,2.19-4.39c1.89-3.79,2.19-6,2.14-15.9-.06-11.41-.23-12.25-4.83-23C732.76,722.71,733.18,722.35,735.89,722.3ZM369.34,724c-4.95,0,2,26.89,10.93,42.46,11.61,20.19,23.05,32.31,37.8,40.08,10.41,5.47,14.59,2.88,4.59-2.85-21.73-12.44-40-37.88-48.52-67.69-2.22-7.7-3.93-12-4.8-12Zm557.37,1a7.8,7.8,0,0,0-3.21.45c-2.51,1.6-.08,2.63,10.49,4.43,22.45,3.83,43.09,10.52,51.15,16.57,6,4.52,8.36,2.58,3.65-3-3.43-4.08-18.16-11.23-28.64-13.91C950.21,727,933.78,724.92,926.71,725Zm-158.63,2.56c.51,0,1.17,0,2,.11,3.72.3,4,.56,6.34,6.31,3.07,7.51,3.42,18.28.74,23.25-2,3.67-2.18,3.73-5.86,1.73-2.64-1.43-2.65-1.47-1.25-6.11,2.28-7.57,1.59-12.91-3.07-23.68C766.49,728,766.57,727.59,768.08,727.59Zm-47.33,12.26a2.71,2.71,0,0,0-2,.95c-.85.84-1.22,2-.85,2.62,1.18,1.9,4.56,1.28,4.56-.85C722.49,740.89,721.75,739.91,720.75,739.85Zm-14.81.1a2.15,2.15,0,0,0-.77.14,3.2,3.2,0,0,0-1,4.76c1.13,1.13,3,.74,4.38-.88,1.05-1.27,1-1.82-.21-3a3.44,3.44,0,0,0-2.39-1Zm-68.22.07,24,.15c18.88.13,24.2.45,24.87,1.5a22.88,22.88,0,0,1,1.51,6.16c1,7.79,2,8.08,24.42,7.44,17.24-.49,19-.39,19,1.13,0,2.24-2.42,5.56-5.81,8-2.48,1.77-4.84,2-22.23,2.39-10.7.22-31.27.25-45.71.06l-26.26-.35,2.68-5.23c2.05-4,2.79-7.13,3.12-13.23Zm37.19,6a3.78,3.78,0,0,0-1.17.23c-.68.23-1.24,1.52-1.24,2.85,0,1.91.52,2.42,2.49,2.42s2.5-.51,2.5-2.4S676.47,746,674.91,746Zm130,0c-3.76.07-5.82.89-5.24,2.63.21.61,6.46,2.34,13.9,3.84,17.69,3.56,29.76,7.66,44.42,15.1,11.85,6,22.47,13.07,22.47,14.94,0,.53.67,1,1.5,1,2.64,0,1.61-3.88-2.16-8-4.55-5-16.69-12.57-28.7-17.83C835.21,750.67,814.55,745.89,805,746Zm-147.2.62a2.77,2.77,0,0,0-.49,0c-2.56.36-3.64,3.65-1.61,4.94s2.42,1.1,3.84-.61c1.66-2,.61-4.4-1.74-4.37ZM286,752.23c2.85-.07,5.42.42,6,1.36.69,1.12-7.52,32.34-8.62,32.75a41.86,41.86,0,0,0-4.44,2.75,34.42,34.42,0,0,1-3.78,2.37c-1.24-.36-9.34-6.18-13.52-9.71-7.83-6.62-8.71-8.3-7.21-13.67,1.23-4.37,1.33-4.44,11.88-9.16,5.85-2.61,12.44-5.29,14.64-5.94A19.81,19.81,0,0,1,286,752.23Zm12.23,1.51a1.13,1.13,0,0,1,.6.09,44.16,44.16,0,0,0,6,1.22c4.37.65,4.58.83,4,3.33-1.38,5.65-7.54,21.92-10.47,28.11-.64,1.35-2.54,4.09.35,8s3.28,5.29,3.28,10.17c0,6.68-2.05,10.12-8.1,13.58-4.94,2.82-10.32,2.91-13.75.21-3-2.4-5.08-8.88-4.21-13.48.83-4.43,6.08-11.4,9.47-12.58,2.44-.85,3.14-2.09,5.41-9.68,3.55-11.81,6.68-24.56,6.68-27.23C297.49,754.41,297.75,753.82,298.27,753.74Zm17.35,3.79c.65,0,.87.73,5.17,17,3.53,13.32,3.91,15.24,2.89,14.61-.49-.31-4,.77-7.79,2.39-8.23,3.51-9.52,3.62-11.18,1-1.1-1.75-.79-3.27,2.18-10.75,1.9-4.79,4.5-12.19,5.78-16.45s2.61-7.74,2.95-7.74Zm6.47,2.11c1.55-.25,14.72,7.42,16,9.4,2.22,3.39,4.39,16.68,4.39,26.81,0,31.38-10.84,57.53-29.71,71.82-7.37,5.58-14.31,8.33-24.69,9.77-12.13,1.69-26.33.83-41.55-2.51-8.75-1.93-12.54-3.54-20.16-8.59-22.81-15.1-31.9-48.17-23.86-86.82,1.2-5.78,2.32-10.65,2.48-10.83s1.65.37,3.28,1.21c8,4.13,21.55,3.92,34.39-.52,3.28-1.14,6.11-1.9,6.31-1.71s-1,5.52-2.65,11.85c-6.54,25-4.3,54.11,5.36,69.82,3.81,6.21,10,12.23,15.27,14.91,6.05,3.07,16.07,4.07,23.18,2.32,6.85-1.7,17.94-9.46,23.65-16.55s13.1-21.63,15.21-30c3.24-12.86,1.31-35.46-4.42-51.66-1.63-4.59-2.79-8.5-2.59-8.7,0,0,.05-.05.1-.06Zm26.68,3.76,3.94,7.31C363,789.7,376,806.23,387.62,815l6.07,4.56-13.85-.11c-12.17-.09-29.81-2-31.2-3.41-.27-.27-.62-8.7-.78-18.74s-.35-19.59-.42-21.24a49.24,49.24,0,0,1,.6-7.81Zm235.22,1,3.5,2.6c5.49,4.08,13.15,5.91,25,6l10.5,0v9.21c0,14.6,1,14.62,17.62.52,5.84-5,11.59-9.32,12.78-9.69s7.69-.36,14.46,0l12.32.7,0,8.62c0,9.09,1.23,13.13,4.12,13.13.93,0,6.61-5.07,12.62-11.25L707.79,773l20.74-.33,20.73-.32,2.13,3c5.59,7.84,7.84,19.45,5.15,26.53-2.79,7.35-18.82,9.41-90,11.6-18.42.57-38.45,1.48-44.5,2h0c-6,.53-19.1,1.23-29,1.55-16.6.52-18.33.41-22.23-1.44C563.1,812,560.34,803,564.1,793.88c1.77-4.31,12.68-21,17.07-26.18Zm44.5,8.14H643L636,779l0,0c-7.58,7-9.06,7.76-8.13,4.28a32.34,32.34,0,0,0,.62-6.5Zm57.16,1h13l-5,5.75c-9,10.31-8.77,10.27-8.38,1.68Zm-434.52,6.85c.42-.08,2.51,1.55,4.86,3.79a87,87,0,0,0,10.1,8.05c4.91,3.27,5.49,4,4.91,6.25-1.69,6.71-1.55,14.58.32,18.56l1.89,4-5.13,5.5c-2.82,3-7,7.69-9.22,10.36s-4.34,4.48-4.63,4-1.52-4-2.75-7.86c-2.85-9-3.81-29.52-2-42.82.68-5.05,1.4-9.45,1.6-9.79l.06,0Zm71.78,15h0c2.34-.06,2.07,2.31,2,9.1a98.38,98.38,0,0,1-.8,13.25c-.41,2.06-1.06,3.72-1.45,3.72a67.68,67.68,0,0,1-8-4.25c-5.88-3.42-7.16-4.6-6.77-6.22a39.65,39.65,0,0,0,.53-6.5l0-4.5,6.72-2.32c3.9-1.34,6.24-2.25,7.65-2.28Zm-17.8,21.4,3.94,3.31a41.25,41.25,0,0,0,7.76,5c3.18,1.43,3.71,2.1,3.24,4-.81,3.22-6.8,13.23-11.42,19.07a60.36,60.36,0,0,1-8,8.17l-4.08,3.23-.48-2.31c-.27-1.27-1.19-7.7-2-14.31s-1.82-13-2.14-14.12c-.47-1.75.22-2.5,4-4.33a24.65,24.65,0,0,0,6.89-5Zm401.13,1.63h0c.42,0,1.33,2.75,2,6.18s.92,7.23.5,8.44l-.78,2.2-10.62-3-10.63-3-.53-3.67a29.76,29.76,0,0,0-1.22-5.42c-.65-1.6.19-1.75,9.9-1.75,5.83,0,10.94,0,11.35-.06Zm-36.75,1.07c7,0,8.06.24,9.44,2.22,2,2.85,2,8.7,0,11.56a14.45,14.45,0,0,1-4.45,3.72c-4.32,2.24-7.75,1.86-10.56-1.17-3.12-3.37-3.83-6.18-3-11.85l.62-4.2Zm-16.49.2c2.45,0,3.23,0,3.37.14s-.9,7.23-.76,10.22l.25,5.44-8.72,7.05-8.71,7-2-4.58c-1.77-4-3.27-10-5.25-21.13l-.55-3.12,13-.7c3.59-.2,6.9-.33,9.36-.37Zm-374.56,5.63h0c.85.19,3.15.57,5.11.84l3.56.5,1.22,13.16c.67,7.24,1.49,15.07,1.82,17.41l.61,4.25-7.38-.08c-4.07,0-8.73-.55-10.38-1.14-4.19-1.48-10.23-6-13-9.79l-2.35-3.18,9.63-11.15c6-6.93,10.21-11,11.17-10.82Zm407.09,9.47L695.89,838l10.36,3.14-1.85,3.6c-2.35,4.59-9.89,12.14-15.25,15.28a78.87,78.87,0,0,1-7.88,4l-3.71,1.56-.29-11.25L677,843l4.27-4.1Zm-26.18,5.65,3.32,2a14.83,14.83,0,0,0,6.32,2h3l.17,10.89c.16,10.41.07,10.93-2,11.48h0c-7.47,2-19.25-2.14-25.94-9.14l-2.77-2.9,4.77-4c2.63-2.17,6.65-5.41,8.95-7.2Zm191.12,7.1a37.6,37.6,0,0,0-16.14,3.71c-8.68,4.27-12.4,8.31-12,13,.19,2,2.18,1.44,4.27-1.22,1.07-1.36,5.32-4.14,9.43-6.17,6.56-3.24,8.37-3.7,14.7-3.67,7.72,0,13.56,1.86,17.43,5.5,2.06,1.93,2.29,2,2.9.38,1.06-2.75-2.77-6.85-8.7-9.36a30.65,30.65,0,0,0-11.93-2.16Zm62.94,5.88a8.63,8.63,0,0,0-5.39,1.42c-2.69,2-1.33,4.89,1.9,4.07,4-1,12.27,2.31,15.35,6.17s5.22,4.4,5.22,1.31C930.49,860,920.79,853.64,913.41,853.45Z" class="cls-6" id="path1729"></path><path d="M387,375a7.55,7.55,0,0,1-7.55,7.55h0A7.55,7.55,0,1,1,387,375Z" class="cls-7" id="path7004-5-5-1-7-6-7-12-0-1-2-6-1"></path><path d="M391.52,394.58s4.93,11.83-1.8,17.23-16.57,4.74-17.9.19,10.33-3.88,14.21-10.32,5.49-7.1,5.49-7.1Z" class="cls-8" id="path2826"></path><path d="M379.89,267.3c-7.42-.08-14.81.63-19.47,2.1-8,2.54-18,7.45-22.54,14.28,0,0-6.91,6-12.24,18.56-2.74,6.45-5.15,14.26-5.15,21,0,3.73-.63,7.58-1.52,9.3-3.51,6.8-2.66,17.73,1.56,20,1.55.82,1.88,2.13,1.85,7.24-.15,20.47,13.55,26.33,14.54,26.71a17.61,17.61,0,0,0,5.12,1c1.84,0,2.92,1,4.54,4.25a56.86,56.86,0,0,0,6,8.86c3.79,4.56,3.81,4.63,2.43,8.5-4,11.26.08,24.9,8.52,28.39l3,1.26-3.27,2.41C359,444.3,354,450.73,350.75,457c-1.95,3.83-13.38,34.25-13.38,35.6,2.16,0,4.93.48,6.09.4.12-2.49,10-28.62,12.18-32.33,1.22-2,4.45-6.52,7.19-10l5-6.34,2.43,3.11a19.74,19.74,0,0,0,5.21,4.54c2.07,1.07,2.94,2.42,3.4,5.32,1.21,7.57,13.8,18.16,21.65,18.19,1.88,0,3.22,1.17,5.47,4.73A175.16,175.16,0,0,0,417.73,495c9.64,11,15.82,21.64,14.13,24.32s-2.82,2.41-4.67-.73c-2.33-3.94-7.09-7.22-12.47-8.58-4.08-1-4.54-1.5-6.7-6.81-3.35-8.24-4.83-10.12-11.58-14.71-7.68-5.21-12.87-7.44-14.21-6.1-1.69,1.69-.13,3.75,5.18,6.81l5.08,2.93-4,3.89c-3.68,3.59-6.51,9.4-9.75,20a15.41,15.41,0,0,0-.68,5l3.42,1c-4.1,9.51-.83,16-4,21.06-.85,3.21-9.06,13-13.05,15a14.58,14.58,0,0,1-5.6,1.47c-1.14,0-2-.48-1.87-1a68,68,0,0,1-8.43,5.35,20,20,0,0,1,4.68.72c5.54,1.24,9.38.57,14.94-2.63,4.09-2.35,10.35-9.64,10.35-12a5.24,5.24,0,0,1,1.58-2.81c.54-.55.95-.85,1.46-.8.86.09,2,1.15,4.5,3.72,5.45,5.61,10.36,6.37,15.73,2.45,1.52-1.12,3.19-1.77,3.71-1.45,2.35,1.45,14.17.63,17.75-1.23l3.69-1.91,8.54,3.45c4.69,1.9,8.69,3.59,8.87,3.75s-2,3.75-4.85,8c-8,11.84-10.33,17.61-9.65,23.82.31,2.83.81,6.28,1.1,7.65.46,2.13-.47,3.36-6.3,8.27-3.75,3.16-13.17,11.84-20.92,19.28-11.86,11.38-14.4,14.35-16,18.73-1.95,5.22-5.17,20.07-7.19,33.14-1,6.55-2.22,8.4-3,12.23a64.54,64.54,0,0,0,1.19,21.6l2.64,10.58L382.88,700c1.59-18.48,6-44.13,9.69-56,2-6.34,2.14-6.55,18.7-21.28,14.84-13.19,30.57-26.72,44.23-38L460,581l4.62,2.22c9.68,4.65,23.77,5.41,40.44,2.18A208.74,208.74,0,0,1,533,582.58c14.45-.6,17.74-1,22-2.92a34.81,34.81,0,0,0,6.65-3.74,1.42,1.42,0,0,1,1.06-.52c1.06.12,2.35,2.51,6.19,10.31,9.48,19.21,12.16,35,7.57,44.45-6.23,12.85-33.77,28.11-60.94,33.75-15,3.11-23,5.49-23,6.82a3.63,3.63,0,0,0,1.48,2.18c3.38,2.55,2.89,44.39-.82,70.11-1.13,7.86-1.21,8-4.94,9.85a25.82,25.82,0,0,1-20.52.63c-7.7-3.31-9.76-6.27-10.57-15.19-.37-4.08-2.24-18.18-4.17-31.35s-3.77-29.35-4.11-36c-.84-16.34.37-20.27,9.69-31.49,14.24-17.15,37.51-40.89,46.47-47.4,1.95-1.42,2-1.48.08-2.2-5.3-2-24.6,14.51-44.55,38.23-11.5,13.69-15.7,20.37-16.52,26.28-.66,4.82-.74,4.91-5.23,6-5.12,1.29-12.42,4.76-13.47,6.4-.91,1.41,1.1,3.82,2.47,3,.63-.38.83-.07.5.77C420.12,691.25,414,706,406.53,722.39c-7.17,15.92-11.8,26.53-13.9,32.68l2.16,4.75c.48-.65,1-1.45,1.65-2.47,4.45-7,19.37-41.16,30.15-67.83,7.24-17.93,9.16-21.79,11.54-23.24a14.78,14.78,0,0,1,3.54-1.75c.37,0,1,3,1.31,6.74,1.62,17,9.44,69.46,11.54,77.3a12.36,12.36,0,0,0,4.94,6.5c4.81,3.56,5.13,6.22,1.52,12.55-1.38,2.42-3.05,5.61-3.69,7.09-.79,1.79-2.69,3.27-5.64,4.39-6,2.3-12.79,10-14.15,13.32a21.57,21.57,0,0,0-.75,3.08,23.82,23.82,0,0,0,6.54,1.78c-3-1.47-2-3.35,2.54-7.49a25.66,25.66,0,0,1,18.23-7,29.11,29.11,0,0,1,3.06.17,54,54,0,0,1,7.9,1.24c1.88.72,9.24,14.35,9,16.12.22,0,2.13,0,4.3,0a6,6,0,0,0-.34-3.17c-1.12-4.2-5.93-14.3-9.79-16.68-1.57-1-5.77-2.32-9.32-3-4.57-.86-6.15-1.53-5.4-2.28s2.55-.69,6.14.23c2.78.71,5.32,1,5.63.74,1.29-1.3-.93-3.86-4.9-5.64-4.4-2-4-2.66,1.72-3.22,4.05-.4,3.9-3-.25-4.25-5-1.47-3.88-2.48,2.5-2.25a49,49,0,0,0,9.25-.53l3.5-.74L490.94,776c3.23,13.51,3.77,17.13,3,20.23a7.35,7.35,0,0,1-2.41,4.08c2.43.09,4.43.06,6.59,0,.37-.41,4.17-2.44,1.34-13a21.22,21.22,0,0,1-.85-3.53c-.54-2.06-2.31-8.73-3.93-14.84l-2.94-11.09,3.34-2.67c2.45-1.95,3.32-3.4,3.21-5.41-.07-1.5.67-8.59,1.66-15.73,1.88-13.75,2.4-49.16.83-57l-.8-4,8.78-2.1c4.5-1.09,21-5.33,21-5.33h0a73.72,73.72,0,0,1,6.92-2.58c14.57-4.78,29.67-12.52,36.82-18.87,6.68-5.93,11-11.87,11.27-15.52a3.21,3.21,0,0,1,.14-.78h0l.6-7.1,0-3.35c0-9.72-6.8-28.27-14.47-39.73l-5.41-8.1,2.69-.55a77.18,77.18,0,0,0,19.57-6.77c6.87-3.63,19.39-15,22.12-20,1.72-3.18,1.76-3.82.47-6.24-.79-1.48-4.66-5.08-8.6-8a85.2,85.2,0,0,1-17.68-16.65c-4.13-5-9.55-7.75-15.45-7.78-4.3,0-17.75-5.9-26-14.27-4.72-4.79-5.53-6.34-9.73-18.72-9.39-27.63-20.74-46.25-32.06-52.58A86.51,86.51,0,0,0,477,409.14l-6-1.28,5-.7c3.68-.52,7.05-.17,12.71,1.33,21.52,5.7,44.85,4.32,53.38-3.17,5.89-5.17,7.81-10,7.87-19.79,0-9.22-2.65-19-5.25-19-.77,0-6,1.55-11.55,3.45a86.39,86.39,0,0,1-27.22,5l-4.33.07c-2.83,0-5.88-.07-9.22-.2-14.27-.58-14.68-.54-20.4,2.08-6.2,2.84-12.29,7.41-18.58,14-2.68,2.79-4,3.57-4.27,2.58-2.69-8.62-4.61-12.62-7.4-15.5-1.83-1.88-4-3.42-4.78-3.42-1.83,0-1.87-1.41-.08-2.9s6.25-11.53,8.08-18.58c2-7.58,2-26.35.12-35.33-.79-3.68-1.7-8.35-2-10.37-.9-5.56-6.94-16.85-11.23-21-7.63-7.4-21.31-14-35.8-17.37a79.33,79.33,0,0,0-16.11-1.66Zm-.51,5.37a74.85,74.85,0,0,1,22.18,3.76c15.26,4.89,26.88,13,32.64,22.85,3.63,6.18,6.57,21.48,6.69,34.74.1,12.18-1.19,18.86-5.45,28a53.21,53.21,0,0,1-4.72,8.38l-1.94,2.39-.62-2.46a6.54,6.54,0,0,0-3.33-3.7c-9.21-4.2-15.71-14.19-16.81-25.86-.36-3.71-.88-8-1.16-9.5-.69-3.63-5.57-8.42-9.46-9.27a11.85,11.85,0,0,1-4.95-2.53c-2.9-2.89-9-4-21.72-4.05-17.29,0-28.75,2.24-43.62,8.61-1.75.75-1.83.46-1.15-4.09,1.76-11.73,9.94-27,18.7-34.87C353.9,276.75,365.91,272.55,379.38,272.67ZM365.7,321.74c8.57,0,17.84.48,18.62,1.29,1.13,1.17-8.81,9.23-16.11,13.06-4.19,2.21-12,4.91-20,6.93-7.25,1.82-15.74,3.62-18.88,4-5.48.68-5.72.61-6.32-1.77-.75-3,.81-9.12,3.38-13.3,1.56-2.53,3.37-3.5,10.77-5.77A140.75,140.75,0,0,1,353,322.36,99.17,99.17,0,0,1,365.7,321.74ZM395,327.41c.74-.06,1.85.6,3.44,1.89,1.8,1.46,2.38,3.41,3.17,10.75,1.53,14.19,6.9,24.17,15.75,29.23,2.64,1.51,4.58,3.29,4.35,4-.62,1.83-3.13,1.52-8.75-1.11s-11.45-8.53-13.36-13.65c-.72-1.92-1.67-4.19-2.11-5.05-1.14-2.19-2.77-11.22-3.48-19.19C393.63,329.62,393.81,327.51,395,327.41Zm-6.55,2,0,7.31a62.66,62.66,0,0,0,2.58,18.06c.42,1.38-.06,1.75-2.3,1.75-1.92,0-4.76-1.59-8.79-4.91-3.48-3.07-6.84-4-10.07-2.5-4.73,2.16-8.92,3.06-12.9,1.25-3.43-1.57-3.2-2.5.79-3.24,5.44-1,18.76-8,24.92-13Zm39.63,4.06c-2.2.07-4.74,1.18-7.23,3.47-4.5,4.11-5,8.27-1.38,12.09a7.2,7.2,0,0,0,5.91,2.46c5.71-.05,9.08-3.83,9.08-10.18C434.5,336.16,431.78,333.36,428.12,333.46Zm-1.5,6.05h0c1.91,0,2.36,1.57,1.27,4.42-.77,2-4.27,2.06-5,.06s1.37-4.48,3.77-4.48Zm-81.81,11c1.88,0,3.9.52,4.75,1.55,2.16,2.6,8.63,5.43,12.44,5.43a19.68,19.68,0,0,0,7.44-2c3.56-1.81,4-1.84,5.21-.33,3.1,3.79,10.2,7.3,14.79,7.33,4.23,0,4.73.31,7.06,4.08a34.75,34.75,0,0,0,7.25,7.68c2.61,2,4.77,4.32,4.77,5.17,0,2.09,2.93,5.72,6.38,8l2.84,1.86-2.37,1.24a132.57,132.57,0,0,0-10.85,7.86c-11.62,9-15.23,11.65-18.62,13.36-4.14,2.08-7.6,2.68-9.91,1.72l-2-.84,2-.07c7-.27,18.29-14,16.13-19.59-.89-2.33-3.12-.73-7.16,5.14-4.3,6.23-7.68,8.38-13.17,8.38-6.31,0-13.81-6.08-18.07-14.61-5.67-11.34-13.87-39.36-11.88-40.62a6,6,0,0,1,3-.74Zm-12,2c3.4,0,3.41,0,4.1,5.75a143.52,143.52,0,0,0,2.93,14.5c1.23,4.81,1.95,8.75,1.59,8.75-2,0-7.76-5.14-9.7-8.65-2.52-4.57-4.29-15-3.1-18.23C329.24,353,330.28,352.52,332.83,352.52Zm28.5,20.34a5,5,0,0,0-3.36,1.69c-3.08,2.89-4,5.65-2.43,7.52,3.64,4.39,11.49-.89,9.11-6.12Q363.27,372.92,361.33,372.86Zm181.05,0c.08,0,.12,0,.12,0s.47,2.84,1.06,6c1.34,7.24-.21,15.46-3.67,19.58-4.23,5-10.8,6.57-27.39,6.46-11-.08-15.71-.53-19.5-1.85-10.75-3.75-25.57-1.69-39.4,5.47-3.08,1.59-7.14,3.91-9,5.14-4.66,3.06-3.54,1.21,6.81-11.17,8.73-10.44,15.4-16.17,23.6-20.27,4.9-2.45,5.31-2.49,22.51-2,19.42.59,29.38-.73,39.56-5.24a54.9,54.9,0,0,1,5.32-2.14ZM429.13,379a18.46,18.46,0,0,1,2.07.21c5.07.73,8.39,4.43,11.69,13.08l2.68,7-10.95,14.45C422,430.4,412.26,439.88,403.28,444.3c-11,5.4-23,5.81-27.55.94-3.44-3.7-3.21-5.77.77-7.07,5.84-1.92,4.48-4.06-3-4.72-10.88-1-13.5-4-13.5-15.5,0-4,.25-7.52.56-7.84,1.09-1.08,8.76,2.65,9.25,4.49.26,1,2.05,2.6,4,3.52,7.4,3.53,15.82-.35,37.22-17.15,7.09-5.57,13.95-8.45,20.12-8.45,1.79,0,3.51-.41,3.83-.92,1.16-1.89-2.61-4.08-7-4.08-3.94,0-4.32-.2-3.42-1.75a34.26,34.26,0,0,0,2-4.44c.65-1.84,1.06-2.41,2.68-2.37Zm-12.73,1.23c.41,0,1,.06,1.64.14,1.89.22,3.19.8,2.89,1.29-.81,1.33-4,1.08-5.26-.4C415,380.45,415.15,380.16,416.4,380.19Zm12.72,27.68c-.59,0-3.51,2-6.78,4.65A130.63,130.63,0,0,1,409,421.78c-3.85,2.26-7.17,4.23-7.38,4.38s-.1,1,.22,1.82c.85,2.21,4,1.9,9.61-.94,9-4.56,20.24-16.67,17.76-19.14,0,0,0,0-.08,0h0Zm30.06,5.29h0c1.65,0,3.85.17,7.24.49,9,.85,21,4.22,31.14,8.78,6.06,2.71,12.18,10.76,19.44,25.58,7.4,15.06,11.25,25.68,16.18,44.5,3.49,13.34,3.53,13.76,3.65,35.17.13,24.75.37,24-8.66,27.88-4.4,1.9-7.29,2.28-19.18,2.52-12.14.25-31.22-1-32.3-2-.2-.2.12-1.27.72-2.38,2.94-5.49,0-21.07-5.45-29.38a23,23,0,0,1-2.47-4.31c0-.31,2.14-.44,4.75-.27,4.56.29,4.86.5,7.5,5.31a67.9,67.9,0,0,1,7.4,24.61c.35,3.79.93,6.89,1.29,6.89,2,0,3.06-3.06,3.06-8.65,0-9.32-1.7-15.58-6.07-22.34-3.24-5-3.65-6.18-2.36-6.68,1.52-.58,9.57.06,16.19,1.29,2.45.46,3.25.25,3.25-.85,0-2.59-3.94-5.12-9.79-6.29-5.42-1.08-5.73-1.31-6.29-4.56-.89-5.3-7.47-21-15.12-36.17-5.31-10.52-7.4-13.75-8.87-13.75-1.07,0-1.94.44-1.94,1,0,1.36,5.11,14,9.54,23.53,4.86,10.51,11.68,28.61,11,29.27-.28.28-2.21-1-4.29-2.9s-10.22-8.29-18.08-14.26a286.31,286.31,0,0,1-23.5-20c-8.86-8.81-26.19-28.25-23.5-29.8.41-.24,5.2-4,10.93-9.08,10.72-9.58,20-16.58,27.87-21,2.7-1.51,3.94-2.1,6.69-2.12Zm-49.69,35.42a1.26,1.26,0,0,1,1,.66c.54.93,1.38,4.06,3.07,7.05l3.07,5.45-2.2,2.33A21.7,21.7,0,0,1,409,468c-6.18,2.93-14,1.25-19.81-4.25-2.43-2.3-5.66-7.17-5.66-8.51,0-.23,3.1-.64,6.9-.91a36.2,36.2,0,0,0,13.5-3.58c3.42-1.6,3.9-2.06,4.71-2C408.85,448.68,409.16,448.57,409.49,448.58Zm10.89,17.8,3.81,4.19a38.3,38.3,0,0,1,4.15,5.09c.84,2.23,21.59,19.75,34.36,29,16.12,11.69,16.16,10.63-.53,13.92a108.2,108.2,0,0,1-16.69,1.94h-6.86l-.66-4.38c-1-6.66-5.17-13-17.87-27.13-6.38-7.1-11.59-13.23-11.59-13.63s.95-1,2.11-1.4a23.86,23.86,0,0,0,5.94-4.13Zm-23.16,28.53c1.58-.06,2.78,1.62,4.31,5.18,3.69,8.61,3.65,8.83-1.69,10.26-2.62.7-11.26,1.71-15.63,6.94-1.85,2.22,2-6.18,2.52-8,1.5-5.6,2.81-8.14,5.77-11.15C394.52,496.05,396,495,397.22,494.91Zm143.58,2c.17-.18,2.63,1.42,5.45,3.54,7.37,5.54,12.93,8,21.73,9.5l7.73,1.34,7.46,8.12a110.64,110.64,0,0,0,14.9,13.25c4.08,2.82,7.43,5.31,7.43,5.53a33.36,33.36,0,0,1-2.5,4.35c-5,8-18.77,16.44-31.59,19.46-9.59,2.27-28.13,1.62-35.88-1.25l-2.32-.86,3.12-2.22c3.85-2.75,4.72-5.84,6.21-22.12a122.24,122.24,0,0,0-1.13-33.42c-.5-2.7-.78-5.05-.61-5.22Zm-272,8.56c-6.72,0-15.58,2.41-24.77,6.94-10.48,5.18-12.86,11-13.57,12.27s-1,4.66-.72,8,5.12,12.77,6.29,13.85c2.84,2.63,3.33,2.74,9.06,2a45,45,0,0,0,10.5-2.72c4.32-1.9,4.5-1.91,6.39-.11a17.62,17.62,0,0,0,5.88,3c3.48,1,4.4.94,7.82-.94l3.87-2.12,7.91,3.43a82.7,82.7,0,0,0,10.92,4,5.73,5.73,0,0,1,2.5,1.11.13.13,0,0,0,0-.09,19.06,19.06,0,0,1-2.78-5.76,3.17,3.17,0,0,1-1.07-.72,57.06,57.06,0,0,0-7.69-3.72c-5.74-2.45-7.89-4.34-6.3-5,0,0,1.58-9-.46-22.53,0-2.66-3.51-8.11-6.09-9.44a16.78,16.78,0,0,0-7.65-1.53Zm.84,5.41c3.44.1,5.31,1.42,6.49,4.23,1.75,4.19,1.79,15.3.08,21.93-1.12,4.34-1.66,5-4.07,5.33a11.31,11.31,0,0,1-4.32-.27c-1.39-.53-1.38-.79.08-2.41,2.65-2.92,1.54-13.65-1.41-13.65-1.06,0-1.45,1.23-1.45,4.5V535l-8.5,4.19c-9.51,4.67-15.17,6.06-16.74,4.09-4.56-5.71-5.83-14.45-2.77-19.11,3.18-4.85,15.07-10.49,26.87-12.73a27.47,27.47,0,0,1,5.75-.6Zm140,5.24a17.21,17.21,0,0,1,10.85,4c5.79,6.21,7.34,17.74,3.07,22.89-2.06,2.48-7.85,3.78-13.61,3.06-7.45-.93-10.35-4.13-11.37-12.53-.78-6.49-3.27-6.1-4.42.69-.76,4.44-.58,5.78,1.25,9.28A35.08,35.08,0,0,1,397.5,548c0,.27-1.12.48-2.48.48-1.79,0-3.61-1.43-6.5-5.09-3.9-4.94-4-5.25-3.39-10.75,1.21-10.71,2.19-12.43,8.37-14.57a46,46,0,0,1,14.31-2c.61,0,1.2,0,1.79,0Zm54.52,6.82c4.56-.1,11.53,23.84,8.77,31-.33.87-1.12,1.53-1.75,1.47-5.66-.53-28.52-7-34.64-9.81l-4.5-2.06,5,.42c2.75.23,6.4.72,8.1,1.08,2.58.55,3.72.14,6.63-2.42,4.49-4,6.15-8,5.52-13.52-.46-4.09-.31-4.42,2.13-4.91a32,32,0,0,0,4.31-1.19A1.57,1.57,0,0,1,464.12,522.91ZM431,525.51h5.35c4.73,0,5.27.21,4.61,1.75a50.93,50.93,0,0,0-1.81,6.5c-1,4.47-1.24,4.75-4.27,4.75h-3.22l-.33-6.5Zm18.67,1.17c.44.08.85.51,1.44,1.31,1.89,2.59,1.76,3.68-.86,7.55s-4.51,4.77-5.38,2.48,1.22-8.92,3.24-10.6c.68-.56,1.13-.82,1.56-.74Zm-.23,29.92a12,12,0,0,1,2.75.64c2.6.87,2.86,1.45,3.57,7.79,1.12,10,.11,12.09-9.55,19.68-11.8,9.29-11,9.2-10.56,1.14.36-6.39.88-7.76,6.81-17.88,3.52-6,6.52-11.11,6.66-11.31,0,0,.15-.07.32-.06Zm11.69,3a8,8,0,0,1,1.95.27c13.56,2.95,23.86,3.95,43.42,4.21,18.54.24,22.46.57,28.5,2.41a93.09,93.09,0,0,0,16.5,2.84c9.33.71,9.45.75,7,2.41-4.65,3.15-13.8,4.79-26.44,4.75a121.41,121.41,0,0,0-25.44,2.5c-18.44,3.51-30.51,3.12-40.5-1.3l-4.62-2v-6.48a37.63,37.63,0,0,0-.66-8.2C460.48,560,460.48,559.62,461.13,559.58ZM634.39,881.79l-19.66.72H344.51v0l-22.25,0s-81.29-.19-109.66-.1l-42.39.12v0H165v0l-44,.13c-24.2.08-53,.42-64,.75L37,884s-4.42.81-4.42,2.5S37,889,37,889l322,.5v0c438.24.68,685.47.27,687.17-1.14s1.68-2.37-.24-4.29c-1.37-1.36-5.9-1.57-34.5-1.57-18,0-32.65-.16-32.9-.37L973.8,882l-117.4.25L739,882.52H692.63l-29.82-.14c-16.36-.08-23.72-.12-28.42-.59Z" class="cls-9" id="path1439"></path></svg>