<svg viewBox="0 0 1080 1080" xmlns="http://www.w3.org/2000/svg" id="payment_is_successful"><defs><style>.cls-1{fill:#f9f1cb;}.cls-2{fill:#e8a1a4;}.cls-3{fill:#9a702d;}.cls-4{fill:#f37a81;}.cls-5{fill:#c0a9d1;}.cls-6{fill:#aac3da;}.cls-7{fill:#efca87;}.cls-8{fill:#483613;}</style></defs><title>payment is successful</title><path d="M315.52,489s16.6,15.54,13.39,55.71-14.47,160.19,4.82,192.86,78.75,2.14,82.5,17.14,19.29,24.65,45,22,23.95-24.09,23.95-24.09-9.89,8.69-13.3,7.35-11.19-12.32-13.66-10.52-13.53,12.46-15.61,6.44-1.6-41.38-1.6-41.38l-46.51.24s-26.62,8.12-37.47-13-12.45-44.06-12.19-56,1.48-93.48,1.48-93.48.8-45.67-.81-55.58-30-7.64-30-7.64Z" class="cls-1" id="path2582"></path><path d="M677.17,304.42a7.54,7.54,0,0,1-7.55,7.54h0a7.55,7.55,0,1,1,7.55-7.54Z" class="cls-2" id="path7004-5-5-1-7-6-7-12-0-1-2-5-0-8-0"></path><path d="M488.28,273.34c1.07,3.22,16.06,21.77,1.61,45.54s-39.83,64-60.8,74.46-29.2,7.5-56.79-11.78-23-39.1-20.09-42.59,42.05,28.93,43.93,30.27,12.05,13.13,32.14-6.43,55.72-73.93,60-89.47Z" class="cls-1" id="path2584"></path><path d="M558.56,600.37S544.26,745,526.05,779.86s-54.65,12.32-68.57,35.36-63.22,28.39-78.75,11.25-92.14-32.68-112-7.5,13.13,33.21,13.13,33.21H521S560.6,854.06,561.4,823,558.56,600.37,558.56,600.37Z" class="cls-1" id="path2586"></path><path d="M666.27,271.47s15.47,12,19.92,11.86-7.76-11.08-7-15.16,8.43-6.43,8.8-10.6-.75-7-3.88-9.66-6.91-6.15-8.62-4.73-5.3,10.79-6.44,14.58S666.27,271.47,666.27,271.47Z" class="cls-3" id="path2745"></path><path d="M696.8,265c-2.18,2.75-6.72,9.38,1.42,7.2s10.32-4.73,8.72-6.53S696.8,265,696.8,265Z" class="cls-3" id="path2747"></path><path d="M660.92,343.66s-27.46,32.81-31.21,52.76,28.79,69.51,28.79,69.51,12.86-3.88,13.8.14-12,6.29-19.82,20.22-38,44.6-45,50.76-16.2,9.77-15.81,15.4,8.71,26,24.38,19.15,47.41-36.29,51.7-40.71,21-30.67,21.43-47.95-1.07-42.59-2.15-46.61-6-18.75-2.94-32.54,8.16-23.84-2.28-23.17-17.27,2.94-16.47-7.1,7.77-26.25,7.77-26.25Z" class="cls-4" id="path2785"></path><path d="M679.67,346.07s-5.9,20.76-5.9,26.25-1.74,6.43,3,6.43,15.94-2.41,16.6,5.62-2.67,20-3.21,30.81,8.44,38.57,5.35,54-9.64,37-12.05,41.25-19,26.39-21.43,40.85,3.48,46.34,12.19,57,14.33,12.33,20.62-2.94,22-81.43,22.64-92,2.68-66.83-2.14-96.3-22.9-67.36-23-68-5.22-6.83-5.22-6.83Z" class="cls-4" id="path2787"></path><path d="M729.62,298.66s4.55,9.1,3.62,13S751.72,350,760.83,360a299.1,299.1,0,0,0,25.44,24.64,69.83,69.83,0,0,0,6.7,4.95s.4-35.22-9.91-41.91-25.31-6.17-27.86-8.57.54-7.63,5.36-13.53,3.48-11.25-8.84-16.2a184.23,184.23,0,0,1-22.1-10.72Z" class="cls-4" id="path2789"></path><path d="M713.15,282.59S750.51,251.51,762,247s18.62-9.64,33.08,10,43.66,64.41,49.15,70,11.25,23.7,11.66,17.81-2.28-84.77,5.35-89.33,30.94-3.21,37.37,19.29-5,73.93-12.06,89.46-20.09,20.23-39.51,8.84S799,337.9,799,337.9s22.64,44.46,26.65,51.43,26.25,34.95,33.08,48.61,17.68,34.56,18.08,53,2.55,37.77-9.51,56.78-24.5,27.73-29.86,29.87,2.28-19.42,5.22-34.82,1.48-39.64-1.6-54.51S821,441.56,816.27,434.6s-15.67-14.06-16.07-43.4-1.34-47.94-14.19-51.56-28.13-1.34-28.13-1.34-5,.9-1.42-4.12,12.69-16.1,12.41-22.25S745,292.42,734.78,291s-18.07-.62-21.63-8.41Z" class="cls-4" id="path2791"></path><path d="M821,497.73s-6.24,18.18-36,21.78-55.12-7.57-57.2-.94S714.89,572,707.88,596.22s-18.37,38.45-18.18,44.13,2.82,48.84,13.27,53.8,9-11.38,16.47-31.07,36.7-93.48,39.64-100.18,7-21.16,8.31-13.26-4.56,22.77-11.92,45.27S729.75,665.49,724,678.35s-16.08,52.9-19.15,70.71-10.45,49.82-9.65,59.06-3.88,18,7.23,17.42,28.53,1.6,28.53-4-6.16-7.37-.27-23.31,16.87-58,16.87-58,35.36-68.17,36.7-70.58,30.8-56.92,37.9-88.79,10.31-62,5.49-72.06-6.7-11.06-6.7-11.06Z" class="cls-5" id="path2793"></path><path d="M784.13,694S761,730.45,760,734.87s25.71,37.23,37.89,50.62S821.23,806.12,823.5,814s8.58,7.11,15.94-1.33,18.35-19.15,17.95-23.44-8.44-5.63-15.67-11.92-33-37.1-43.39-55.18S784.13,694,784.13,694Z" class="cls-5" id="path2795"></path><path d="M599.44,276.69s1.36,19.72,11.66,19.24,27.85-26.61,31.2-38.25.13-18.89-5.23-20.76-8.57-5-10.17.93-8.71,28.8-27.46,38.84Z" class="cls-6" id="path2797"></path><path d="M644.85,252.85s4.95,18.08-10.05,34.69-21.43,20.09-29.86,21.16-18.89,14.47-13.66,20S609,340.85,624.49,324s33.62-37.5,42.06-58.66,11.78-37.9,10.58-46.07-11.92-20.89-26-5.22S637.08,232,639.36,235.31,647,245.76,644.85,252.85Z" class="cls-6" id="path2799"></path><path d="M282.38,156.54c-24.3,0-42.21.19-43.44.5-10.49,2.66-19.31,12.14-22.3,24-.65,2.56-1.23,63.24-1.61,169.49C214.7,442,214,526.75,213.36,540c-1.25,27.89-1.35,92-.17,108,.44,6.05.4,25-.1,42-.61,20.93-.54,42.2.23,65.5.65,20,.85,48,.47,66.5-.59,28.41-.47,32.9,1.1,40,1.86,8.52,5.36,16.57,8.8,20.25l2.77,3.12h8.65l-4.61-4.82c-4.45-4.65-6.17-7.4-8.54-15.05-1.55-5-1.74-15-2.07-111-.2-58-.65-118.78-1-135-.38-17.44-.17-41.36.52-58.5.71-17.74,1.34-95.4,1.6-200,.25-94,.66-172.91.93-175.25,1-9.31,9.42-20.18,17-22.1,5.58-1.42,19.14-1.53,98.5-.79,149.55,1.41,215.1,2.69,221,4.32,14,3.86,21.47,12,23.9,25.89.57,3.27,1.39,31.26,1.73,62.43l.24,22.14a12.91,12.91,0,0,1,.28-1.85c1.52-6.34,6.17-12.11,6.17-12.11L590,225.42c-.61-32.71-.9-36.65-2.72-41.52a34.07,34.07,0,0,0-15.55-18.13c-10.31-5.49-14.67-6.12-46.14-6.71-15.78-.29-42.86-.86-60.18-1.28s-44.78-.77-61-.8-59.43-.19-96-.37c-9.15,0-18-.07-26.06-.07Zm33.74,20c-3.21,0-8.17.28-17,.8-11.11.67-23.43,1.2-27.38,1.2-9.95,0-20.92,2.44-25.13,5.65a21.52,21.52,0,0,0-5.42,7.11c-1.88,4.26-2,7.25-2.4,56.61-.52,66.21-2.08,148.17-3.49,183.6-.61,15.13-1.21,72.73-1.34,128s-.59,118-1,139.5c-.72,37.22-.55,45.61,2.38,113.67.81,18.81,1,19.91,3.71,25.43,3.54,7.1,8.27,12,14.28,14.79,4.35,2,5.89,2.1,28.59,1.81,13.2-.17,77.33-.63,142.5-1l118.5-.71c8.73,0,18.26-10.74,19.86-16.85,1.2-4.61,1.52-7.59,2.23-118.24l.72-117.81c-2.76-.65-7.19-3.4-7.19-3.4h0l.07,118c.06,104.65-.08,114.66-1.61,118.31-2.73,6.51-7.07,10.19-15,12.74-1.86.6-47.72,1.3-117.56,1.79-63,.44-125.07,1.07-138,1.4-25.64.66-28.84.22-35.45-4.81-4.65-3.56-8.72-12.48-9.15-20.08-.19-3.31-.85-22.68-1.47-43-1.48-48.21.4-327.64,2.54-380.73,1.3-31.9,2-90.35,2-174.77,0-30.49.19-31.69,5.34-36.34,3-2.71,16.11-4.37,44.14-5.57,23.95-1,24.56-1,28.82,1,2.73,1.31,6.24,4.46,9.4,8.4a34.5,34.5,0,0,0,11,9.47c4.63,2.46,5.74,3,16.23,3.6,2.86.16,6.4.33,10.9.54,11.66.54,31.78.85,44.7.67l17.9-.25c14,0,19.85-8.88,23.58-13.47,3.31-4.06,7.14-7.81,8.52-8.35,2.81-1.08,35.85-.31,59.5,1.38,20.94,1.5,26.22,4.09,30.82,15.09,2.36,5.65,2.6,12,3.2,85.77.32,38.23,1.06,77.15,1.66,86.5,1.19,18.69,1.35,115.22.26,152.77l-.69,25.84,5.93.29.91-25.49c1-27.89,1.17-113.17.15-155.91-.4-16.77-1.18-60-1.72-96-.94-62.58-1.51-73.23-4.15-78.25-5.49-10.48-14.14-15.21-30.87-16.92-12.52-1.27-48.31-1.6-63.09-.86-3.56.17-8.58,2.56-10.41,4.53-1.27,1.39-2.7,3-4.08,4.68a83.56,83.56,0,0,1-9.45,9.63c-2.88,2.33-6.33,2.1-9.69,2.25l-38.23-.24L360,200.08c-4.72,0-8.24.69-13.63-2.76a42.6,42.6,0,0,1-8.5-7.49c-5.26-6.45-8-8.76-13.71-11.44a14.9,14.9,0,0,0-8-1.85Zm80.28,1.14c-4.88,0-9.85.22-15.91.65-16.94,1.21-21.08,2.25-19,4.74,1,1.16,7,1.48,32.81,1.72h0c41.67.39,38.57.5,38.93-1.41.49-2.58-4.77-3.82-21.44-5.07-5.7-.42-10.5-.63-15.39-.62Zm.23,58a1.46,1.46,0,0,0-1,.3c-1.23,1.24-1.46,21.9-.27,25,2.16,5.59,3.53,1.37,3.88-12,.29-10.77.11-12.54-1.29-13.08A3.46,3.46,0,0,0,396.63,235.66Zm70.24,4.86c-1.57,0-10.43,13.74-10.43,16.18,0,3.35,2.69,1.87,6.21-3.44C469.26,243.3,470.18,240.52,466.87,240.52ZM332.21,260.35c-.9,0-1.27.61-1.27,1.67,0,1.48,2.75,3.64,10.5,8.25,9.63,5.74,15,7.65,15,5.33,0-1.33-6.44-6.15-14.5-10.85C336.69,261.68,333.7,260.28,332.21,260.35Zm148.25,1.39a11.24,11.24,0,0,0-2.38.19c-4.66.87-14.08,7.25-20.29,13.72-6.53,6.81-24.72,30.23-35.84,46.14-4.7,6.73-10.28,14.24-12.4,16.68l-3.85,4.44-6.38-4.05c-20.88-13.25-26.25-16.5-34.23-20.69-5.28-2.77-10.16-4.64-12.11-4.64-7.07,0-10.86,6.85-8.38,15.14,1.3,4.34,5,8.55,13.06,14.72,2.6,2,11.15,8.84,19,15.19,16,13,21.9,17.16,26.28,18.72,10.27,3.66,19.74-2.27,37.94-23.77,26.06-30.82,47.4-65.7,48.37-79.08.28-3.8,0-7-.82-8.44-1.35-2.53-4.55-4.17-8-4.27Zm.06,7.11a1.57,1.57,0,0,1,.94.18c1.87,1.16,1,7.65-2,14.92-9.18,22-48.5,75.12-62.55,84.43h0c-8.88,5.88-11.55,4.8-36.65-14.86-19.8-15.49-26.35-21.31-28.34-25.17-1.81-3.47-1.82-6.74,0-7.43,2.32-.89,16,6.51,41.27,22.4,4.5,2.81,9.24,5.39,10.54,5.72,5.69,1.43,10.22-3.14,27.29-27.52,12.65-18.06,28.47-37.85,35.18-44,5.15-4.71,11.64-8.54,14.4-8.67Zm103.81,9.85.61,34.92c.4,23.39,4-4.38,6.1-7.36-.57.15-.6-4.11-.6-7.25a45.64,45.64,0,0,1,.23-5.55,10.33,10.33,0,0,1-2.68-3.79c-.91-2-3.74-15.65-3.66-11Zm-275,37.93c-1.76,0-3,.29-3.44,1-1,1.64.93,3.05,6.24,4.5,10.22,2.8,15.22-.37,5.82-3.68a29.36,29.36,0,0,0-8.62-1.8Zm271.19,17.94c3.28-2.63,1.1,8.27,1.51,78.95.36,61.3,1.16,100.26,2.69,124.69,1.59-3,6.29-2.29,6.29-2.29l.14-.35c-1.67-.69-2.22-26.43-3.18-136.8l-.5-56.25c-6.82-2.6-7-7.95-7-7.95Zm-103.46,3.57c-4.77.06-5.11.46-5.11,1.88s.88,2.16,3.5,2.63a133.45,133.45,0,0,0,15.5.5c9.77-.1,12-.4,12-1.59,0-2.1-6.22-3.18-19.5-3.38-2.73,0-4.81-.06-6.39,0ZM459.74,360c-.48,0-.7.42-1,1.12-.75,1.94,3.58,6.15,9.68,9.43,4.18,2.25,4.66,2.32,5.61.79s-4.41-6.22-10.5-9.64c-2.14-1.2-3.2-1.74-3.82-1.7Zm-116,.06a4.67,4.67,0,0,0-2.3,1.63c-3.16,3.35-10.34,18.6-9.63,20.44,1,2.62,2.93,1,6.85-5.68,5.07-8.68,7.34-14.73,6-16.06a1,1,0,0,0-.93-.33Zm66.77,29.46a2.83,2.83,0,0,0-2.5,1.58c-.81,2.14-.77,11.92.07,12.76,2.56,2.56,4.33-1.49,4.33-10,0-3.62-.32-4.37-1.9-4.37ZM314,447.61c-14.41,0-21.51,6.49-21.51,19.7a25.93,25.93,0,0,0,18.3,24.39c2.36.69,10,1.25,17.5,1.28,12.45,0,13.32.17,13.74,2,3.34,14.84,3.9,26.52,2.54,53.5-2.11,42-3.14,97.27-2.11,113.48,2.34,36.87,10.63,51.17,33,57.06,5.68,1.49,10.1,1.64,35.3,1.13l28.81-.58-.7,15.77c-.78,17.84.06,22.61,4.27,24.21,3.07,1.17,9.64-1.52,13.2-5.39l2.38-2.58,5.15,5.45c6.66,7,8.62,7.1,15.87.47l5.45-5,5.48,5.48h0c7.3,7.3,11.27,7.28,15.83-.09l2.22-3.59,4.65,4.58c5.51,5.42,9.09,6,11.74,2,1.54-2.35,1.71-7.48,1.84-54.75.08-28.69-.17-56-.55-60.69-1.63-20.33-8-30.12-22.45-34.56-4-1.23-18.6-3.17-25.25-3.37-1.53,0-1.62-11.22-.3-35,2.42-43.38,2.29-63.73-.49-77.5l-.61-3h10.33c11.86,0,16.63-1.62,23.76-8.06,5.27-4.77,7.07-8.2,7.07-13.57,0-8.58-6.43-17-15.46-20.37-4.64-1.7-10.72-1.84-94-2.12-49-.16-91.75-.29-95-.29Zm9.38,6.19c8.55,0,20.8.23,38.62.59,28.05.57,68.1.77,89,.46,39.62-.6,46.33-.16,53.44,3.51a17.59,17.59,0,0,1,5.84,5.75c4.26,7.3.88,14.23-9.29,19-4.28,2-6.53,2.37-15.75,2.37-8.31,0-10.74-.29-10.74-1.32,0-.74-1.83-3.89-4.06-7l-4.06-5.66h6.43a65.46,65.46,0,0,0,9.64-.64c3.55-.71,5.11-3.07,2.94-4.44-1.68-1.07-39.59-1.15-112.82-.25-46.56.57-54.34.87-54.83,2.14-.71,1.86,2.37,4.19,5.55,4.19,4.25,0,9.07,3.08,12.18,7.77,1.67,2.52,3,4.95,3,5.4,0,1-21.58.94-25-.1-8.82-2.69-13.78-8.51-14.65-17.21-.45-4.53-.16-5.9,1.85-8.86,2.94-4.32,3.87-5.67,22.69-5.72Zm14.06,18.68,59.94.27,59.93.27,3.84,3.1c5.14,4.14,9,12.08,11,22.4,1.41,7.38,1.51,13,.78,42.5-.46,18.7-.85,41.29-.88,50.2l0,16.19-6,.52c-3.31.29-14.33.8-24.5,1.14-21.44.71-26.75,1.52-32.65,5-8.88,5.2-11.38,14.06-10.43,37,.68,16.6-.23,37-2,44s-5.91,15.32-8.81,17.59h0a10,10,0,0,1-5.54,1.84c-3.66-.08-12.77-3-15.33-5-5-3.82-7.74-7-10.3-12-7.63-15-8.83-31.57-7.05-97.18,2.36-86.85,2.34-83.46.68-94.43-1.92-12.68-4.74-21.31-9.2-28.1Zm74.51,14.19c-15.81,0-30.36,1.19-33.53,2.89a3.53,3.53,0,0,0-1.93,2.48c0,1.24,4.26,1.35,30.25.83,28.26-.58,33.75-1.11,33.75-3.27,0-1.9-4.28-2.46-21.72-2.85-2.28-.06-4.56-.08-6.82-.08Zm-40.29,38.17a13.68,13.68,0,0,0-4.52.62c-3.44,1.32-3,3.36.94,4.15A24.14,24.14,0,0,0,378.2,529a2,2,0,0,0,1.25-1.81c0-1.33-4.08-2.3-7.84-2.31Zm29,.69c-7.32.06-8.43.46-8.8,1.43-1.26,3.27,1.33,3.94,17.86,4.59,34.09,1.34,44,.86,44.54-2.15a2.38,2.38,0,0,0-1.49-2.39c-1-.42-14.95-1-31-1.25-10-.17-16.69-.26-21.08-.22Zm-31.44,27.06c-2.79-.06-3.67.29-4,1.23-.66,1.72.74,3.21,3.78,4,2.67.71,10.76-.24,11.95-1.39,1.84-1.78-1.3-3.18-8.22-3.67C371.26,552.67,370.12,552.61,369.19,552.59Zm63.94,1.15q-7,0-15.8.31c-16.09.53-22.31,1.09-23.62,2.1-1.68,1.31-1.66,1.45.23,3s5.78,1.54,32.74,1.21c23.21-.28,31.05-.69,32-1.65,3.28-3.33-5.38-5-25.55-4.93Zm8.6,36.41c-13.25,0-30.48.45-35.17,1.23-7.24,1.22-7.61,1.42-6.72,3.73.6,1.55,3,1.63,28.88,1,15.52-.38,29-.93,30-1.21,2.68-.78,2.08-3.24-1-4.1C456.19,590.37,449.68,590.17,441.73,590.15Zm-67.33.37c-6.51,0-8.66,1.84-5.7,4.89.9.94,3,1.12,7.66.66,7.12-.71,8.09-1.06,8.09-3,0-1.47-4.3-2.57-10.05-2.57ZM589.05,594l-5.68,3.66-1.09.35c-1.2.38,1.3.15.86,1.94-1.32,5.28-1.94,122.85-.83,157.59,1.83,57.38,1.73,92.3-.26,99.5-2.67,9.6-6.58,16.62-12.43,22.25l-5.44,6.59h10.13l3.54-5.66c3.56-5.7,7.89-12.9,10.24-21.68,1.57-5.86,1.7-11.13,1.3-53.5-.25-25.86-.43-83.08-.4-127.17ZM482.94,614.06c10.94.05,13.22.66,18.3,2.25,9.13,2.87,14.38,7.69,16.63,15.26,3.43,11.54,3.86,21.25,3.29,73.29-.31,28-.73,51-.95,51.23s-2.37-1.63-4.79-4.09c-5.12-5.22-7.83-5.63-11.14-1.69-1.28,1.54-3.07,3.9-4,5.25L498.69,758l-5.27-5.75c-6.95-7.58-9.09-7.65-16.63-.51L471.25,757l-2.65-3.14c-1.46-1.72-3.68-4.35-4.92-5.84-2.93-3.49-6.08-2.81-11.93,2.58-4.63,4.27-6.82,4.9-7.52,2.17-.24-1-.06-18.17.41-38.25,1.54-65.55-.72-81.77-13.11-94L425.94,615l25.5-.49c15.27-.29,24.94-.47,31.5-.45ZM415,617.78c1.21,0,2.58.57,5.66,2,8.86,4.06,13.59,11.91,16.21,27,1.07,6.12,1.53,16.81,1.63,37.27.07,15.78,0,28.82-.21,29h0c-.18.16-10.11.62-22.06,1l-21.72.72,3-5.84C403.48,697,403.87,694,404,660c.07-29.6.17-31.18,2.2-35a15.88,15.88,0,0,1,5.55-5.89,8.34,8.34,0,0,1,3.29-1.3Zm-40.53,10.94a3.35,3.35,0,0,0-2.84,1.1c-1,1.21-.94,1.8.36,3.1,2,2,10.73,2.19,12.36.24s-.47-3.37-6.46-4.17a22.15,22.15,0,0,0-3.42-.27Zm110.24,9c-4.81,0-9.93.15-14.85.51-13.64,1-16.18,1.79-15.07,4.67.9,2.3,48.26,2.36,51.22.07,1.87-1.44,1.88-1.55.13-2.91S495.27,637.8,484.7,637.77Zm12.66,24.87c-15.43,0-37.2.87-38.46,1.92-2.34,1.94,0,3.81,5.37,4.23h0c7.88.62,38.29.53,45.17-.14,5.57-.54,6.5-.91,6.5-2.59,0-1.46-1-2.17-4-2.84-1.88-.41-7.58-.59-14.6-.59Zm-33.14,28c-5.17,0-7.14.32-8,1-3.27,2.56-.49,3.77,10.77,4.68,13.32,1.08,39,1.4,43.34.54,2.05-.41,3.12-1.21,3.12-2.35,0-2-5.48-2.6-36-3.59-5.85-.19-10.11-.29-13.22-.28Zm3.71,15.17c-1,0-2.08,1.13-2.28,3.19a5.68,5.68,0,0,1-3.25,4.7c-2.25,1.29-2.95,2.42-2.95,4.72,0,3.53,1.93,5,9.86,7.58,6.4,2.06,5.5,3.08-3.58,4.05-5.23.57-6.28,1-6.28,2.54,0,1.23.94,2.07,2.75,2.47,4.73,1,5.25,1.33,5.25,3a9.54,9.54,0,0,0,1.06,3.6c1.46,2.71,3.94.69,3.94-3.21,0-2.39.69-3.14,4.5-4.82s4.5-2.4,4.5-5c0-3.66-3.12-6.34-9.46-8.11-2.5-.7-4.54-1.65-4.54-2.11s2.26-1.14,5-1.5,5.24-1,5.52-1.47c.65-1.05-3.52-3.93-5.7-3.93-1.12,0-1.82-.95-2-2.75C470,706.74,469,705.78,467.93,705.84Zm33.88,8.07c-2.53,0-5.49.59-7.21,2-1.09.86-1,1.3.5,2.4h0c1.24.91,3.15,1.13,5.84.69,4.82-.8,5.51-1.15,5.51-2.88,0-1.39-2.11-2.12-4.64-2.16ZM497.34,729a15.21,15.21,0,0,0-2.86.18c-3.54.71-5.1,3.07-2.93,4.45h0c1.82,1.15,20.61,1.18,21.33,0,.3-.49,0-1.37-.73-1.95-1.52-1.26-9.77-2.63-14.81-2.7Zm-88,54.59c-12.85.1-23.22,10.06-23.22,23.95,0,10.17,5.52,18.43,14,21,11.62,3.49,24.33-6.11,27.35-20.67,2.15-10.32-2.85-21.06-10.83-23.27a26.73,26.73,0,0,0-7.34-1Zm2.31,7a8.29,8.29,0,0,1,5.17,2c7.69,6,4.48,21.81-5.71,28-4.14,2.52-7.59,2.42-11.74-.35a16.19,16.19,0,0,1-6.89-12.46c0-4.25,2.57-10.56,4.81-11.79,6.83-3.76,11.08-5.46,14.36-5.4ZM149.89,815.55c-1.82,0-3.78,1.1-5.9,3.34-5.76,6.11-10.53,23.57-10.56,38.51V864l-4.09-4.77c-9.46-11-17.46-10.11-17.18,2,.11,4.49,1,7.37,4.46,14.2A107.89,107.89,0,0,1,121,886h10a4.33,4.33,0,0,1-.64-.13c-5.11-1.91-15.27-27.36-11-27.36,1.46,0,15.13,15.18,16.85,18.71s3.25,4.51,5.19,3.32c1-.64,1-1.53,0-4.66-2.06-6.13-1.55-26.15.95-36.63,2.08-8.72,5.42-16.74,7-16.74,2.45,0,7.26,31.92,7.48,49.7l0,13.71h0l5.3,0c1.06,0-1.81-.15-1.81-.26,0-6,6.48-25,9.21-26.71,1.29-.79,1.2,1.69-.68,19.76l-.78,7.27h6l1.05-8.77c.47-4,.85-11,.85-15.58,0-7.09-.29-8.54-1.94-9.75-3-2.17-4.46-1.75-8.6,2.4l-3.81,3.8-.64-8.55c-.82-11-3.23-25.64-4.66-28.41-1.93-3.74-4.05-5.61-6.4-5.62Zm804.83,5.13c-5.3,0-11.35,6-16.24,16.27-3.77,7.9-7,18.85-7,23.57,0,2-.42,1.72-2.85-2.06-5-7.77-9.47-10.27-13.61-7.56-5.54,3.63-5.81,16.17-.58,27.33l2.94,9.22h0l9.15-.39c-1.23-.48-2-4.44-3.49-6.64a44.83,44.83,0,0,1-4.13-8.13c-1.56-4.39-1.93-14.34-.58-15.18.9-.55,3.71,2.3,8.86,9a23.2,23.2,0,0,1,4.21,9.89c.59,3.19,1.58,9.35,2.21,10.1.47.57.53.92,0,1.11l2.41.25h0l.65-14.79c.82-18.63,6.67-35.73,14.19-43,3.29-3.19,3.49-3.24,4.12-1.27s-3.46,35-5.58,44.67c-2.07,9.47.09,11.45,4.26,3.88,3.35-6.1,10.6-13.62,12.74-13.22,2.5.48,2.55,7,.1,14.35l-2.14,9.38h0l6.43-.24h0l1.95-8.05c1.8-7.45,2.77-14.87.1-18.39-1.76-2.34-2.79-2.76-6.67-2.71-3.06,0-5.3.71-6.74,2L957.19,862l.48-3.5c.27-1.92,1.32-9.25,2.34-16.29,1.65-11.44,1.69-13.24.39-17s-1.8-4.24-5.16-4.52a4.35,4.35,0,0,0-.51,0Z" class="cls-7" id="path2837"></path><path d="M1035.33,891c0,11.83-98,22.73-255.8,28.45s-350.6,5.37-503.31-.92S35,901,45.06,889.13L539.81,891Z" class="cls-1" id="path10665"></path><path d="M908.71,192.59c-.76,0-1.65,0-2.74.13-10.07.84-30.15,12.69-39,23l-3.39,3.95L859.05,217c-5.33-3.13-8.51-3-10.44.48-2.09,3.75-.13,9.45,6.32,18.45l5.47,7.61-2.55,1a16.08,16.08,0,0,1-3.3,1c-.42,0-1.68,1-2.8,2.25-4,4.48-6.25,30.14-4.42,51.16.62,7.1,1,13.06.8,13.23-.77.77-29.82-39.2-42.27-58.14-11.9-18.1-18.61-22.19-34.83-21.28-10.56.6-17.93,4-30.84,14.12l-19.48,15.29L711,269.79l-.69-3.36c-1.24-6.08-7.15-8.61-12.79-5.48-2.21,1.22-2.62,1.13-4.25-.94a8.81,8.81,0,0,1-1.81-4.42c0-5.66-6.65-14.06-11.13-14.06-1.84,0-1.91-.43-1.17-6.25a132,132,0,0,0,.8-13.75c0-6.26-.39-8.05-2.33-10.78-9.44-13.22-29-5.16-39,16.05-2.27,4.83-3,5.69-4.71,5.17-9.38-2.9-9.92-2.87-16.36.56-7.13,3.8-19.47,16.15-23.92,23.93l-2.91,5.1s-4.65,5.77-6.17,12.11a12.91,12.91,0,0,0-.28,1.85l0,3.19c.52,4.65,2.75,8.94,3.66,11a76.27,76.27,0,0,0,4.71,8c1.56,2.49,1.54,2.74-.3,4.41-.64.57-7.66,9.95-7.66,9.95l-3.12,6.18c-4.31,8.51-5.39,13.15-2.15,17.82,6.48,9.35,12.25,6.5,12.25,6.5,2.33,0,7.9-1.16,12.39-2.58,6.47-2.06,9.74-3.87,15.91-8.82l7.76-6.22,8.14,6.06c4.47,3.33,9.17,6.75,10.44,7.59l2.31,1.52-3.75,4.48c-4.76,5.69-16.46,23.09-19.48,29-6.59,12.86-9.36,29.48-7,42,1.57,8.28,16.87,36.67,29.18,54.11.94,1.34-.41,3.7-7.69,13.5-16,21.51-23.36,29.45-42.6,45.66h0c-2.31,2-4.43,3.63-5.47,4.35-.35.25-5.56,0-7.14,3,.09,1.55.19,3.06.29,4.51.64,8.94,1.1,8.53-10.76,9.52l-8.14.68h0l-5.93-.29-2.45.62c-5.38,1.35-4.65,7.77,1.48,13.09,3.19,2.78,3.43,3.25,1.64,3.25a73.11,73.11,0,0,0-9.91,2c-15.9,4.07-23.11,9.17-20.64,14.6,1.32,2.91,6.6,5.4,11.43,5.4a7.41,7.41,0,0,1,5.76,2.56,46.54,46.54,0,0,0,6.73,5.42l4.33,2.87h0s4.43,2.75,7.19,3.4c9.71,1.75,16.77-1.66,23.3-6.09l4-4.33c4.46-4.85,11.41-15,11.41-16.61,0-.69,1.86-.89,5.25-.56,4.95.49,5.74.22,13.67-4.57a185.1,185.1,0,0,0,30.3-22.89c3.93-3.68,6.81-5.8,6.39-4.7-1.88,5-2.79,13.75-2.31,22.11,1.08,18.75,14.93,50.49,22.71,52,2.71.54,2.89.91,3.5,7.21,1.14,11.66,5.52,39.28,8,50.52,2.78,12.49,5.4,18.54,9.54,22l2.91,2.45-4.95,19.33c-8.45,33-13.16,59-14.63,80.82-.57,8.49-1.15,11.17-3,14-3.31,5.05-4.87,11.82-3.53,15.25.89,2.25,5.1,5.8,8.32,7,.37.14-.37,3.86-1.66,8.28-3.21,11.05-5.87,28.86-5.19,34.67l.57,4.8H200s-81.73.59-86.94.75c-7.23.22-18.56.41-31.29.49L42,886s-6.56.16-6.56,2.5S42,891,42,891l35.5.53v0c19.53.29,244.4.61,499.72.71,416,.17,464.37,0,465.75-1.35,4.64-4.64,1.73-5.11-36.58-5.89l-35.6-.73h0l-6.44.24H872.22l.7-9.25c.39-5.08,1.54-15.55,2.57-23.25,2.48-18.54,2.76-32.56.69-35.5-2.41-3.45-11-9.53-17-12l-5.46-2.26,3.4-4.73C863.2,789,861.29,784.58,849,779c-3.93-1.79-7.85-4.32-8.71-5.62s-7.09-9.11-13.86-17.36c-16.37-20-21.16-27.54-33.42-52.9l-10.35-21.42L789,668.84c3.48-7.06,8.38-17.79,10.88-23.84s7.9-17.65,12-25.79a226.47,226.47,0,0,0,11.28-26.73l3.82-12h4.59c7.06,0,15.94-5,25-13.95,12.21-12.12,20.17-28,23.44-46.73,4.77-27.41-3.34-59.43-22.29-87.9-6.37-9.58-8.44-12.91-25.66-41.44-12-19.83-22.55-38.35-22.55-39.49,0-.39,2.43,1.52,5.4,4.24,18.88,17.25,36.08,26.37,50.1,26.55,11.76.15,18.72-5,24.91-18.41,4.52-9.78,7.87-22.77,10.56-40.92,2.87-19.39,3.66-36.07,2.08-44.12-1.37-6.95-5.4-17.38-7.75-20-1.35-1.52-1-2.21,3.94-7.19a56.34,56.34,0,0,0,8.8-12.32c2.9-5.86,3.38-7.86,3.42-14.31,0-6-.4-8.25-2.17-11.24-2.17-3.66-2.17-3.76-.27-4.77,2.48-1.33,7-7.92,7-10.22a7.06,7.06,0,0,0-2.12-3.89,5.51,5.51,0,0,0-4.61-1.81Zm-2.31,6.09a5.7,5.7,0,0,1,.74,0c2.29.29,2.25.43-1.67,5.16-2.22,2.67-4,5.34-4,5.94a24.41,24.41,0,0,0,2.12,5.44c4.12,8.52,1.39,19.1-8.26,32-2.16,2.89-4.25,5.23-4.64,5.23a27.88,27.88,0,0,1-5.14-3c-4.26-2.89-12.61-6-16.17-6-2.81,0-17.29-21-15.63-22.62.62-.61,6.54,2.3,8.35,4.1.67.68,4.06,1.79,7.53,2.47a44.72,44.72,0,0,1,9,2.64c2.89,1.5,7.82,7.33,7.82,9.25,0,1.63,2.95,1.45,3.59-.23s-2-8.29-4.38-11-9.09-5.59-13-5.62c-1.79,0-3.25-.43-3.25-.94,0-1.47,8.89-9,16.79-14.17,7.6-5,16.17-8.69,20.17-8.75Zm-241,11.44c5.81-.06,9,4.69,9,13.55-.08,29-23.95,73-54.48,100.31-6.22,5.57-8.73,7.07-15.94,9.57-10.18,3.53-15.72,3.82-18.56,1a7.12,7.12,0,0,1-2-4.25c0-3.34,3.4-10.3,9.14-18.86l5.11-7.61,4.26.48c11.32,1.27,27.11-12.29,37-31.76,4-7.89,8.49-21.74,8.49-26.15,0-2.8-.8-4.69-3.11-7.33-2.94-3.34-3-3.73-1.82-6.78,3.91-9.76,13-19.82,19.41-21.6a13.44,13.44,0,0,1,3.49-.54ZM623.85,235c1,0,.6,1.87-.77,7-3.18,11.87-10.74,22.06-21.91,29.52-9.76,6.52-10.67,5.48-5.19-6a76.79,76.79,0,0,1,25.71-29.52A5.45,5.45,0,0,1,623.85,235Zm150.32,2.7c5.32,0,10.87,1.38,14.28,3.81,3.61,2.57,14,15.21,16.49,20,4.94,9.6,25.47,38.42,37.24,52.29l7.47,8.79L852,333.32c2.92,13.09,4.05,16,5.66,14.35.88-.88.75-3.75-.52-11.9C854,315.18,853,300.87,853,277.3c0-27.71-.27-26.87,9.59-27.59C880,248.45,891,257,896,275.66c5.06,19-4.12,75.1-15,91.45-7.76,11.67-20.6,12.14-39,1.41-10.93-6.39-37.09-27.77-39.51-32.29-1.21-2.26-1-3.13,1.87-8.86a49.71,49.71,0,0,1,5.3-8.61c1.59-1.72,1.81-2.55.94-3.43-1.86-1.85-5.8.54-9.47,5.75l-3.24,4.6-1.42-3.33c-.78-1.83-2.42-6.7-3.64-10.82-2.42-8.16-4.72-9.93-5.28-4.07-1.34,14.1,28.43,73,56.14,111,2.58,3.55,4.69,6.77,4.69,7.16A70.87,70.87,0,0,0,853,434c10.39,17.56,15.69,29.93,19.55,45.52,3.35,13.56,3.4,34.94.11,46.5-5.66,19.87-16,34.85-32.08,46.35-3.16,2.26-5.52,3.15-8.36,3.15-3.82,0-3.93-.1-3.25-2.75,4.69-18.39,6.61-41.09,4.57-53.93-1.65-10.32-6-20.67-11.37-26.83l-4.31-5,.88-11.94a122.63,122.63,0,0,0-.15-21.46c-.56-5.23-.86-9.68-.66-9.89s3.56,6.07,7.44,14c12,24.4,16.13,40.74,16.08,63.82A149.16,149.16,0,0,1,840,542c-.78,4.38-1.24,8.14-1,8.37,1.25,1.25,3.48-1.29,4.88-5.52,3.76-11.43,4.65-31,2.1-45.94-3.42-20.11-14.64-46.13-29-67.31-3.83-5.64-7.83-11.67-8.9-13.41s-4-5.87-6.65-9.18l-4.72-6-1.1-13.49c-.61-7.41-1.37-16.86-1.7-21-1-12.6-4.81-20.88-11.75-25.59-4.43-3-13.45-5.41-20.36-5.41-2.9,0-5.29-.22-5.29-.48a47.64,47.64,0,0,1,4-5.75c9.28-12.19,7.24-18.25-9-26.7-8.46-4.4-27.05-12.07-29.24-12.07-.8,0-2.29-1.86-3.32-4.14-3.11-6.9-5.14-8.86-9.19-8.86-3.6,0-3.58,0,4.82-5.79,4.64-3.19,15-11,23.09-17.38C753,244.21,760,240.13,769,238.24a25.86,25.86,0,0,1,5.13-.52Zm-143.6.25c.63-.06,3,1.15,5.52,2.82,4.64,3.12,4.85,3.47,4.77,7.75-.26,13.65-16.77,39.94-29.75,47.38-7.05,4.05-8.37,4.13-11.57.71-2.57-2.76-7.9-13.8-7-14.45.21-.15,3.5-1.78,7.3-3.61,13.52-6.52,27.16-23.48,29.24-36.32.33-2.07.95-4,1.37-4.24,0,0,.06,0,.11,0Zm47.35,7.55c2,0,9.77,9.63,8.35,10.34-5.12,2.54-6.62,3.78-8.08,6.68-2.65,5.28-2.32,10.57.79,12.6,2.25,1.48,7.46,9,7.46,10.72,0,.95-5.09.7-7.77-.37a69,69,0,0,1-8.19-4.93l-5.92-4,4.38-9.25a125.38,125.38,0,0,0,6.1-15.5c1-3.45,2.25-6.26,2.88-6.26ZM686,262.65a4.84,4.84,0,0,1,.63,0c2.74.39,3.55,4.54,1.73,8.93-1.46,3.51-2,3.57-4.85.51-2.13-2.26-2.16-2.54-.69-6.06,1.07-2.57,1.81-3.42,3.18-3.42Zm15,2.91c1.33,0,2.53.3,3,1,1.08,1.75-1.5,6.6-4.15,7.81a14.21,14.21,0,0,1-4.88,1.13c-2.39,0-2.39,0-.88-3.75a14.91,14.91,0,0,1,3.14-5A6.8,6.8,0,0,1,701,265.56Zm-38.33,14.92,4.46,4.11c6,5.5,12.09,8.12,18.08,7.73,4.26-.27,4.87-.63,6.16-3.55,1.4-3.16,1.6-3.25,7.63-3.25a63.34,63.34,0,0,0,9.24-.61c2.89-.58,3.2-.32,5.74,4.75,1.48,2.95,4.09,6.6,4.12,8.7,0,2.49-.54,2.65-2.5,2.37-4.73-.66-6.53.06-11.15,2.5-3.2,1.68-6.43,4.33-7.73,6.34s-2.06-7.36-4.61-4.36c-.64.75-.58,13.52-1.34,17.17-1.71,8.22-5,14.92-8.53,17.5-3.9,2.83-12,3.15-18.57.72-6-2.23-8.88-3.87-22.5-12.94l-9.78-6.5,3.88-4.07A199.78,199.78,0,0,0,656,290.57Zm61.25,17.73c.4-.09,1.08.23,2.33.88,1.48.78,8.32,4,15.19,7.25s14,7.1,15.82,8.66c4.06,3.44,3.87,4.66-2.34,14.89-2.46,4.06-4.48,7.83-4.48,8.38,0,2.08,2.92,3.26,10.59,4.28,11.72,1.57,16.76,3.5,20.78,8,4.47,4.94,5.45,8.56,6.63,24.51.53,7.15,1.22,14.91,1.54,17.25s.2,4.25-.27,4.25-3.08-2.3-5.81-5.11-9.34-8.89-14.68-13.53c-11.47-9.93-15.88-15.87-26.3-35.36-4.26-8-9.43-17.06-11.5-20.19-3.31-5-3.69-6.23-3.24-10.2s.17-4.85-2.37-7.38c-1.75-1.74-2.75-3.69-2.56-5,.14-1,.27-1.48.67-1.57Zm-9.37,8.35c4.64-.06,8.65,1.54,7.62,4.21-.39,1-3.08,2-7.91,2.76a61.39,61.39,0,0,0-8.81,1.93c-1.73.82-5,.27-5-.82,0-1.42,2.54-4,6-6a16.71,16.71,0,0,1,8.11-2.06ZM659,317.38a6.59,6.59,0,0,0-3.88,1.39c-1.43,1.06-1.53,1.84-.63,5.06a15.39,15.39,0,0,0,3,5.75c2.48,2.49,3.77,2.44,6.62-.23,5-4.72.44-12.08-5.11-12Zm62.84,1c1.88.17,3.75,3.78,14.83,24.67,4.95,9.35,10.7,19.48,12.76,22.5,4.17,6.11,12.6,14.42,24.09,23.73,10.39,8.42,24,23,30.36,32.73,4.87,7.36,5.47,8.92,7.15,18.54,2.62,14.94,2.62,41.93,0,47.26-3.58,7.29-14.62,13.69-28.1,16.27a86.53,86.53,0,0,1-10.07,1.47c-2.15,0-2.29-.26-1.41-2.57,1.25-3.3,1.25-12.56,0-15.86-.53-1.41-2.8-4.54-5-7l-4.06-4.41-2-15.34c-1.1-8.45-3.15-20.08-4.57-25.85-4-16.15-9.94-30-13-30-1.93,0-1.75,2.57.65,8.87,3.68,9.69,8.83,32.35,10.83,47.65,1.86,14.23,3.46,20.48,5.23,20.48.44,0,2.05,1.65,3.59,3.67,2.41,3.15,2.87,4.84,3.3,12h0l.5,8.33-8.5-.1c-9.26-.1-18.22-1.62-29.72-5l-7.41-2.2.77-6.59c.41-3.62.72-17.16.66-30.08-.19-42.84-4.26-62.25-21-99.73-.31-.69.59-1.75,2-2.4,4.55-2.07,5.68-10.85,3-23.17-.57-2.6-.43-2.76,1.94-2.16,8,2,10.72-5.6,4.45-12.29l-2.1-2.25,3.42-.1a29.36,29.36,0,0,0,5.93-.82,4.17,4.17,0,0,1,1.42-.26h0ZM697,319.52c1.49,0,10.21,5.06,11.87,6.89,1,1.16,1.49,2.11,1,2.08-2.19-.08-13.41-6.49-13.41-7.67C696.44,320.1,696.68,319.52,697,319.52Zm-.56,7.2a.88.88,0,0,1,.27,0c1.58.53,5.87,18.15,5.52,22.68-.15,1.88-.74,3.58-1.33,3.77-1.38.45-4.57-3.14-7.44-8.38l-2.29-4.19,2.14-5a26.1,26.1,0,0,0,2.15-7.14c0-1.11.39-1.79,1-1.78Zm-42.54,16,3.53,1.8a56.86,56.86,0,0,0,7.82,3.08c3.27,1,4.14,1.66,3.66,2.86-3,7.6-6.59,20.46-6.75,24.41s.19,5.16,2.3,6.88,3.4,2,11.38,1.41l8.88-.62-.54,3.25c-.3,1.79-1.36,8.31-2.38,14.5s-2.08,11.25-2.37,11.25-3.9-1.1-8-2.45c-7.48-2.45-9.81-2.2-8.61.93.8,2.09,8.08,5.31,13.18,5.82,3.69.37,4,.63,4.27,3.8.16,1.87,1.62,10.25,3.25,18.62a155.18,155.18,0,0,1,1.56,51.32c-1.45,10.2-2.6,13-11.41,28-4.7,8-7.61,11.38-18.15,21.27-13.72,12.88-29.2,24.93-38.12,29.69-3.14,1.67-6.38,3-7.21,3-3,0-12.53-10.77-16.1-18.22-5.37-11.22-5.4-11.87-.65-14.56,11.73-6.64,34.56-29,46.53-45.63,14.22-19.73,19-24.57,25.68-26.11,4-.92,5.44-3.08,2.88-4.45s-7.89-.08-12.72,2.89l-3.15,1.94-11.1-18.3c-6.1-10.06-11.09-18.87-11.09-19.56a13.11,13.11,0,0,0-1.92-4.39c-3.34-5.44-5.35-15.33-4.79-23.61.94-14,6.41-25.71,22.51-48.16Zm33,2.62a.5.5,0,0,1,.54.55c0,.69,1.38,3.43,3.06,6.09s5.69,11,8.88,18.44c13.66,32,17.06,50.28,17.06,91.83,0,40.49-2.2,59.33-11,94.56-9,35.92-13.78,50.53-17.91,54.66-2.32,2.32-5.33,2.68-6.8.81-2.35-3-8.4-14.87-10.85-21.27-10.23-26.75-8.73-42,6.6-67,5.06-8.26,11.5-21.16,12.37-24.77,1.51-6.25,3.61-25.58,3.61-33.14q0-13.11-4.9-35.57c-2.66-12.24-2.61-16.36.41-34.46,1.37-8.22,2.24-15.76,1.93-16.75-.51-1.58-1.87-1.79-11.5-1.79s-10.94-.21-10.94-1.68c0-.93,1.42-7.45,3.16-14.5,3-12.3,3.26-12.82,5.75-12.84a22.27,22.27,0,0,0,6.84-1.95A10.41,10.41,0,0,1,686.9,345.32Zm35.19.54c-4.42,0-6.43,6.29-2.42,9.1,2.92,2.05,3.44,2,6.25-.83,1.61-1.61,2.21-3.09,1.84-4.52-.65-2.46-1.44-3.07-4.76-3.67A4.8,4.8,0,0,0,722.09,345.86Zm12.07,24.72a3.27,3.27,0,0,0-1.46.54c-2.43,1.52-2.8,6.15-.68,8.49h0c2.21,2.43,4.64,2.43,6.85,0,2.37-2.63,1.63-6.21-1.67-8.05a5.46,5.46,0,0,0-3-1Zm81.07,123,2.67,3.5c11.49,15.06,12.65,40.39,3.51,76.59a323.28,323.28,0,0,1-14.53,42.88c-9.3,21.37-29.76,62.42-42.37,85-15.2,27.22-18.35,34.31-25.39,57q-16.08,51.93-13.3,56.77c8.12,13.93,8.23,13.7-7.33,15.22-16.72,1.62-28.07,1.26-31.8-1-1.79-1.09-3.25-2.37-3.25-2.85,0-2.44,2.44-7.33,4.1-8.22,1.5-.81,1.9-2.14,1.9-6.43,0-12.48,5.89-48.57,12.53-76.74,8-33.85,11.29-44.44,23.89-76.14,27.33-68.71,41.8-111,39.81-116.44-1.26-3.39-3.74-.17-6.78,8.8l-3.23,9.5L753,555c-5.79-13-6.7-14.5-8.64-14.5-3.14,0-2.31,3.63,3.57,15.81l5.46,11.31L746,587.82c-4,11.11-11.86,31.9-17.38,46.19s-12.58,33.2-15.7,42-6,16.32-6.35,16.71c-1.32,1.37-5.16-5.88-7.07-13.35-1.06-4.15-3.56-17.18-5.54-29s-4.12-23.76-4.74-26.64c-1.07-5-1-5.32,1.33-7.16,5-4,9-14.54,17.39-46.11,6.87-25.91,11.35-47,12.07-56.84.79-10.77.67-10.57,5.37-8.17,8.93,4.55,20.31,6.45,38.53,6.45,24.71,0,36.06-3.28,46.14-13.3ZM586.68,554.83c1.41,0,2.09,1.17,4.14,5.13a34.71,34.71,0,0,0,6.25,8.53c1.86,1.63,3.38,3.72,3.38,4.65,0,4.07-13.76,18.85-20.5,22-8.56,4-14.74,2.85-25.8-4.88A51.52,51.52,0,0,0,542,584.08c-3.08-.89-5.59-1.82-5.59-2.07,0-1.13,7.39-4,17-6.71,5.78-1.61,11.51-3.57,12.73-4.36,2.1-1.36,2.33-1.24,4.15,2.32,4.35,8.48,14.16,13.45,20.19,10.22,3.18-1.7,2.39-4-1.4-4-5.83,0-15.76-7.95-16.81-13.46a3.64,3.64,0,0,0-2.62-2.5,21.34,21.34,0,0,1-6-3.54l-3.74-3,11-.63c6-.35,12.35-.93,14-1.31a7.09,7.09,0,0,1,1.74-.25ZM779.42,688.54c.29,0,1.61,2.59,3,5.75,10.9,25.78,20,41.78,32.38,57.23,14.75,18.33,25.35,29.2,31.56,32.36a50,50,0,0,1,7.35,4.38c2.58,2.27,2.79,2-17.11,25.62-3.94,4.68-8,8.37-10.56,9.62a20.9,20.9,0,0,1-5.85,2c-1.78,0-6.69-6.95-6.69-9.47,0-.83-4.39-6.61-9.75-12.85-9-10.48-30-36.71-45.19-56.46l-6.36-8.28,1.26-4.22c.7-2.32,5.19-10.75,10-18.73s10.25-17.31,12.11-20.75,3.63-6.22,3.91-6.22Zm-29.48,55.94,9.64,12.77c16.77,22.2,34.11,43.48,41.77,51.26,4.07,4.13,7.58,8.59,7.8,9.9.65,3.9,4.14,10,6.44,11.19,1.19.63,4.19,2.91,6.73,2l5.13-1.81v10.82A98.88,98.88,0,0,1,825.79,859c-1.61,7.34-1.74,7.56-5.26,8.51-8.45,2.27-16.08,9.38-16.08,15,0,2-.49,2-22.38,2H759.69l-1.2-2.91a26.51,26.51,0,0,0-5.25-6.75c-8-7.65-11-10.94-14.69-16.34-5.43-8-12.32-20.84-11.69-21.87.3-.48,1.89-1.14,3.54-1.47a11.87,11.87,0,0,0,5.13-2.75c3.23-3.22,2.28-10.64-2-16l-3.25-4,6.57-23.69c3.61-13,8-28.31,9.85-34Zm100.42,62.06c.67,0,1.08.52,1.08,1.73,0,3.68-2.09,9-4.34,11.1-2.83,2.66-8.36,4.45-9.26,3-.34-.56.49-2.21,1.84-3.68a77.16,77.16,0,0,0,5.66-7.42C847.36,808.27,849.24,806.59,850.36,806.54Zm6.76,3a71.48,71.48,0,0,1,8.13,4.66l3.53,2.2c1.73,1.41,3.6,2.21,3.7,6.23l-.37,5.82c-.35,5.27-1.57,15.89-2.73,23.59a223.11,223.11,0,0,0-2.28,23.24h0l-.16,9.24H808.21l1.79-2.75c6.08-9.35,17.45-11.44,36.29-6.69,10.17,2.56,12.52,2.56,11.53,0-1.08-2.82-17.49-8.52-24.59-8.55h-3.7l1.62-4.25c1.62-4.24,2.47-26.15,1.29-33.25-.44-2.57-.22-3,1.5-2.65,1.1.19,3.8.55,6,.8,7.49.85,14.52-5.18,15.87-13.59.36-2.23.94-4.06,1.31-4.06ZM720.26,836.61l2.79,6.58a123.81,123.81,0,0,0,7.19,13.7c2.42,3.92,4.53,7.35,4.69,7.63s-3.14.53-7.35.57c-6,0-8.68.59-12.55,2.52-5,2.48-7.61,5.21-6.31,6.52.39.39,3.37-.1,6.62-1.08,4.4-1.34,8-1.67,14.26-1.34,9.51.52,13.82,2.32,20.84,8.65h0l4.5,4.07-34.88,0-34.88,0,.68-7.25A229.49,229.49,0,0,1,691.27,846l1.79-7,6.94-.64c3.82-.35,9.94-.89,13.6-1.2Zm124.18,2.91c-4.14,0-8,2-8,4.16,0,1.63.9,1.84,8,1.84s8-.21,8-1.84C852.44,841.53,848.58,839.52,844.44,839.52Zm-134.78,9.65c-3,0-5.76.46-6.86,1.56a3.42,3.42,0,0,0-1.07,3.1c.44,1.16,2,1.38,7.39,1,8.61-.56,11.32-1.12,11.32-2.31C720.44,850.53,714.69,849.18,709.66,849.17Z" class="cls-8" id="path2615"></path></svg>